%TF.GenerationSoftware,KiCad,Pcbnew,10.0.6*%
%TF.CreationDate,2026-09-20T13:38:56+08:00*%
%TF.ProjectId,LonoBadge,4c6f6e6f-4261-4646-9765-2e6b69636164,rev?*%
%TF.SameCoordinates,Original*%
%TF.FileFunction,Legend,Bot*%
%TF.FilePolarity,Positive*%
%FSLAX46Y46*%
G04 Gerber Fmt 4.6, Leading zero omitted, Abs format (unit mm)*
G04 Created by KiCad (PCBNEW 10.0.6) date 2026-09-20 13:38:56*
%MOMM*%
%LPD*%
G01*
G04 APERTURE LIST*
%ADD10C,0.100000*%
%ADD11C,0.150000*%
%ADD12C,0.120000*%
G04 APERTURE END LIST*
D10*
X103267544Y-162322699D02*
X103458020Y-162322699D01*
X103458020Y-162322699D02*
X103553258Y-162370318D01*
X103553258Y-162370318D02*
X103600877Y-162417937D01*
X103600877Y-162417937D02*
X103696115Y-162560794D01*
X103696115Y-162560794D02*
X103743734Y-162751270D01*
X103743734Y-162751270D02*
X103743734Y-163132222D01*
X103743734Y-163132222D02*
X103696115Y-163227460D01*
X103696115Y-163227460D02*
X103648496Y-163275080D01*
X103648496Y-163275080D02*
X103553258Y-163322699D01*
X103553258Y-163322699D02*
X103362782Y-163322699D01*
X103362782Y-163322699D02*
X103267544Y-163275080D01*
X103267544Y-163275080D02*
X103219925Y-163227460D01*
X103219925Y-163227460D02*
X103172306Y-163132222D01*
X103172306Y-163132222D02*
X103172306Y-162894127D01*
X103172306Y-162894127D02*
X103219925Y-162798889D01*
X103219925Y-162798889D02*
X103267544Y-162751270D01*
X103267544Y-162751270D02*
X103362782Y-162703651D01*
X103362782Y-162703651D02*
X103553258Y-162703651D01*
X103553258Y-162703651D02*
X103648496Y-162751270D01*
X103648496Y-162751270D02*
X103696115Y-162798889D01*
X103696115Y-162798889D02*
X103743734Y-162894127D01*
X102838972Y-162322699D02*
X102172306Y-162322699D01*
X102172306Y-162322699D02*
X102600877Y-163322699D01*
X101362782Y-162322699D02*
X101553258Y-162322699D01*
X101553258Y-162322699D02*
X101648496Y-162370318D01*
X101648496Y-162370318D02*
X101696115Y-162417937D01*
X101696115Y-162417937D02*
X101791353Y-162560794D01*
X101791353Y-162560794D02*
X101838972Y-162751270D01*
X101838972Y-162751270D02*
X101838972Y-163132222D01*
X101838972Y-163132222D02*
X101791353Y-163227460D01*
X101791353Y-163227460D02*
X101743734Y-163275080D01*
X101743734Y-163275080D02*
X101648496Y-163322699D01*
X101648496Y-163322699D02*
X101458020Y-163322699D01*
X101458020Y-163322699D02*
X101362782Y-163275080D01*
X101362782Y-163275080D02*
X101315163Y-163227460D01*
X101315163Y-163227460D02*
X101267544Y-163132222D01*
X101267544Y-163132222D02*
X101267544Y-162894127D01*
X101267544Y-162894127D02*
X101315163Y-162798889D01*
X101315163Y-162798889D02*
X101362782Y-162751270D01*
X101362782Y-162751270D02*
X101458020Y-162703651D01*
X101458020Y-162703651D02*
X101648496Y-162703651D01*
X101648496Y-162703651D02*
X101743734Y-162751270D01*
X101743734Y-162751270D02*
X101791353Y-162798889D01*
X101791353Y-162798889D02*
X101838972Y-162894127D01*
X100934210Y-162322699D02*
X100267544Y-162322699D01*
X100267544Y-162322699D02*
X100696115Y-163322699D01*
X99458020Y-162322699D02*
X99648496Y-162322699D01*
X99648496Y-162322699D02*
X99743734Y-162370318D01*
X99743734Y-162370318D02*
X99791353Y-162417937D01*
X99791353Y-162417937D02*
X99886591Y-162560794D01*
X99886591Y-162560794D02*
X99934210Y-162751270D01*
X99934210Y-162751270D02*
X99934210Y-163132222D01*
X99934210Y-163132222D02*
X99886591Y-163227460D01*
X99886591Y-163227460D02*
X99838972Y-163275080D01*
X99838972Y-163275080D02*
X99743734Y-163322699D01*
X99743734Y-163322699D02*
X99553258Y-163322699D01*
X99553258Y-163322699D02*
X99458020Y-163275080D01*
X99458020Y-163275080D02*
X99410401Y-163227460D01*
X99410401Y-163227460D02*
X99362782Y-163132222D01*
X99362782Y-163132222D02*
X99362782Y-162894127D01*
X99362782Y-162894127D02*
X99410401Y-162798889D01*
X99410401Y-162798889D02*
X99458020Y-162751270D01*
X99458020Y-162751270D02*
X99553258Y-162703651D01*
X99553258Y-162703651D02*
X99743734Y-162703651D01*
X99743734Y-162703651D02*
X99838972Y-162751270D01*
X99838972Y-162751270D02*
X99886591Y-162798889D01*
X99886591Y-162798889D02*
X99934210Y-162894127D01*
X99029448Y-162322699D02*
X98362782Y-162322699D01*
X98362782Y-162322699D02*
X98791353Y-163322699D01*
X97553258Y-162322699D02*
X97743734Y-162322699D01*
X97743734Y-162322699D02*
X97838972Y-162370318D01*
X97838972Y-162370318D02*
X97886591Y-162417937D01*
X97886591Y-162417937D02*
X97981829Y-162560794D01*
X97981829Y-162560794D02*
X98029448Y-162751270D01*
X98029448Y-162751270D02*
X98029448Y-163132222D01*
X98029448Y-163132222D02*
X97981829Y-163227460D01*
X97981829Y-163227460D02*
X97934210Y-163275080D01*
X97934210Y-163275080D02*
X97838972Y-163322699D01*
X97838972Y-163322699D02*
X97648496Y-163322699D01*
X97648496Y-163322699D02*
X97553258Y-163275080D01*
X97553258Y-163275080D02*
X97505639Y-163227460D01*
X97505639Y-163227460D02*
X97458020Y-163132222D01*
X97458020Y-163132222D02*
X97458020Y-162894127D01*
X97458020Y-162894127D02*
X97505639Y-162798889D01*
X97505639Y-162798889D02*
X97553258Y-162751270D01*
X97553258Y-162751270D02*
X97648496Y-162703651D01*
X97648496Y-162703651D02*
X97838972Y-162703651D01*
X97838972Y-162703651D02*
X97934210Y-162751270D01*
X97934210Y-162751270D02*
X97981829Y-162798889D01*
X97981829Y-162798889D02*
X98029448Y-162894127D01*
X97124686Y-162322699D02*
X96458020Y-162322699D01*
X96458020Y-162322699D02*
X96886591Y-163322699D01*
X95648496Y-162322699D02*
X95838972Y-162322699D01*
X95838972Y-162322699D02*
X95934210Y-162370318D01*
X95934210Y-162370318D02*
X95981829Y-162417937D01*
X95981829Y-162417937D02*
X96077067Y-162560794D01*
X96077067Y-162560794D02*
X96124686Y-162751270D01*
X96124686Y-162751270D02*
X96124686Y-163132222D01*
X96124686Y-163132222D02*
X96077067Y-163227460D01*
X96077067Y-163227460D02*
X96029448Y-163275080D01*
X96029448Y-163275080D02*
X95934210Y-163322699D01*
X95934210Y-163322699D02*
X95743734Y-163322699D01*
X95743734Y-163322699D02*
X95648496Y-163275080D01*
X95648496Y-163275080D02*
X95600877Y-163227460D01*
X95600877Y-163227460D02*
X95553258Y-163132222D01*
X95553258Y-163132222D02*
X95553258Y-162894127D01*
X95553258Y-162894127D02*
X95600877Y-162798889D01*
X95600877Y-162798889D02*
X95648496Y-162751270D01*
X95648496Y-162751270D02*
X95743734Y-162703651D01*
X95743734Y-162703651D02*
X95934210Y-162703651D01*
X95934210Y-162703651D02*
X96029448Y-162751270D01*
X96029448Y-162751270D02*
X96077067Y-162798889D01*
X96077067Y-162798889D02*
X96124686Y-162894127D01*
X95219924Y-162322699D02*
X94553258Y-162322699D01*
X94553258Y-162322699D02*
X94981829Y-163322699D01*
X93743734Y-162322699D02*
X93934210Y-162322699D01*
X93934210Y-162322699D02*
X94029448Y-162370318D01*
X94029448Y-162370318D02*
X94077067Y-162417937D01*
X94077067Y-162417937D02*
X94172305Y-162560794D01*
X94172305Y-162560794D02*
X94219924Y-162751270D01*
X94219924Y-162751270D02*
X94219924Y-163132222D01*
X94219924Y-163132222D02*
X94172305Y-163227460D01*
X94172305Y-163227460D02*
X94124686Y-163275080D01*
X94124686Y-163275080D02*
X94029448Y-163322699D01*
X94029448Y-163322699D02*
X93838972Y-163322699D01*
X93838972Y-163322699D02*
X93743734Y-163275080D01*
X93743734Y-163275080D02*
X93696115Y-163227460D01*
X93696115Y-163227460D02*
X93648496Y-163132222D01*
X93648496Y-163132222D02*
X93648496Y-162894127D01*
X93648496Y-162894127D02*
X93696115Y-162798889D01*
X93696115Y-162798889D02*
X93743734Y-162751270D01*
X93743734Y-162751270D02*
X93838972Y-162703651D01*
X93838972Y-162703651D02*
X94029448Y-162703651D01*
X94029448Y-162703651D02*
X94124686Y-162751270D01*
X94124686Y-162751270D02*
X94172305Y-162798889D01*
X94172305Y-162798889D02*
X94219924Y-162894127D01*
X93315162Y-162322699D02*
X92648496Y-162322699D01*
X92648496Y-162322699D02*
X93077067Y-163322699D01*
X91838972Y-162322699D02*
X92029448Y-162322699D01*
X92029448Y-162322699D02*
X92124686Y-162370318D01*
X92124686Y-162370318D02*
X92172305Y-162417937D01*
X92172305Y-162417937D02*
X92267543Y-162560794D01*
X92267543Y-162560794D02*
X92315162Y-162751270D01*
X92315162Y-162751270D02*
X92315162Y-163132222D01*
X92315162Y-163132222D02*
X92267543Y-163227460D01*
X92267543Y-163227460D02*
X92219924Y-163275080D01*
X92219924Y-163275080D02*
X92124686Y-163322699D01*
X92124686Y-163322699D02*
X91934210Y-163322699D01*
X91934210Y-163322699D02*
X91838972Y-163275080D01*
X91838972Y-163275080D02*
X91791353Y-163227460D01*
X91791353Y-163227460D02*
X91743734Y-163132222D01*
X91743734Y-163132222D02*
X91743734Y-162894127D01*
X91743734Y-162894127D02*
X91791353Y-162798889D01*
X91791353Y-162798889D02*
X91838972Y-162751270D01*
X91838972Y-162751270D02*
X91934210Y-162703651D01*
X91934210Y-162703651D02*
X92124686Y-162703651D01*
X92124686Y-162703651D02*
X92219924Y-162751270D01*
X92219924Y-162751270D02*
X92267543Y-162798889D01*
X92267543Y-162798889D02*
X92315162Y-162894127D01*
X91410400Y-162322699D02*
X90743734Y-162322699D01*
X90743734Y-162322699D02*
X91172305Y-163322699D01*
X89934210Y-162322699D02*
X90124686Y-162322699D01*
X90124686Y-162322699D02*
X90219924Y-162370318D01*
X90219924Y-162370318D02*
X90267543Y-162417937D01*
X90267543Y-162417937D02*
X90362781Y-162560794D01*
X90362781Y-162560794D02*
X90410400Y-162751270D01*
X90410400Y-162751270D02*
X90410400Y-163132222D01*
X90410400Y-163132222D02*
X90362781Y-163227460D01*
X90362781Y-163227460D02*
X90315162Y-163275080D01*
X90315162Y-163275080D02*
X90219924Y-163322699D01*
X90219924Y-163322699D02*
X90029448Y-163322699D01*
X90029448Y-163322699D02*
X89934210Y-163275080D01*
X89934210Y-163275080D02*
X89886591Y-163227460D01*
X89886591Y-163227460D02*
X89838972Y-163132222D01*
X89838972Y-163132222D02*
X89838972Y-162894127D01*
X89838972Y-162894127D02*
X89886591Y-162798889D01*
X89886591Y-162798889D02*
X89934210Y-162751270D01*
X89934210Y-162751270D02*
X90029448Y-162703651D01*
X90029448Y-162703651D02*
X90219924Y-162703651D01*
X90219924Y-162703651D02*
X90315162Y-162751270D01*
X90315162Y-162751270D02*
X90362781Y-162798889D01*
X90362781Y-162798889D02*
X90410400Y-162894127D01*
X89505638Y-162322699D02*
X88838972Y-162322699D01*
X88838972Y-162322699D02*
X89267543Y-163322699D01*
X88029448Y-162322699D02*
X88219924Y-162322699D01*
X88219924Y-162322699D02*
X88315162Y-162370318D01*
X88315162Y-162370318D02*
X88362781Y-162417937D01*
X88362781Y-162417937D02*
X88458019Y-162560794D01*
X88458019Y-162560794D02*
X88505638Y-162751270D01*
X88505638Y-162751270D02*
X88505638Y-163132222D01*
X88505638Y-163132222D02*
X88458019Y-163227460D01*
X88458019Y-163227460D02*
X88410400Y-163275080D01*
X88410400Y-163275080D02*
X88315162Y-163322699D01*
X88315162Y-163322699D02*
X88124686Y-163322699D01*
X88124686Y-163322699D02*
X88029448Y-163275080D01*
X88029448Y-163275080D02*
X87981829Y-163227460D01*
X87981829Y-163227460D02*
X87934210Y-163132222D01*
X87934210Y-163132222D02*
X87934210Y-162894127D01*
X87934210Y-162894127D02*
X87981829Y-162798889D01*
X87981829Y-162798889D02*
X88029448Y-162751270D01*
X88029448Y-162751270D02*
X88124686Y-162703651D01*
X88124686Y-162703651D02*
X88315162Y-162703651D01*
X88315162Y-162703651D02*
X88410400Y-162751270D01*
X88410400Y-162751270D02*
X88458019Y-162798889D01*
X88458019Y-162798889D02*
X88505638Y-162894127D01*
X87600876Y-162322699D02*
X86934210Y-162322699D01*
X86934210Y-162322699D02*
X87362781Y-163322699D01*
X86124686Y-162322699D02*
X86315162Y-162322699D01*
X86315162Y-162322699D02*
X86410400Y-162370318D01*
X86410400Y-162370318D02*
X86458019Y-162417937D01*
X86458019Y-162417937D02*
X86553257Y-162560794D01*
X86553257Y-162560794D02*
X86600876Y-162751270D01*
X86600876Y-162751270D02*
X86600876Y-163132222D01*
X86600876Y-163132222D02*
X86553257Y-163227460D01*
X86553257Y-163227460D02*
X86505638Y-163275080D01*
X86505638Y-163275080D02*
X86410400Y-163322699D01*
X86410400Y-163322699D02*
X86219924Y-163322699D01*
X86219924Y-163322699D02*
X86124686Y-163275080D01*
X86124686Y-163275080D02*
X86077067Y-163227460D01*
X86077067Y-163227460D02*
X86029448Y-163132222D01*
X86029448Y-163132222D02*
X86029448Y-162894127D01*
X86029448Y-162894127D02*
X86077067Y-162798889D01*
X86077067Y-162798889D02*
X86124686Y-162751270D01*
X86124686Y-162751270D02*
X86219924Y-162703651D01*
X86219924Y-162703651D02*
X86410400Y-162703651D01*
X86410400Y-162703651D02*
X86505638Y-162751270D01*
X86505638Y-162751270D02*
X86553257Y-162798889D01*
X86553257Y-162798889D02*
X86600876Y-162894127D01*
X85696114Y-162322699D02*
X85029448Y-162322699D01*
X85029448Y-162322699D02*
X85458019Y-163322699D01*
X84219924Y-162322699D02*
X84410400Y-162322699D01*
X84410400Y-162322699D02*
X84505638Y-162370318D01*
X84505638Y-162370318D02*
X84553257Y-162417937D01*
X84553257Y-162417937D02*
X84648495Y-162560794D01*
X84648495Y-162560794D02*
X84696114Y-162751270D01*
X84696114Y-162751270D02*
X84696114Y-163132222D01*
X84696114Y-163132222D02*
X84648495Y-163227460D01*
X84648495Y-163227460D02*
X84600876Y-163275080D01*
X84600876Y-163275080D02*
X84505638Y-163322699D01*
X84505638Y-163322699D02*
X84315162Y-163322699D01*
X84315162Y-163322699D02*
X84219924Y-163275080D01*
X84219924Y-163275080D02*
X84172305Y-163227460D01*
X84172305Y-163227460D02*
X84124686Y-163132222D01*
X84124686Y-163132222D02*
X84124686Y-162894127D01*
X84124686Y-162894127D02*
X84172305Y-162798889D01*
X84172305Y-162798889D02*
X84219924Y-162751270D01*
X84219924Y-162751270D02*
X84315162Y-162703651D01*
X84315162Y-162703651D02*
X84505638Y-162703651D01*
X84505638Y-162703651D02*
X84600876Y-162751270D01*
X84600876Y-162751270D02*
X84648495Y-162798889D01*
X84648495Y-162798889D02*
X84696114Y-162894127D01*
X83791352Y-162322699D02*
X83124686Y-162322699D01*
X83124686Y-162322699D02*
X83553257Y-163322699D01*
X82315162Y-162322699D02*
X82505638Y-162322699D01*
X82505638Y-162322699D02*
X82600876Y-162370318D01*
X82600876Y-162370318D02*
X82648495Y-162417937D01*
X82648495Y-162417937D02*
X82743733Y-162560794D01*
X82743733Y-162560794D02*
X82791352Y-162751270D01*
X82791352Y-162751270D02*
X82791352Y-163132222D01*
X82791352Y-163132222D02*
X82743733Y-163227460D01*
X82743733Y-163227460D02*
X82696114Y-163275080D01*
X82696114Y-163275080D02*
X82600876Y-163322699D01*
X82600876Y-163322699D02*
X82410400Y-163322699D01*
X82410400Y-163322699D02*
X82315162Y-163275080D01*
X82315162Y-163275080D02*
X82267543Y-163227460D01*
X82267543Y-163227460D02*
X82219924Y-163132222D01*
X82219924Y-163132222D02*
X82219924Y-162894127D01*
X82219924Y-162894127D02*
X82267543Y-162798889D01*
X82267543Y-162798889D02*
X82315162Y-162751270D01*
X82315162Y-162751270D02*
X82410400Y-162703651D01*
X82410400Y-162703651D02*
X82600876Y-162703651D01*
X82600876Y-162703651D02*
X82696114Y-162751270D01*
X82696114Y-162751270D02*
X82743733Y-162798889D01*
X82743733Y-162798889D02*
X82791352Y-162894127D01*
X81886590Y-162322699D02*
X81219924Y-162322699D01*
X81219924Y-162322699D02*
X81648495Y-163322699D01*
X80410400Y-162322699D02*
X80600876Y-162322699D01*
X80600876Y-162322699D02*
X80696114Y-162370318D01*
X80696114Y-162370318D02*
X80743733Y-162417937D01*
X80743733Y-162417937D02*
X80838971Y-162560794D01*
X80838971Y-162560794D02*
X80886590Y-162751270D01*
X80886590Y-162751270D02*
X80886590Y-163132222D01*
X80886590Y-163132222D02*
X80838971Y-163227460D01*
X80838971Y-163227460D02*
X80791352Y-163275080D01*
X80791352Y-163275080D02*
X80696114Y-163322699D01*
X80696114Y-163322699D02*
X80505638Y-163322699D01*
X80505638Y-163322699D02*
X80410400Y-163275080D01*
X80410400Y-163275080D02*
X80362781Y-163227460D01*
X80362781Y-163227460D02*
X80315162Y-163132222D01*
X80315162Y-163132222D02*
X80315162Y-162894127D01*
X80315162Y-162894127D02*
X80362781Y-162798889D01*
X80362781Y-162798889D02*
X80410400Y-162751270D01*
X80410400Y-162751270D02*
X80505638Y-162703651D01*
X80505638Y-162703651D02*
X80696114Y-162703651D01*
X80696114Y-162703651D02*
X80791352Y-162751270D01*
X80791352Y-162751270D02*
X80838971Y-162798889D01*
X80838971Y-162798889D02*
X80886590Y-162894127D01*
X79981828Y-162322699D02*
X79315162Y-162322699D01*
X79315162Y-162322699D02*
X79743733Y-163322699D01*
X78505638Y-162322699D02*
X78696114Y-162322699D01*
X78696114Y-162322699D02*
X78791352Y-162370318D01*
X78791352Y-162370318D02*
X78838971Y-162417937D01*
X78838971Y-162417937D02*
X78934209Y-162560794D01*
X78934209Y-162560794D02*
X78981828Y-162751270D01*
X78981828Y-162751270D02*
X78981828Y-163132222D01*
X78981828Y-163132222D02*
X78934209Y-163227460D01*
X78934209Y-163227460D02*
X78886590Y-163275080D01*
X78886590Y-163275080D02*
X78791352Y-163322699D01*
X78791352Y-163322699D02*
X78600876Y-163322699D01*
X78600876Y-163322699D02*
X78505638Y-163275080D01*
X78505638Y-163275080D02*
X78458019Y-163227460D01*
X78458019Y-163227460D02*
X78410400Y-163132222D01*
X78410400Y-163132222D02*
X78410400Y-162894127D01*
X78410400Y-162894127D02*
X78458019Y-162798889D01*
X78458019Y-162798889D02*
X78505638Y-162751270D01*
X78505638Y-162751270D02*
X78600876Y-162703651D01*
X78600876Y-162703651D02*
X78791352Y-162703651D01*
X78791352Y-162703651D02*
X78886590Y-162751270D01*
X78886590Y-162751270D02*
X78934209Y-162798889D01*
X78934209Y-162798889D02*
X78981828Y-162894127D01*
X78077066Y-162322699D02*
X77410400Y-162322699D01*
X77410400Y-162322699D02*
X77838971Y-163322699D01*
X76600876Y-162322699D02*
X76791352Y-162322699D01*
X76791352Y-162322699D02*
X76886590Y-162370318D01*
X76886590Y-162370318D02*
X76934209Y-162417937D01*
X76934209Y-162417937D02*
X77029447Y-162560794D01*
X77029447Y-162560794D02*
X77077066Y-162751270D01*
X77077066Y-162751270D02*
X77077066Y-163132222D01*
X77077066Y-163132222D02*
X77029447Y-163227460D01*
X77029447Y-163227460D02*
X76981828Y-163275080D01*
X76981828Y-163275080D02*
X76886590Y-163322699D01*
X76886590Y-163322699D02*
X76696114Y-163322699D01*
X76696114Y-163322699D02*
X76600876Y-163275080D01*
X76600876Y-163275080D02*
X76553257Y-163227460D01*
X76553257Y-163227460D02*
X76505638Y-163132222D01*
X76505638Y-163132222D02*
X76505638Y-162894127D01*
X76505638Y-162894127D02*
X76553257Y-162798889D01*
X76553257Y-162798889D02*
X76600876Y-162751270D01*
X76600876Y-162751270D02*
X76696114Y-162703651D01*
X76696114Y-162703651D02*
X76886590Y-162703651D01*
X76886590Y-162703651D02*
X76981828Y-162751270D01*
X76981828Y-162751270D02*
X77029447Y-162798889D01*
X77029447Y-162798889D02*
X77077066Y-162894127D01*
X76172304Y-162322699D02*
X75505638Y-162322699D01*
X75505638Y-162322699D02*
X75934209Y-163322699D01*
X74696114Y-162322699D02*
X74886590Y-162322699D01*
X74886590Y-162322699D02*
X74981828Y-162370318D01*
X74981828Y-162370318D02*
X75029447Y-162417937D01*
X75029447Y-162417937D02*
X75124685Y-162560794D01*
X75124685Y-162560794D02*
X75172304Y-162751270D01*
X75172304Y-162751270D02*
X75172304Y-163132222D01*
X75172304Y-163132222D02*
X75124685Y-163227460D01*
X75124685Y-163227460D02*
X75077066Y-163275080D01*
X75077066Y-163275080D02*
X74981828Y-163322699D01*
X74981828Y-163322699D02*
X74791352Y-163322699D01*
X74791352Y-163322699D02*
X74696114Y-163275080D01*
X74696114Y-163275080D02*
X74648495Y-163227460D01*
X74648495Y-163227460D02*
X74600876Y-163132222D01*
X74600876Y-163132222D02*
X74600876Y-162894127D01*
X74600876Y-162894127D02*
X74648495Y-162798889D01*
X74648495Y-162798889D02*
X74696114Y-162751270D01*
X74696114Y-162751270D02*
X74791352Y-162703651D01*
X74791352Y-162703651D02*
X74981828Y-162703651D01*
X74981828Y-162703651D02*
X75077066Y-162751270D01*
X75077066Y-162751270D02*
X75124685Y-162798889D01*
X75124685Y-162798889D02*
X75172304Y-162894127D01*
X74267542Y-162322699D02*
X73600876Y-162322699D01*
X73600876Y-162322699D02*
X74029447Y-163322699D01*
X72791352Y-162322699D02*
X72981828Y-162322699D01*
X72981828Y-162322699D02*
X73077066Y-162370318D01*
X73077066Y-162370318D02*
X73124685Y-162417937D01*
X73124685Y-162417937D02*
X73219923Y-162560794D01*
X73219923Y-162560794D02*
X73267542Y-162751270D01*
X73267542Y-162751270D02*
X73267542Y-163132222D01*
X73267542Y-163132222D02*
X73219923Y-163227460D01*
X73219923Y-163227460D02*
X73172304Y-163275080D01*
X73172304Y-163275080D02*
X73077066Y-163322699D01*
X73077066Y-163322699D02*
X72886590Y-163322699D01*
X72886590Y-163322699D02*
X72791352Y-163275080D01*
X72791352Y-163275080D02*
X72743733Y-163227460D01*
X72743733Y-163227460D02*
X72696114Y-163132222D01*
X72696114Y-163132222D02*
X72696114Y-162894127D01*
X72696114Y-162894127D02*
X72743733Y-162798889D01*
X72743733Y-162798889D02*
X72791352Y-162751270D01*
X72791352Y-162751270D02*
X72886590Y-162703651D01*
X72886590Y-162703651D02*
X73077066Y-162703651D01*
X73077066Y-162703651D02*
X73172304Y-162751270D01*
X73172304Y-162751270D02*
X73219923Y-162798889D01*
X73219923Y-162798889D02*
X73267542Y-162894127D01*
X72362780Y-162322699D02*
X71696114Y-162322699D01*
X71696114Y-162322699D02*
X72124685Y-163322699D01*
X70886590Y-162322699D02*
X71077066Y-162322699D01*
X71077066Y-162322699D02*
X71172304Y-162370318D01*
X71172304Y-162370318D02*
X71219923Y-162417937D01*
X71219923Y-162417937D02*
X71315161Y-162560794D01*
X71315161Y-162560794D02*
X71362780Y-162751270D01*
X71362780Y-162751270D02*
X71362780Y-163132222D01*
X71362780Y-163132222D02*
X71315161Y-163227460D01*
X71315161Y-163227460D02*
X71267542Y-163275080D01*
X71267542Y-163275080D02*
X71172304Y-163322699D01*
X71172304Y-163322699D02*
X70981828Y-163322699D01*
X70981828Y-163322699D02*
X70886590Y-163275080D01*
X70886590Y-163275080D02*
X70838971Y-163227460D01*
X70838971Y-163227460D02*
X70791352Y-163132222D01*
X70791352Y-163132222D02*
X70791352Y-162894127D01*
X70791352Y-162894127D02*
X70838971Y-162798889D01*
X70838971Y-162798889D02*
X70886590Y-162751270D01*
X70886590Y-162751270D02*
X70981828Y-162703651D01*
X70981828Y-162703651D02*
X71172304Y-162703651D01*
X71172304Y-162703651D02*
X71267542Y-162751270D01*
X71267542Y-162751270D02*
X71315161Y-162798889D01*
X71315161Y-162798889D02*
X71362780Y-162894127D01*
X70458018Y-162322699D02*
X69791352Y-162322699D01*
X69791352Y-162322699D02*
X70219923Y-163322699D01*
X103267544Y-163932643D02*
X103458020Y-163932643D01*
X103458020Y-163932643D02*
X103553258Y-163980262D01*
X103553258Y-163980262D02*
X103600877Y-164027881D01*
X103600877Y-164027881D02*
X103696115Y-164170738D01*
X103696115Y-164170738D02*
X103743734Y-164361214D01*
X103743734Y-164361214D02*
X103743734Y-164742166D01*
X103743734Y-164742166D02*
X103696115Y-164837404D01*
X103696115Y-164837404D02*
X103648496Y-164885024D01*
X103648496Y-164885024D02*
X103553258Y-164932643D01*
X103553258Y-164932643D02*
X103362782Y-164932643D01*
X103362782Y-164932643D02*
X103267544Y-164885024D01*
X103267544Y-164885024D02*
X103219925Y-164837404D01*
X103219925Y-164837404D02*
X103172306Y-164742166D01*
X103172306Y-164742166D02*
X103172306Y-164504071D01*
X103172306Y-164504071D02*
X103219925Y-164408833D01*
X103219925Y-164408833D02*
X103267544Y-164361214D01*
X103267544Y-164361214D02*
X103362782Y-164313595D01*
X103362782Y-164313595D02*
X103553258Y-164313595D01*
X103553258Y-164313595D02*
X103648496Y-164361214D01*
X103648496Y-164361214D02*
X103696115Y-164408833D01*
X103696115Y-164408833D02*
X103743734Y-164504071D01*
X102838972Y-163932643D02*
X102172306Y-163932643D01*
X102172306Y-163932643D02*
X102600877Y-164932643D01*
X101362782Y-163932643D02*
X101553258Y-163932643D01*
X101553258Y-163932643D02*
X101648496Y-163980262D01*
X101648496Y-163980262D02*
X101696115Y-164027881D01*
X101696115Y-164027881D02*
X101791353Y-164170738D01*
X101791353Y-164170738D02*
X101838972Y-164361214D01*
X101838972Y-164361214D02*
X101838972Y-164742166D01*
X101838972Y-164742166D02*
X101791353Y-164837404D01*
X101791353Y-164837404D02*
X101743734Y-164885024D01*
X101743734Y-164885024D02*
X101648496Y-164932643D01*
X101648496Y-164932643D02*
X101458020Y-164932643D01*
X101458020Y-164932643D02*
X101362782Y-164885024D01*
X101362782Y-164885024D02*
X101315163Y-164837404D01*
X101315163Y-164837404D02*
X101267544Y-164742166D01*
X101267544Y-164742166D02*
X101267544Y-164504071D01*
X101267544Y-164504071D02*
X101315163Y-164408833D01*
X101315163Y-164408833D02*
X101362782Y-164361214D01*
X101362782Y-164361214D02*
X101458020Y-164313595D01*
X101458020Y-164313595D02*
X101648496Y-164313595D01*
X101648496Y-164313595D02*
X101743734Y-164361214D01*
X101743734Y-164361214D02*
X101791353Y-164408833D01*
X101791353Y-164408833D02*
X101838972Y-164504071D01*
X100934210Y-163932643D02*
X100267544Y-163932643D01*
X100267544Y-163932643D02*
X100696115Y-164932643D01*
X99458020Y-163932643D02*
X99648496Y-163932643D01*
X99648496Y-163932643D02*
X99743734Y-163980262D01*
X99743734Y-163980262D02*
X99791353Y-164027881D01*
X99791353Y-164027881D02*
X99886591Y-164170738D01*
X99886591Y-164170738D02*
X99934210Y-164361214D01*
X99934210Y-164361214D02*
X99934210Y-164742166D01*
X99934210Y-164742166D02*
X99886591Y-164837404D01*
X99886591Y-164837404D02*
X99838972Y-164885024D01*
X99838972Y-164885024D02*
X99743734Y-164932643D01*
X99743734Y-164932643D02*
X99553258Y-164932643D01*
X99553258Y-164932643D02*
X99458020Y-164885024D01*
X99458020Y-164885024D02*
X99410401Y-164837404D01*
X99410401Y-164837404D02*
X99362782Y-164742166D01*
X99362782Y-164742166D02*
X99362782Y-164504071D01*
X99362782Y-164504071D02*
X99410401Y-164408833D01*
X99410401Y-164408833D02*
X99458020Y-164361214D01*
X99458020Y-164361214D02*
X99553258Y-164313595D01*
X99553258Y-164313595D02*
X99743734Y-164313595D01*
X99743734Y-164313595D02*
X99838972Y-164361214D01*
X99838972Y-164361214D02*
X99886591Y-164408833D01*
X99886591Y-164408833D02*
X99934210Y-164504071D01*
X99029448Y-163932643D02*
X98362782Y-163932643D01*
X98362782Y-163932643D02*
X98791353Y-164932643D01*
X97553258Y-163932643D02*
X97743734Y-163932643D01*
X97743734Y-163932643D02*
X97838972Y-163980262D01*
X97838972Y-163980262D02*
X97886591Y-164027881D01*
X97886591Y-164027881D02*
X97981829Y-164170738D01*
X97981829Y-164170738D02*
X98029448Y-164361214D01*
X98029448Y-164361214D02*
X98029448Y-164742166D01*
X98029448Y-164742166D02*
X97981829Y-164837404D01*
X97981829Y-164837404D02*
X97934210Y-164885024D01*
X97934210Y-164885024D02*
X97838972Y-164932643D01*
X97838972Y-164932643D02*
X97648496Y-164932643D01*
X97648496Y-164932643D02*
X97553258Y-164885024D01*
X97553258Y-164885024D02*
X97505639Y-164837404D01*
X97505639Y-164837404D02*
X97458020Y-164742166D01*
X97458020Y-164742166D02*
X97458020Y-164504071D01*
X97458020Y-164504071D02*
X97505639Y-164408833D01*
X97505639Y-164408833D02*
X97553258Y-164361214D01*
X97553258Y-164361214D02*
X97648496Y-164313595D01*
X97648496Y-164313595D02*
X97838972Y-164313595D01*
X97838972Y-164313595D02*
X97934210Y-164361214D01*
X97934210Y-164361214D02*
X97981829Y-164408833D01*
X97981829Y-164408833D02*
X98029448Y-164504071D01*
X97124686Y-163932643D02*
X96458020Y-163932643D01*
X96458020Y-163932643D02*
X96886591Y-164932643D01*
X95648496Y-163932643D02*
X95838972Y-163932643D01*
X95838972Y-163932643D02*
X95934210Y-163980262D01*
X95934210Y-163980262D02*
X95981829Y-164027881D01*
X95981829Y-164027881D02*
X96077067Y-164170738D01*
X96077067Y-164170738D02*
X96124686Y-164361214D01*
X96124686Y-164361214D02*
X96124686Y-164742166D01*
X96124686Y-164742166D02*
X96077067Y-164837404D01*
X96077067Y-164837404D02*
X96029448Y-164885024D01*
X96029448Y-164885024D02*
X95934210Y-164932643D01*
X95934210Y-164932643D02*
X95743734Y-164932643D01*
X95743734Y-164932643D02*
X95648496Y-164885024D01*
X95648496Y-164885024D02*
X95600877Y-164837404D01*
X95600877Y-164837404D02*
X95553258Y-164742166D01*
X95553258Y-164742166D02*
X95553258Y-164504071D01*
X95553258Y-164504071D02*
X95600877Y-164408833D01*
X95600877Y-164408833D02*
X95648496Y-164361214D01*
X95648496Y-164361214D02*
X95743734Y-164313595D01*
X95743734Y-164313595D02*
X95934210Y-164313595D01*
X95934210Y-164313595D02*
X96029448Y-164361214D01*
X96029448Y-164361214D02*
X96077067Y-164408833D01*
X96077067Y-164408833D02*
X96124686Y-164504071D01*
X95219924Y-163932643D02*
X94553258Y-163932643D01*
X94553258Y-163932643D02*
X94981829Y-164932643D01*
X93743734Y-163932643D02*
X93934210Y-163932643D01*
X93934210Y-163932643D02*
X94029448Y-163980262D01*
X94029448Y-163980262D02*
X94077067Y-164027881D01*
X94077067Y-164027881D02*
X94172305Y-164170738D01*
X94172305Y-164170738D02*
X94219924Y-164361214D01*
X94219924Y-164361214D02*
X94219924Y-164742166D01*
X94219924Y-164742166D02*
X94172305Y-164837404D01*
X94172305Y-164837404D02*
X94124686Y-164885024D01*
X94124686Y-164885024D02*
X94029448Y-164932643D01*
X94029448Y-164932643D02*
X93838972Y-164932643D01*
X93838972Y-164932643D02*
X93743734Y-164885024D01*
X93743734Y-164885024D02*
X93696115Y-164837404D01*
X93696115Y-164837404D02*
X93648496Y-164742166D01*
X93648496Y-164742166D02*
X93648496Y-164504071D01*
X93648496Y-164504071D02*
X93696115Y-164408833D01*
X93696115Y-164408833D02*
X93743734Y-164361214D01*
X93743734Y-164361214D02*
X93838972Y-164313595D01*
X93838972Y-164313595D02*
X94029448Y-164313595D01*
X94029448Y-164313595D02*
X94124686Y-164361214D01*
X94124686Y-164361214D02*
X94172305Y-164408833D01*
X94172305Y-164408833D02*
X94219924Y-164504071D01*
X93315162Y-163932643D02*
X92648496Y-163932643D01*
X92648496Y-163932643D02*
X93077067Y-164932643D01*
X91838972Y-163932643D02*
X92029448Y-163932643D01*
X92029448Y-163932643D02*
X92124686Y-163980262D01*
X92124686Y-163980262D02*
X92172305Y-164027881D01*
X92172305Y-164027881D02*
X92267543Y-164170738D01*
X92267543Y-164170738D02*
X92315162Y-164361214D01*
X92315162Y-164361214D02*
X92315162Y-164742166D01*
X92315162Y-164742166D02*
X92267543Y-164837404D01*
X92267543Y-164837404D02*
X92219924Y-164885024D01*
X92219924Y-164885024D02*
X92124686Y-164932643D01*
X92124686Y-164932643D02*
X91934210Y-164932643D01*
X91934210Y-164932643D02*
X91838972Y-164885024D01*
X91838972Y-164885024D02*
X91791353Y-164837404D01*
X91791353Y-164837404D02*
X91743734Y-164742166D01*
X91743734Y-164742166D02*
X91743734Y-164504071D01*
X91743734Y-164504071D02*
X91791353Y-164408833D01*
X91791353Y-164408833D02*
X91838972Y-164361214D01*
X91838972Y-164361214D02*
X91934210Y-164313595D01*
X91934210Y-164313595D02*
X92124686Y-164313595D01*
X92124686Y-164313595D02*
X92219924Y-164361214D01*
X92219924Y-164361214D02*
X92267543Y-164408833D01*
X92267543Y-164408833D02*
X92315162Y-164504071D01*
X91410400Y-163932643D02*
X90743734Y-163932643D01*
X90743734Y-163932643D02*
X91172305Y-164932643D01*
X89934210Y-163932643D02*
X90124686Y-163932643D01*
X90124686Y-163932643D02*
X90219924Y-163980262D01*
X90219924Y-163980262D02*
X90267543Y-164027881D01*
X90267543Y-164027881D02*
X90362781Y-164170738D01*
X90362781Y-164170738D02*
X90410400Y-164361214D01*
X90410400Y-164361214D02*
X90410400Y-164742166D01*
X90410400Y-164742166D02*
X90362781Y-164837404D01*
X90362781Y-164837404D02*
X90315162Y-164885024D01*
X90315162Y-164885024D02*
X90219924Y-164932643D01*
X90219924Y-164932643D02*
X90029448Y-164932643D01*
X90029448Y-164932643D02*
X89934210Y-164885024D01*
X89934210Y-164885024D02*
X89886591Y-164837404D01*
X89886591Y-164837404D02*
X89838972Y-164742166D01*
X89838972Y-164742166D02*
X89838972Y-164504071D01*
X89838972Y-164504071D02*
X89886591Y-164408833D01*
X89886591Y-164408833D02*
X89934210Y-164361214D01*
X89934210Y-164361214D02*
X90029448Y-164313595D01*
X90029448Y-164313595D02*
X90219924Y-164313595D01*
X90219924Y-164313595D02*
X90315162Y-164361214D01*
X90315162Y-164361214D02*
X90362781Y-164408833D01*
X90362781Y-164408833D02*
X90410400Y-164504071D01*
X89505638Y-163932643D02*
X88838972Y-163932643D01*
X88838972Y-163932643D02*
X89267543Y-164932643D01*
X88029448Y-163932643D02*
X88219924Y-163932643D01*
X88219924Y-163932643D02*
X88315162Y-163980262D01*
X88315162Y-163980262D02*
X88362781Y-164027881D01*
X88362781Y-164027881D02*
X88458019Y-164170738D01*
X88458019Y-164170738D02*
X88505638Y-164361214D01*
X88505638Y-164361214D02*
X88505638Y-164742166D01*
X88505638Y-164742166D02*
X88458019Y-164837404D01*
X88458019Y-164837404D02*
X88410400Y-164885024D01*
X88410400Y-164885024D02*
X88315162Y-164932643D01*
X88315162Y-164932643D02*
X88124686Y-164932643D01*
X88124686Y-164932643D02*
X88029448Y-164885024D01*
X88029448Y-164885024D02*
X87981829Y-164837404D01*
X87981829Y-164837404D02*
X87934210Y-164742166D01*
X87934210Y-164742166D02*
X87934210Y-164504071D01*
X87934210Y-164504071D02*
X87981829Y-164408833D01*
X87981829Y-164408833D02*
X88029448Y-164361214D01*
X88029448Y-164361214D02*
X88124686Y-164313595D01*
X88124686Y-164313595D02*
X88315162Y-164313595D01*
X88315162Y-164313595D02*
X88410400Y-164361214D01*
X88410400Y-164361214D02*
X88458019Y-164408833D01*
X88458019Y-164408833D02*
X88505638Y-164504071D01*
X87600876Y-163932643D02*
X86934210Y-163932643D01*
X86934210Y-163932643D02*
X87362781Y-164932643D01*
X86124686Y-163932643D02*
X86315162Y-163932643D01*
X86315162Y-163932643D02*
X86410400Y-163980262D01*
X86410400Y-163980262D02*
X86458019Y-164027881D01*
X86458019Y-164027881D02*
X86553257Y-164170738D01*
X86553257Y-164170738D02*
X86600876Y-164361214D01*
X86600876Y-164361214D02*
X86600876Y-164742166D01*
X86600876Y-164742166D02*
X86553257Y-164837404D01*
X86553257Y-164837404D02*
X86505638Y-164885024D01*
X86505638Y-164885024D02*
X86410400Y-164932643D01*
X86410400Y-164932643D02*
X86219924Y-164932643D01*
X86219924Y-164932643D02*
X86124686Y-164885024D01*
X86124686Y-164885024D02*
X86077067Y-164837404D01*
X86077067Y-164837404D02*
X86029448Y-164742166D01*
X86029448Y-164742166D02*
X86029448Y-164504071D01*
X86029448Y-164504071D02*
X86077067Y-164408833D01*
X86077067Y-164408833D02*
X86124686Y-164361214D01*
X86124686Y-164361214D02*
X86219924Y-164313595D01*
X86219924Y-164313595D02*
X86410400Y-164313595D01*
X86410400Y-164313595D02*
X86505638Y-164361214D01*
X86505638Y-164361214D02*
X86553257Y-164408833D01*
X86553257Y-164408833D02*
X86600876Y-164504071D01*
X85696114Y-163932643D02*
X85029448Y-163932643D01*
X85029448Y-163932643D02*
X85458019Y-164932643D01*
X84219924Y-163932643D02*
X84410400Y-163932643D01*
X84410400Y-163932643D02*
X84505638Y-163980262D01*
X84505638Y-163980262D02*
X84553257Y-164027881D01*
X84553257Y-164027881D02*
X84648495Y-164170738D01*
X84648495Y-164170738D02*
X84696114Y-164361214D01*
X84696114Y-164361214D02*
X84696114Y-164742166D01*
X84696114Y-164742166D02*
X84648495Y-164837404D01*
X84648495Y-164837404D02*
X84600876Y-164885024D01*
X84600876Y-164885024D02*
X84505638Y-164932643D01*
X84505638Y-164932643D02*
X84315162Y-164932643D01*
X84315162Y-164932643D02*
X84219924Y-164885024D01*
X84219924Y-164885024D02*
X84172305Y-164837404D01*
X84172305Y-164837404D02*
X84124686Y-164742166D01*
X84124686Y-164742166D02*
X84124686Y-164504071D01*
X84124686Y-164504071D02*
X84172305Y-164408833D01*
X84172305Y-164408833D02*
X84219924Y-164361214D01*
X84219924Y-164361214D02*
X84315162Y-164313595D01*
X84315162Y-164313595D02*
X84505638Y-164313595D01*
X84505638Y-164313595D02*
X84600876Y-164361214D01*
X84600876Y-164361214D02*
X84648495Y-164408833D01*
X84648495Y-164408833D02*
X84696114Y-164504071D01*
X83791352Y-163932643D02*
X83124686Y-163932643D01*
X83124686Y-163932643D02*
X83553257Y-164932643D01*
X82315162Y-163932643D02*
X82505638Y-163932643D01*
X82505638Y-163932643D02*
X82600876Y-163980262D01*
X82600876Y-163980262D02*
X82648495Y-164027881D01*
X82648495Y-164027881D02*
X82743733Y-164170738D01*
X82743733Y-164170738D02*
X82791352Y-164361214D01*
X82791352Y-164361214D02*
X82791352Y-164742166D01*
X82791352Y-164742166D02*
X82743733Y-164837404D01*
X82743733Y-164837404D02*
X82696114Y-164885024D01*
X82696114Y-164885024D02*
X82600876Y-164932643D01*
X82600876Y-164932643D02*
X82410400Y-164932643D01*
X82410400Y-164932643D02*
X82315162Y-164885024D01*
X82315162Y-164885024D02*
X82267543Y-164837404D01*
X82267543Y-164837404D02*
X82219924Y-164742166D01*
X82219924Y-164742166D02*
X82219924Y-164504071D01*
X82219924Y-164504071D02*
X82267543Y-164408833D01*
X82267543Y-164408833D02*
X82315162Y-164361214D01*
X82315162Y-164361214D02*
X82410400Y-164313595D01*
X82410400Y-164313595D02*
X82600876Y-164313595D01*
X82600876Y-164313595D02*
X82696114Y-164361214D01*
X82696114Y-164361214D02*
X82743733Y-164408833D01*
X82743733Y-164408833D02*
X82791352Y-164504071D01*
X81886590Y-163932643D02*
X81219924Y-163932643D01*
X81219924Y-163932643D02*
X81648495Y-164932643D01*
X80410400Y-163932643D02*
X80600876Y-163932643D01*
X80600876Y-163932643D02*
X80696114Y-163980262D01*
X80696114Y-163980262D02*
X80743733Y-164027881D01*
X80743733Y-164027881D02*
X80838971Y-164170738D01*
X80838971Y-164170738D02*
X80886590Y-164361214D01*
X80886590Y-164361214D02*
X80886590Y-164742166D01*
X80886590Y-164742166D02*
X80838971Y-164837404D01*
X80838971Y-164837404D02*
X80791352Y-164885024D01*
X80791352Y-164885024D02*
X80696114Y-164932643D01*
X80696114Y-164932643D02*
X80505638Y-164932643D01*
X80505638Y-164932643D02*
X80410400Y-164885024D01*
X80410400Y-164885024D02*
X80362781Y-164837404D01*
X80362781Y-164837404D02*
X80315162Y-164742166D01*
X80315162Y-164742166D02*
X80315162Y-164504071D01*
X80315162Y-164504071D02*
X80362781Y-164408833D01*
X80362781Y-164408833D02*
X80410400Y-164361214D01*
X80410400Y-164361214D02*
X80505638Y-164313595D01*
X80505638Y-164313595D02*
X80696114Y-164313595D01*
X80696114Y-164313595D02*
X80791352Y-164361214D01*
X80791352Y-164361214D02*
X80838971Y-164408833D01*
X80838971Y-164408833D02*
X80886590Y-164504071D01*
X79981828Y-163932643D02*
X79315162Y-163932643D01*
X79315162Y-163932643D02*
X79743733Y-164932643D01*
X78505638Y-163932643D02*
X78696114Y-163932643D01*
X78696114Y-163932643D02*
X78791352Y-163980262D01*
X78791352Y-163980262D02*
X78838971Y-164027881D01*
X78838971Y-164027881D02*
X78934209Y-164170738D01*
X78934209Y-164170738D02*
X78981828Y-164361214D01*
X78981828Y-164361214D02*
X78981828Y-164742166D01*
X78981828Y-164742166D02*
X78934209Y-164837404D01*
X78934209Y-164837404D02*
X78886590Y-164885024D01*
X78886590Y-164885024D02*
X78791352Y-164932643D01*
X78791352Y-164932643D02*
X78600876Y-164932643D01*
X78600876Y-164932643D02*
X78505638Y-164885024D01*
X78505638Y-164885024D02*
X78458019Y-164837404D01*
X78458019Y-164837404D02*
X78410400Y-164742166D01*
X78410400Y-164742166D02*
X78410400Y-164504071D01*
X78410400Y-164504071D02*
X78458019Y-164408833D01*
X78458019Y-164408833D02*
X78505638Y-164361214D01*
X78505638Y-164361214D02*
X78600876Y-164313595D01*
X78600876Y-164313595D02*
X78791352Y-164313595D01*
X78791352Y-164313595D02*
X78886590Y-164361214D01*
X78886590Y-164361214D02*
X78934209Y-164408833D01*
X78934209Y-164408833D02*
X78981828Y-164504071D01*
X78077066Y-163932643D02*
X77410400Y-163932643D01*
X77410400Y-163932643D02*
X77838971Y-164932643D01*
X76600876Y-163932643D02*
X76791352Y-163932643D01*
X76791352Y-163932643D02*
X76886590Y-163980262D01*
X76886590Y-163980262D02*
X76934209Y-164027881D01*
X76934209Y-164027881D02*
X77029447Y-164170738D01*
X77029447Y-164170738D02*
X77077066Y-164361214D01*
X77077066Y-164361214D02*
X77077066Y-164742166D01*
X77077066Y-164742166D02*
X77029447Y-164837404D01*
X77029447Y-164837404D02*
X76981828Y-164885024D01*
X76981828Y-164885024D02*
X76886590Y-164932643D01*
X76886590Y-164932643D02*
X76696114Y-164932643D01*
X76696114Y-164932643D02*
X76600876Y-164885024D01*
X76600876Y-164885024D02*
X76553257Y-164837404D01*
X76553257Y-164837404D02*
X76505638Y-164742166D01*
X76505638Y-164742166D02*
X76505638Y-164504071D01*
X76505638Y-164504071D02*
X76553257Y-164408833D01*
X76553257Y-164408833D02*
X76600876Y-164361214D01*
X76600876Y-164361214D02*
X76696114Y-164313595D01*
X76696114Y-164313595D02*
X76886590Y-164313595D01*
X76886590Y-164313595D02*
X76981828Y-164361214D01*
X76981828Y-164361214D02*
X77029447Y-164408833D01*
X77029447Y-164408833D02*
X77077066Y-164504071D01*
X76172304Y-163932643D02*
X75505638Y-163932643D01*
X75505638Y-163932643D02*
X75934209Y-164932643D01*
X74696114Y-163932643D02*
X74886590Y-163932643D01*
X74886590Y-163932643D02*
X74981828Y-163980262D01*
X74981828Y-163980262D02*
X75029447Y-164027881D01*
X75029447Y-164027881D02*
X75124685Y-164170738D01*
X75124685Y-164170738D02*
X75172304Y-164361214D01*
X75172304Y-164361214D02*
X75172304Y-164742166D01*
X75172304Y-164742166D02*
X75124685Y-164837404D01*
X75124685Y-164837404D02*
X75077066Y-164885024D01*
X75077066Y-164885024D02*
X74981828Y-164932643D01*
X74981828Y-164932643D02*
X74791352Y-164932643D01*
X74791352Y-164932643D02*
X74696114Y-164885024D01*
X74696114Y-164885024D02*
X74648495Y-164837404D01*
X74648495Y-164837404D02*
X74600876Y-164742166D01*
X74600876Y-164742166D02*
X74600876Y-164504071D01*
X74600876Y-164504071D02*
X74648495Y-164408833D01*
X74648495Y-164408833D02*
X74696114Y-164361214D01*
X74696114Y-164361214D02*
X74791352Y-164313595D01*
X74791352Y-164313595D02*
X74981828Y-164313595D01*
X74981828Y-164313595D02*
X75077066Y-164361214D01*
X75077066Y-164361214D02*
X75124685Y-164408833D01*
X75124685Y-164408833D02*
X75172304Y-164504071D01*
X74267542Y-163932643D02*
X73600876Y-163932643D01*
X73600876Y-163932643D02*
X74029447Y-164932643D01*
X72791352Y-163932643D02*
X72981828Y-163932643D01*
X72981828Y-163932643D02*
X73077066Y-163980262D01*
X73077066Y-163980262D02*
X73124685Y-164027881D01*
X73124685Y-164027881D02*
X73219923Y-164170738D01*
X73219923Y-164170738D02*
X73267542Y-164361214D01*
X73267542Y-164361214D02*
X73267542Y-164742166D01*
X73267542Y-164742166D02*
X73219923Y-164837404D01*
X73219923Y-164837404D02*
X73172304Y-164885024D01*
X73172304Y-164885024D02*
X73077066Y-164932643D01*
X73077066Y-164932643D02*
X72886590Y-164932643D01*
X72886590Y-164932643D02*
X72791352Y-164885024D01*
X72791352Y-164885024D02*
X72743733Y-164837404D01*
X72743733Y-164837404D02*
X72696114Y-164742166D01*
X72696114Y-164742166D02*
X72696114Y-164504071D01*
X72696114Y-164504071D02*
X72743733Y-164408833D01*
X72743733Y-164408833D02*
X72791352Y-164361214D01*
X72791352Y-164361214D02*
X72886590Y-164313595D01*
X72886590Y-164313595D02*
X73077066Y-164313595D01*
X73077066Y-164313595D02*
X73172304Y-164361214D01*
X73172304Y-164361214D02*
X73219923Y-164408833D01*
X73219923Y-164408833D02*
X73267542Y-164504071D01*
X72362780Y-163932643D02*
X71696114Y-163932643D01*
X71696114Y-163932643D02*
X72124685Y-164932643D01*
X70886590Y-163932643D02*
X71077066Y-163932643D01*
X71077066Y-163932643D02*
X71172304Y-163980262D01*
X71172304Y-163980262D02*
X71219923Y-164027881D01*
X71219923Y-164027881D02*
X71315161Y-164170738D01*
X71315161Y-164170738D02*
X71362780Y-164361214D01*
X71362780Y-164361214D02*
X71362780Y-164742166D01*
X71362780Y-164742166D02*
X71315161Y-164837404D01*
X71315161Y-164837404D02*
X71267542Y-164885024D01*
X71267542Y-164885024D02*
X71172304Y-164932643D01*
X71172304Y-164932643D02*
X70981828Y-164932643D01*
X70981828Y-164932643D02*
X70886590Y-164885024D01*
X70886590Y-164885024D02*
X70838971Y-164837404D01*
X70838971Y-164837404D02*
X70791352Y-164742166D01*
X70791352Y-164742166D02*
X70791352Y-164504071D01*
X70791352Y-164504071D02*
X70838971Y-164408833D01*
X70838971Y-164408833D02*
X70886590Y-164361214D01*
X70886590Y-164361214D02*
X70981828Y-164313595D01*
X70981828Y-164313595D02*
X71172304Y-164313595D01*
X71172304Y-164313595D02*
X71267542Y-164361214D01*
X71267542Y-164361214D02*
X71315161Y-164408833D01*
X71315161Y-164408833D02*
X71362780Y-164504071D01*
X70458018Y-163932643D02*
X69791352Y-163932643D01*
X69791352Y-163932643D02*
X70219923Y-164932643D01*
X103267544Y-165542587D02*
X103458020Y-165542587D01*
X103458020Y-165542587D02*
X103553258Y-165590206D01*
X103553258Y-165590206D02*
X103600877Y-165637825D01*
X103600877Y-165637825D02*
X103696115Y-165780682D01*
X103696115Y-165780682D02*
X103743734Y-165971158D01*
X103743734Y-165971158D02*
X103743734Y-166352110D01*
X103743734Y-166352110D02*
X103696115Y-166447348D01*
X103696115Y-166447348D02*
X103648496Y-166494968D01*
X103648496Y-166494968D02*
X103553258Y-166542587D01*
X103553258Y-166542587D02*
X103362782Y-166542587D01*
X103362782Y-166542587D02*
X103267544Y-166494968D01*
X103267544Y-166494968D02*
X103219925Y-166447348D01*
X103219925Y-166447348D02*
X103172306Y-166352110D01*
X103172306Y-166352110D02*
X103172306Y-166114015D01*
X103172306Y-166114015D02*
X103219925Y-166018777D01*
X103219925Y-166018777D02*
X103267544Y-165971158D01*
X103267544Y-165971158D02*
X103362782Y-165923539D01*
X103362782Y-165923539D02*
X103553258Y-165923539D01*
X103553258Y-165923539D02*
X103648496Y-165971158D01*
X103648496Y-165971158D02*
X103696115Y-166018777D01*
X103696115Y-166018777D02*
X103743734Y-166114015D01*
X102838972Y-165542587D02*
X102172306Y-165542587D01*
X102172306Y-165542587D02*
X102600877Y-166542587D01*
X101362782Y-165542587D02*
X101553258Y-165542587D01*
X101553258Y-165542587D02*
X101648496Y-165590206D01*
X101648496Y-165590206D02*
X101696115Y-165637825D01*
X101696115Y-165637825D02*
X101791353Y-165780682D01*
X101791353Y-165780682D02*
X101838972Y-165971158D01*
X101838972Y-165971158D02*
X101838972Y-166352110D01*
X101838972Y-166352110D02*
X101791353Y-166447348D01*
X101791353Y-166447348D02*
X101743734Y-166494968D01*
X101743734Y-166494968D02*
X101648496Y-166542587D01*
X101648496Y-166542587D02*
X101458020Y-166542587D01*
X101458020Y-166542587D02*
X101362782Y-166494968D01*
X101362782Y-166494968D02*
X101315163Y-166447348D01*
X101315163Y-166447348D02*
X101267544Y-166352110D01*
X101267544Y-166352110D02*
X101267544Y-166114015D01*
X101267544Y-166114015D02*
X101315163Y-166018777D01*
X101315163Y-166018777D02*
X101362782Y-165971158D01*
X101362782Y-165971158D02*
X101458020Y-165923539D01*
X101458020Y-165923539D02*
X101648496Y-165923539D01*
X101648496Y-165923539D02*
X101743734Y-165971158D01*
X101743734Y-165971158D02*
X101791353Y-166018777D01*
X101791353Y-166018777D02*
X101838972Y-166114015D01*
X100934210Y-165542587D02*
X100267544Y-165542587D01*
X100267544Y-165542587D02*
X100696115Y-166542587D01*
X99458020Y-165542587D02*
X99648496Y-165542587D01*
X99648496Y-165542587D02*
X99743734Y-165590206D01*
X99743734Y-165590206D02*
X99791353Y-165637825D01*
X99791353Y-165637825D02*
X99886591Y-165780682D01*
X99886591Y-165780682D02*
X99934210Y-165971158D01*
X99934210Y-165971158D02*
X99934210Y-166352110D01*
X99934210Y-166352110D02*
X99886591Y-166447348D01*
X99886591Y-166447348D02*
X99838972Y-166494968D01*
X99838972Y-166494968D02*
X99743734Y-166542587D01*
X99743734Y-166542587D02*
X99553258Y-166542587D01*
X99553258Y-166542587D02*
X99458020Y-166494968D01*
X99458020Y-166494968D02*
X99410401Y-166447348D01*
X99410401Y-166447348D02*
X99362782Y-166352110D01*
X99362782Y-166352110D02*
X99362782Y-166114015D01*
X99362782Y-166114015D02*
X99410401Y-166018777D01*
X99410401Y-166018777D02*
X99458020Y-165971158D01*
X99458020Y-165971158D02*
X99553258Y-165923539D01*
X99553258Y-165923539D02*
X99743734Y-165923539D01*
X99743734Y-165923539D02*
X99838972Y-165971158D01*
X99838972Y-165971158D02*
X99886591Y-166018777D01*
X99886591Y-166018777D02*
X99934210Y-166114015D01*
X99029448Y-165542587D02*
X98362782Y-165542587D01*
X98362782Y-165542587D02*
X98791353Y-166542587D01*
X97553258Y-165542587D02*
X97743734Y-165542587D01*
X97743734Y-165542587D02*
X97838972Y-165590206D01*
X97838972Y-165590206D02*
X97886591Y-165637825D01*
X97886591Y-165637825D02*
X97981829Y-165780682D01*
X97981829Y-165780682D02*
X98029448Y-165971158D01*
X98029448Y-165971158D02*
X98029448Y-166352110D01*
X98029448Y-166352110D02*
X97981829Y-166447348D01*
X97981829Y-166447348D02*
X97934210Y-166494968D01*
X97934210Y-166494968D02*
X97838972Y-166542587D01*
X97838972Y-166542587D02*
X97648496Y-166542587D01*
X97648496Y-166542587D02*
X97553258Y-166494968D01*
X97553258Y-166494968D02*
X97505639Y-166447348D01*
X97505639Y-166447348D02*
X97458020Y-166352110D01*
X97458020Y-166352110D02*
X97458020Y-166114015D01*
X97458020Y-166114015D02*
X97505639Y-166018777D01*
X97505639Y-166018777D02*
X97553258Y-165971158D01*
X97553258Y-165971158D02*
X97648496Y-165923539D01*
X97648496Y-165923539D02*
X97838972Y-165923539D01*
X97838972Y-165923539D02*
X97934210Y-165971158D01*
X97934210Y-165971158D02*
X97981829Y-166018777D01*
X97981829Y-166018777D02*
X98029448Y-166114015D01*
X97124686Y-165542587D02*
X96458020Y-165542587D01*
X96458020Y-165542587D02*
X96886591Y-166542587D01*
X95648496Y-165542587D02*
X95838972Y-165542587D01*
X95838972Y-165542587D02*
X95934210Y-165590206D01*
X95934210Y-165590206D02*
X95981829Y-165637825D01*
X95981829Y-165637825D02*
X96077067Y-165780682D01*
X96077067Y-165780682D02*
X96124686Y-165971158D01*
X96124686Y-165971158D02*
X96124686Y-166352110D01*
X96124686Y-166352110D02*
X96077067Y-166447348D01*
X96077067Y-166447348D02*
X96029448Y-166494968D01*
X96029448Y-166494968D02*
X95934210Y-166542587D01*
X95934210Y-166542587D02*
X95743734Y-166542587D01*
X95743734Y-166542587D02*
X95648496Y-166494968D01*
X95648496Y-166494968D02*
X95600877Y-166447348D01*
X95600877Y-166447348D02*
X95553258Y-166352110D01*
X95553258Y-166352110D02*
X95553258Y-166114015D01*
X95553258Y-166114015D02*
X95600877Y-166018777D01*
X95600877Y-166018777D02*
X95648496Y-165971158D01*
X95648496Y-165971158D02*
X95743734Y-165923539D01*
X95743734Y-165923539D02*
X95934210Y-165923539D01*
X95934210Y-165923539D02*
X96029448Y-165971158D01*
X96029448Y-165971158D02*
X96077067Y-166018777D01*
X96077067Y-166018777D02*
X96124686Y-166114015D01*
X95219924Y-165542587D02*
X94553258Y-165542587D01*
X94553258Y-165542587D02*
X94981829Y-166542587D01*
X93743734Y-165542587D02*
X93934210Y-165542587D01*
X93934210Y-165542587D02*
X94029448Y-165590206D01*
X94029448Y-165590206D02*
X94077067Y-165637825D01*
X94077067Y-165637825D02*
X94172305Y-165780682D01*
X94172305Y-165780682D02*
X94219924Y-165971158D01*
X94219924Y-165971158D02*
X94219924Y-166352110D01*
X94219924Y-166352110D02*
X94172305Y-166447348D01*
X94172305Y-166447348D02*
X94124686Y-166494968D01*
X94124686Y-166494968D02*
X94029448Y-166542587D01*
X94029448Y-166542587D02*
X93838972Y-166542587D01*
X93838972Y-166542587D02*
X93743734Y-166494968D01*
X93743734Y-166494968D02*
X93696115Y-166447348D01*
X93696115Y-166447348D02*
X93648496Y-166352110D01*
X93648496Y-166352110D02*
X93648496Y-166114015D01*
X93648496Y-166114015D02*
X93696115Y-166018777D01*
X93696115Y-166018777D02*
X93743734Y-165971158D01*
X93743734Y-165971158D02*
X93838972Y-165923539D01*
X93838972Y-165923539D02*
X94029448Y-165923539D01*
X94029448Y-165923539D02*
X94124686Y-165971158D01*
X94124686Y-165971158D02*
X94172305Y-166018777D01*
X94172305Y-166018777D02*
X94219924Y-166114015D01*
X93315162Y-165542587D02*
X92648496Y-165542587D01*
X92648496Y-165542587D02*
X93077067Y-166542587D01*
X91838972Y-165542587D02*
X92029448Y-165542587D01*
X92029448Y-165542587D02*
X92124686Y-165590206D01*
X92124686Y-165590206D02*
X92172305Y-165637825D01*
X92172305Y-165637825D02*
X92267543Y-165780682D01*
X92267543Y-165780682D02*
X92315162Y-165971158D01*
X92315162Y-165971158D02*
X92315162Y-166352110D01*
X92315162Y-166352110D02*
X92267543Y-166447348D01*
X92267543Y-166447348D02*
X92219924Y-166494968D01*
X92219924Y-166494968D02*
X92124686Y-166542587D01*
X92124686Y-166542587D02*
X91934210Y-166542587D01*
X91934210Y-166542587D02*
X91838972Y-166494968D01*
X91838972Y-166494968D02*
X91791353Y-166447348D01*
X91791353Y-166447348D02*
X91743734Y-166352110D01*
X91743734Y-166352110D02*
X91743734Y-166114015D01*
X91743734Y-166114015D02*
X91791353Y-166018777D01*
X91791353Y-166018777D02*
X91838972Y-165971158D01*
X91838972Y-165971158D02*
X91934210Y-165923539D01*
X91934210Y-165923539D02*
X92124686Y-165923539D01*
X92124686Y-165923539D02*
X92219924Y-165971158D01*
X92219924Y-165971158D02*
X92267543Y-166018777D01*
X92267543Y-166018777D02*
X92315162Y-166114015D01*
X91410400Y-165542587D02*
X90743734Y-165542587D01*
X90743734Y-165542587D02*
X91172305Y-166542587D01*
X89934210Y-165542587D02*
X90124686Y-165542587D01*
X90124686Y-165542587D02*
X90219924Y-165590206D01*
X90219924Y-165590206D02*
X90267543Y-165637825D01*
X90267543Y-165637825D02*
X90362781Y-165780682D01*
X90362781Y-165780682D02*
X90410400Y-165971158D01*
X90410400Y-165971158D02*
X90410400Y-166352110D01*
X90410400Y-166352110D02*
X90362781Y-166447348D01*
X90362781Y-166447348D02*
X90315162Y-166494968D01*
X90315162Y-166494968D02*
X90219924Y-166542587D01*
X90219924Y-166542587D02*
X90029448Y-166542587D01*
X90029448Y-166542587D02*
X89934210Y-166494968D01*
X89934210Y-166494968D02*
X89886591Y-166447348D01*
X89886591Y-166447348D02*
X89838972Y-166352110D01*
X89838972Y-166352110D02*
X89838972Y-166114015D01*
X89838972Y-166114015D02*
X89886591Y-166018777D01*
X89886591Y-166018777D02*
X89934210Y-165971158D01*
X89934210Y-165971158D02*
X90029448Y-165923539D01*
X90029448Y-165923539D02*
X90219924Y-165923539D01*
X90219924Y-165923539D02*
X90315162Y-165971158D01*
X90315162Y-165971158D02*
X90362781Y-166018777D01*
X90362781Y-166018777D02*
X90410400Y-166114015D01*
X89505638Y-165542587D02*
X88838972Y-165542587D01*
X88838972Y-165542587D02*
X89267543Y-166542587D01*
X88029448Y-165542587D02*
X88219924Y-165542587D01*
X88219924Y-165542587D02*
X88315162Y-165590206D01*
X88315162Y-165590206D02*
X88362781Y-165637825D01*
X88362781Y-165637825D02*
X88458019Y-165780682D01*
X88458019Y-165780682D02*
X88505638Y-165971158D01*
X88505638Y-165971158D02*
X88505638Y-166352110D01*
X88505638Y-166352110D02*
X88458019Y-166447348D01*
X88458019Y-166447348D02*
X88410400Y-166494968D01*
X88410400Y-166494968D02*
X88315162Y-166542587D01*
X88315162Y-166542587D02*
X88124686Y-166542587D01*
X88124686Y-166542587D02*
X88029448Y-166494968D01*
X88029448Y-166494968D02*
X87981829Y-166447348D01*
X87981829Y-166447348D02*
X87934210Y-166352110D01*
X87934210Y-166352110D02*
X87934210Y-166114015D01*
X87934210Y-166114015D02*
X87981829Y-166018777D01*
X87981829Y-166018777D02*
X88029448Y-165971158D01*
X88029448Y-165971158D02*
X88124686Y-165923539D01*
X88124686Y-165923539D02*
X88315162Y-165923539D01*
X88315162Y-165923539D02*
X88410400Y-165971158D01*
X88410400Y-165971158D02*
X88458019Y-166018777D01*
X88458019Y-166018777D02*
X88505638Y-166114015D01*
X87600876Y-165542587D02*
X86934210Y-165542587D01*
X86934210Y-165542587D02*
X87362781Y-166542587D01*
X86124686Y-165542587D02*
X86315162Y-165542587D01*
X86315162Y-165542587D02*
X86410400Y-165590206D01*
X86410400Y-165590206D02*
X86458019Y-165637825D01*
X86458019Y-165637825D02*
X86553257Y-165780682D01*
X86553257Y-165780682D02*
X86600876Y-165971158D01*
X86600876Y-165971158D02*
X86600876Y-166352110D01*
X86600876Y-166352110D02*
X86553257Y-166447348D01*
X86553257Y-166447348D02*
X86505638Y-166494968D01*
X86505638Y-166494968D02*
X86410400Y-166542587D01*
X86410400Y-166542587D02*
X86219924Y-166542587D01*
X86219924Y-166542587D02*
X86124686Y-166494968D01*
X86124686Y-166494968D02*
X86077067Y-166447348D01*
X86077067Y-166447348D02*
X86029448Y-166352110D01*
X86029448Y-166352110D02*
X86029448Y-166114015D01*
X86029448Y-166114015D02*
X86077067Y-166018777D01*
X86077067Y-166018777D02*
X86124686Y-165971158D01*
X86124686Y-165971158D02*
X86219924Y-165923539D01*
X86219924Y-165923539D02*
X86410400Y-165923539D01*
X86410400Y-165923539D02*
X86505638Y-165971158D01*
X86505638Y-165971158D02*
X86553257Y-166018777D01*
X86553257Y-166018777D02*
X86600876Y-166114015D01*
X85696114Y-165542587D02*
X85029448Y-165542587D01*
X85029448Y-165542587D02*
X85458019Y-166542587D01*
X84219924Y-165542587D02*
X84410400Y-165542587D01*
X84410400Y-165542587D02*
X84505638Y-165590206D01*
X84505638Y-165590206D02*
X84553257Y-165637825D01*
X84553257Y-165637825D02*
X84648495Y-165780682D01*
X84648495Y-165780682D02*
X84696114Y-165971158D01*
X84696114Y-165971158D02*
X84696114Y-166352110D01*
X84696114Y-166352110D02*
X84648495Y-166447348D01*
X84648495Y-166447348D02*
X84600876Y-166494968D01*
X84600876Y-166494968D02*
X84505638Y-166542587D01*
X84505638Y-166542587D02*
X84315162Y-166542587D01*
X84315162Y-166542587D02*
X84219924Y-166494968D01*
X84219924Y-166494968D02*
X84172305Y-166447348D01*
X84172305Y-166447348D02*
X84124686Y-166352110D01*
X84124686Y-166352110D02*
X84124686Y-166114015D01*
X84124686Y-166114015D02*
X84172305Y-166018777D01*
X84172305Y-166018777D02*
X84219924Y-165971158D01*
X84219924Y-165971158D02*
X84315162Y-165923539D01*
X84315162Y-165923539D02*
X84505638Y-165923539D01*
X84505638Y-165923539D02*
X84600876Y-165971158D01*
X84600876Y-165971158D02*
X84648495Y-166018777D01*
X84648495Y-166018777D02*
X84696114Y-166114015D01*
X83791352Y-165542587D02*
X83124686Y-165542587D01*
X83124686Y-165542587D02*
X83553257Y-166542587D01*
X82315162Y-165542587D02*
X82505638Y-165542587D01*
X82505638Y-165542587D02*
X82600876Y-165590206D01*
X82600876Y-165590206D02*
X82648495Y-165637825D01*
X82648495Y-165637825D02*
X82743733Y-165780682D01*
X82743733Y-165780682D02*
X82791352Y-165971158D01*
X82791352Y-165971158D02*
X82791352Y-166352110D01*
X82791352Y-166352110D02*
X82743733Y-166447348D01*
X82743733Y-166447348D02*
X82696114Y-166494968D01*
X82696114Y-166494968D02*
X82600876Y-166542587D01*
X82600876Y-166542587D02*
X82410400Y-166542587D01*
X82410400Y-166542587D02*
X82315162Y-166494968D01*
X82315162Y-166494968D02*
X82267543Y-166447348D01*
X82267543Y-166447348D02*
X82219924Y-166352110D01*
X82219924Y-166352110D02*
X82219924Y-166114015D01*
X82219924Y-166114015D02*
X82267543Y-166018777D01*
X82267543Y-166018777D02*
X82315162Y-165971158D01*
X82315162Y-165971158D02*
X82410400Y-165923539D01*
X82410400Y-165923539D02*
X82600876Y-165923539D01*
X82600876Y-165923539D02*
X82696114Y-165971158D01*
X82696114Y-165971158D02*
X82743733Y-166018777D01*
X82743733Y-166018777D02*
X82791352Y-166114015D01*
X81886590Y-165542587D02*
X81219924Y-165542587D01*
X81219924Y-165542587D02*
X81648495Y-166542587D01*
X80410400Y-165542587D02*
X80600876Y-165542587D01*
X80600876Y-165542587D02*
X80696114Y-165590206D01*
X80696114Y-165590206D02*
X80743733Y-165637825D01*
X80743733Y-165637825D02*
X80838971Y-165780682D01*
X80838971Y-165780682D02*
X80886590Y-165971158D01*
X80886590Y-165971158D02*
X80886590Y-166352110D01*
X80886590Y-166352110D02*
X80838971Y-166447348D01*
X80838971Y-166447348D02*
X80791352Y-166494968D01*
X80791352Y-166494968D02*
X80696114Y-166542587D01*
X80696114Y-166542587D02*
X80505638Y-166542587D01*
X80505638Y-166542587D02*
X80410400Y-166494968D01*
X80410400Y-166494968D02*
X80362781Y-166447348D01*
X80362781Y-166447348D02*
X80315162Y-166352110D01*
X80315162Y-166352110D02*
X80315162Y-166114015D01*
X80315162Y-166114015D02*
X80362781Y-166018777D01*
X80362781Y-166018777D02*
X80410400Y-165971158D01*
X80410400Y-165971158D02*
X80505638Y-165923539D01*
X80505638Y-165923539D02*
X80696114Y-165923539D01*
X80696114Y-165923539D02*
X80791352Y-165971158D01*
X80791352Y-165971158D02*
X80838971Y-166018777D01*
X80838971Y-166018777D02*
X80886590Y-166114015D01*
X79981828Y-165542587D02*
X79315162Y-165542587D01*
X79315162Y-165542587D02*
X79743733Y-166542587D01*
X78505638Y-165542587D02*
X78696114Y-165542587D01*
X78696114Y-165542587D02*
X78791352Y-165590206D01*
X78791352Y-165590206D02*
X78838971Y-165637825D01*
X78838971Y-165637825D02*
X78934209Y-165780682D01*
X78934209Y-165780682D02*
X78981828Y-165971158D01*
X78981828Y-165971158D02*
X78981828Y-166352110D01*
X78981828Y-166352110D02*
X78934209Y-166447348D01*
X78934209Y-166447348D02*
X78886590Y-166494968D01*
X78886590Y-166494968D02*
X78791352Y-166542587D01*
X78791352Y-166542587D02*
X78600876Y-166542587D01*
X78600876Y-166542587D02*
X78505638Y-166494968D01*
X78505638Y-166494968D02*
X78458019Y-166447348D01*
X78458019Y-166447348D02*
X78410400Y-166352110D01*
X78410400Y-166352110D02*
X78410400Y-166114015D01*
X78410400Y-166114015D02*
X78458019Y-166018777D01*
X78458019Y-166018777D02*
X78505638Y-165971158D01*
X78505638Y-165971158D02*
X78600876Y-165923539D01*
X78600876Y-165923539D02*
X78791352Y-165923539D01*
X78791352Y-165923539D02*
X78886590Y-165971158D01*
X78886590Y-165971158D02*
X78934209Y-166018777D01*
X78934209Y-166018777D02*
X78981828Y-166114015D01*
X78077066Y-165542587D02*
X77410400Y-165542587D01*
X77410400Y-165542587D02*
X77838971Y-166542587D01*
X76600876Y-165542587D02*
X76791352Y-165542587D01*
X76791352Y-165542587D02*
X76886590Y-165590206D01*
X76886590Y-165590206D02*
X76934209Y-165637825D01*
X76934209Y-165637825D02*
X77029447Y-165780682D01*
X77029447Y-165780682D02*
X77077066Y-165971158D01*
X77077066Y-165971158D02*
X77077066Y-166352110D01*
X77077066Y-166352110D02*
X77029447Y-166447348D01*
X77029447Y-166447348D02*
X76981828Y-166494968D01*
X76981828Y-166494968D02*
X76886590Y-166542587D01*
X76886590Y-166542587D02*
X76696114Y-166542587D01*
X76696114Y-166542587D02*
X76600876Y-166494968D01*
X76600876Y-166494968D02*
X76553257Y-166447348D01*
X76553257Y-166447348D02*
X76505638Y-166352110D01*
X76505638Y-166352110D02*
X76505638Y-166114015D01*
X76505638Y-166114015D02*
X76553257Y-166018777D01*
X76553257Y-166018777D02*
X76600876Y-165971158D01*
X76600876Y-165971158D02*
X76696114Y-165923539D01*
X76696114Y-165923539D02*
X76886590Y-165923539D01*
X76886590Y-165923539D02*
X76981828Y-165971158D01*
X76981828Y-165971158D02*
X77029447Y-166018777D01*
X77029447Y-166018777D02*
X77077066Y-166114015D01*
X76172304Y-165542587D02*
X75505638Y-165542587D01*
X75505638Y-165542587D02*
X75934209Y-166542587D01*
X74696114Y-165542587D02*
X74886590Y-165542587D01*
X74886590Y-165542587D02*
X74981828Y-165590206D01*
X74981828Y-165590206D02*
X75029447Y-165637825D01*
X75029447Y-165637825D02*
X75124685Y-165780682D01*
X75124685Y-165780682D02*
X75172304Y-165971158D01*
X75172304Y-165971158D02*
X75172304Y-166352110D01*
X75172304Y-166352110D02*
X75124685Y-166447348D01*
X75124685Y-166447348D02*
X75077066Y-166494968D01*
X75077066Y-166494968D02*
X74981828Y-166542587D01*
X74981828Y-166542587D02*
X74791352Y-166542587D01*
X74791352Y-166542587D02*
X74696114Y-166494968D01*
X74696114Y-166494968D02*
X74648495Y-166447348D01*
X74648495Y-166447348D02*
X74600876Y-166352110D01*
X74600876Y-166352110D02*
X74600876Y-166114015D01*
X74600876Y-166114015D02*
X74648495Y-166018777D01*
X74648495Y-166018777D02*
X74696114Y-165971158D01*
X74696114Y-165971158D02*
X74791352Y-165923539D01*
X74791352Y-165923539D02*
X74981828Y-165923539D01*
X74981828Y-165923539D02*
X75077066Y-165971158D01*
X75077066Y-165971158D02*
X75124685Y-166018777D01*
X75124685Y-166018777D02*
X75172304Y-166114015D01*
X74267542Y-165542587D02*
X73600876Y-165542587D01*
X73600876Y-165542587D02*
X74029447Y-166542587D01*
X72791352Y-165542587D02*
X72981828Y-165542587D01*
X72981828Y-165542587D02*
X73077066Y-165590206D01*
X73077066Y-165590206D02*
X73124685Y-165637825D01*
X73124685Y-165637825D02*
X73219923Y-165780682D01*
X73219923Y-165780682D02*
X73267542Y-165971158D01*
X73267542Y-165971158D02*
X73267542Y-166352110D01*
X73267542Y-166352110D02*
X73219923Y-166447348D01*
X73219923Y-166447348D02*
X73172304Y-166494968D01*
X73172304Y-166494968D02*
X73077066Y-166542587D01*
X73077066Y-166542587D02*
X72886590Y-166542587D01*
X72886590Y-166542587D02*
X72791352Y-166494968D01*
X72791352Y-166494968D02*
X72743733Y-166447348D01*
X72743733Y-166447348D02*
X72696114Y-166352110D01*
X72696114Y-166352110D02*
X72696114Y-166114015D01*
X72696114Y-166114015D02*
X72743733Y-166018777D01*
X72743733Y-166018777D02*
X72791352Y-165971158D01*
X72791352Y-165971158D02*
X72886590Y-165923539D01*
X72886590Y-165923539D02*
X73077066Y-165923539D01*
X73077066Y-165923539D02*
X73172304Y-165971158D01*
X73172304Y-165971158D02*
X73219923Y-166018777D01*
X73219923Y-166018777D02*
X73267542Y-166114015D01*
X72362780Y-165542587D02*
X71696114Y-165542587D01*
X71696114Y-165542587D02*
X72124685Y-166542587D01*
X70886590Y-165542587D02*
X71077066Y-165542587D01*
X71077066Y-165542587D02*
X71172304Y-165590206D01*
X71172304Y-165590206D02*
X71219923Y-165637825D01*
X71219923Y-165637825D02*
X71315161Y-165780682D01*
X71315161Y-165780682D02*
X71362780Y-165971158D01*
X71362780Y-165971158D02*
X71362780Y-166352110D01*
X71362780Y-166352110D02*
X71315161Y-166447348D01*
X71315161Y-166447348D02*
X71267542Y-166494968D01*
X71267542Y-166494968D02*
X71172304Y-166542587D01*
X71172304Y-166542587D02*
X70981828Y-166542587D01*
X70981828Y-166542587D02*
X70886590Y-166494968D01*
X70886590Y-166494968D02*
X70838971Y-166447348D01*
X70838971Y-166447348D02*
X70791352Y-166352110D01*
X70791352Y-166352110D02*
X70791352Y-166114015D01*
X70791352Y-166114015D02*
X70838971Y-166018777D01*
X70838971Y-166018777D02*
X70886590Y-165971158D01*
X70886590Y-165971158D02*
X70981828Y-165923539D01*
X70981828Y-165923539D02*
X71172304Y-165923539D01*
X71172304Y-165923539D02*
X71267542Y-165971158D01*
X71267542Y-165971158D02*
X71315161Y-166018777D01*
X71315161Y-166018777D02*
X71362780Y-166114015D01*
X70458018Y-165542587D02*
X69791352Y-165542587D01*
X69791352Y-165542587D02*
X70219923Y-166542587D01*
X103267544Y-167152531D02*
X103458020Y-167152531D01*
X103458020Y-167152531D02*
X103553258Y-167200150D01*
X103553258Y-167200150D02*
X103600877Y-167247769D01*
X103600877Y-167247769D02*
X103696115Y-167390626D01*
X103696115Y-167390626D02*
X103743734Y-167581102D01*
X103743734Y-167581102D02*
X103743734Y-167962054D01*
X103743734Y-167962054D02*
X103696115Y-168057292D01*
X103696115Y-168057292D02*
X103648496Y-168104912D01*
X103648496Y-168104912D02*
X103553258Y-168152531D01*
X103553258Y-168152531D02*
X103362782Y-168152531D01*
X103362782Y-168152531D02*
X103267544Y-168104912D01*
X103267544Y-168104912D02*
X103219925Y-168057292D01*
X103219925Y-168057292D02*
X103172306Y-167962054D01*
X103172306Y-167962054D02*
X103172306Y-167723959D01*
X103172306Y-167723959D02*
X103219925Y-167628721D01*
X103219925Y-167628721D02*
X103267544Y-167581102D01*
X103267544Y-167581102D02*
X103362782Y-167533483D01*
X103362782Y-167533483D02*
X103553258Y-167533483D01*
X103553258Y-167533483D02*
X103648496Y-167581102D01*
X103648496Y-167581102D02*
X103696115Y-167628721D01*
X103696115Y-167628721D02*
X103743734Y-167723959D01*
X102838972Y-167152531D02*
X102172306Y-167152531D01*
X102172306Y-167152531D02*
X102600877Y-168152531D01*
X101362782Y-167152531D02*
X101553258Y-167152531D01*
X101553258Y-167152531D02*
X101648496Y-167200150D01*
X101648496Y-167200150D02*
X101696115Y-167247769D01*
X101696115Y-167247769D02*
X101791353Y-167390626D01*
X101791353Y-167390626D02*
X101838972Y-167581102D01*
X101838972Y-167581102D02*
X101838972Y-167962054D01*
X101838972Y-167962054D02*
X101791353Y-168057292D01*
X101791353Y-168057292D02*
X101743734Y-168104912D01*
X101743734Y-168104912D02*
X101648496Y-168152531D01*
X101648496Y-168152531D02*
X101458020Y-168152531D01*
X101458020Y-168152531D02*
X101362782Y-168104912D01*
X101362782Y-168104912D02*
X101315163Y-168057292D01*
X101315163Y-168057292D02*
X101267544Y-167962054D01*
X101267544Y-167962054D02*
X101267544Y-167723959D01*
X101267544Y-167723959D02*
X101315163Y-167628721D01*
X101315163Y-167628721D02*
X101362782Y-167581102D01*
X101362782Y-167581102D02*
X101458020Y-167533483D01*
X101458020Y-167533483D02*
X101648496Y-167533483D01*
X101648496Y-167533483D02*
X101743734Y-167581102D01*
X101743734Y-167581102D02*
X101791353Y-167628721D01*
X101791353Y-167628721D02*
X101838972Y-167723959D01*
X100934210Y-167152531D02*
X100267544Y-167152531D01*
X100267544Y-167152531D02*
X100696115Y-168152531D01*
X99458020Y-167152531D02*
X99648496Y-167152531D01*
X99648496Y-167152531D02*
X99743734Y-167200150D01*
X99743734Y-167200150D02*
X99791353Y-167247769D01*
X99791353Y-167247769D02*
X99886591Y-167390626D01*
X99886591Y-167390626D02*
X99934210Y-167581102D01*
X99934210Y-167581102D02*
X99934210Y-167962054D01*
X99934210Y-167962054D02*
X99886591Y-168057292D01*
X99886591Y-168057292D02*
X99838972Y-168104912D01*
X99838972Y-168104912D02*
X99743734Y-168152531D01*
X99743734Y-168152531D02*
X99553258Y-168152531D01*
X99553258Y-168152531D02*
X99458020Y-168104912D01*
X99458020Y-168104912D02*
X99410401Y-168057292D01*
X99410401Y-168057292D02*
X99362782Y-167962054D01*
X99362782Y-167962054D02*
X99362782Y-167723959D01*
X99362782Y-167723959D02*
X99410401Y-167628721D01*
X99410401Y-167628721D02*
X99458020Y-167581102D01*
X99458020Y-167581102D02*
X99553258Y-167533483D01*
X99553258Y-167533483D02*
X99743734Y-167533483D01*
X99743734Y-167533483D02*
X99838972Y-167581102D01*
X99838972Y-167581102D02*
X99886591Y-167628721D01*
X99886591Y-167628721D02*
X99934210Y-167723959D01*
X99029448Y-167152531D02*
X98362782Y-167152531D01*
X98362782Y-167152531D02*
X98791353Y-168152531D01*
X97553258Y-167152531D02*
X97743734Y-167152531D01*
X97743734Y-167152531D02*
X97838972Y-167200150D01*
X97838972Y-167200150D02*
X97886591Y-167247769D01*
X97886591Y-167247769D02*
X97981829Y-167390626D01*
X97981829Y-167390626D02*
X98029448Y-167581102D01*
X98029448Y-167581102D02*
X98029448Y-167962054D01*
X98029448Y-167962054D02*
X97981829Y-168057292D01*
X97981829Y-168057292D02*
X97934210Y-168104912D01*
X97934210Y-168104912D02*
X97838972Y-168152531D01*
X97838972Y-168152531D02*
X97648496Y-168152531D01*
X97648496Y-168152531D02*
X97553258Y-168104912D01*
X97553258Y-168104912D02*
X97505639Y-168057292D01*
X97505639Y-168057292D02*
X97458020Y-167962054D01*
X97458020Y-167962054D02*
X97458020Y-167723959D01*
X97458020Y-167723959D02*
X97505639Y-167628721D01*
X97505639Y-167628721D02*
X97553258Y-167581102D01*
X97553258Y-167581102D02*
X97648496Y-167533483D01*
X97648496Y-167533483D02*
X97838972Y-167533483D01*
X97838972Y-167533483D02*
X97934210Y-167581102D01*
X97934210Y-167581102D02*
X97981829Y-167628721D01*
X97981829Y-167628721D02*
X98029448Y-167723959D01*
X97124686Y-167152531D02*
X96458020Y-167152531D01*
X96458020Y-167152531D02*
X96886591Y-168152531D01*
X95648496Y-167152531D02*
X95838972Y-167152531D01*
X95838972Y-167152531D02*
X95934210Y-167200150D01*
X95934210Y-167200150D02*
X95981829Y-167247769D01*
X95981829Y-167247769D02*
X96077067Y-167390626D01*
X96077067Y-167390626D02*
X96124686Y-167581102D01*
X96124686Y-167581102D02*
X96124686Y-167962054D01*
X96124686Y-167962054D02*
X96077067Y-168057292D01*
X96077067Y-168057292D02*
X96029448Y-168104912D01*
X96029448Y-168104912D02*
X95934210Y-168152531D01*
X95934210Y-168152531D02*
X95743734Y-168152531D01*
X95743734Y-168152531D02*
X95648496Y-168104912D01*
X95648496Y-168104912D02*
X95600877Y-168057292D01*
X95600877Y-168057292D02*
X95553258Y-167962054D01*
X95553258Y-167962054D02*
X95553258Y-167723959D01*
X95553258Y-167723959D02*
X95600877Y-167628721D01*
X95600877Y-167628721D02*
X95648496Y-167581102D01*
X95648496Y-167581102D02*
X95743734Y-167533483D01*
X95743734Y-167533483D02*
X95934210Y-167533483D01*
X95934210Y-167533483D02*
X96029448Y-167581102D01*
X96029448Y-167581102D02*
X96077067Y-167628721D01*
X96077067Y-167628721D02*
X96124686Y-167723959D01*
X95219924Y-167152531D02*
X94553258Y-167152531D01*
X94553258Y-167152531D02*
X94981829Y-168152531D01*
X93743734Y-167152531D02*
X93934210Y-167152531D01*
X93934210Y-167152531D02*
X94029448Y-167200150D01*
X94029448Y-167200150D02*
X94077067Y-167247769D01*
X94077067Y-167247769D02*
X94172305Y-167390626D01*
X94172305Y-167390626D02*
X94219924Y-167581102D01*
X94219924Y-167581102D02*
X94219924Y-167962054D01*
X94219924Y-167962054D02*
X94172305Y-168057292D01*
X94172305Y-168057292D02*
X94124686Y-168104912D01*
X94124686Y-168104912D02*
X94029448Y-168152531D01*
X94029448Y-168152531D02*
X93838972Y-168152531D01*
X93838972Y-168152531D02*
X93743734Y-168104912D01*
X93743734Y-168104912D02*
X93696115Y-168057292D01*
X93696115Y-168057292D02*
X93648496Y-167962054D01*
X93648496Y-167962054D02*
X93648496Y-167723959D01*
X93648496Y-167723959D02*
X93696115Y-167628721D01*
X93696115Y-167628721D02*
X93743734Y-167581102D01*
X93743734Y-167581102D02*
X93838972Y-167533483D01*
X93838972Y-167533483D02*
X94029448Y-167533483D01*
X94029448Y-167533483D02*
X94124686Y-167581102D01*
X94124686Y-167581102D02*
X94172305Y-167628721D01*
X94172305Y-167628721D02*
X94219924Y-167723959D01*
X93315162Y-167152531D02*
X92648496Y-167152531D01*
X92648496Y-167152531D02*
X93077067Y-168152531D01*
X91838972Y-167152531D02*
X92029448Y-167152531D01*
X92029448Y-167152531D02*
X92124686Y-167200150D01*
X92124686Y-167200150D02*
X92172305Y-167247769D01*
X92172305Y-167247769D02*
X92267543Y-167390626D01*
X92267543Y-167390626D02*
X92315162Y-167581102D01*
X92315162Y-167581102D02*
X92315162Y-167962054D01*
X92315162Y-167962054D02*
X92267543Y-168057292D01*
X92267543Y-168057292D02*
X92219924Y-168104912D01*
X92219924Y-168104912D02*
X92124686Y-168152531D01*
X92124686Y-168152531D02*
X91934210Y-168152531D01*
X91934210Y-168152531D02*
X91838972Y-168104912D01*
X91838972Y-168104912D02*
X91791353Y-168057292D01*
X91791353Y-168057292D02*
X91743734Y-167962054D01*
X91743734Y-167962054D02*
X91743734Y-167723959D01*
X91743734Y-167723959D02*
X91791353Y-167628721D01*
X91791353Y-167628721D02*
X91838972Y-167581102D01*
X91838972Y-167581102D02*
X91934210Y-167533483D01*
X91934210Y-167533483D02*
X92124686Y-167533483D01*
X92124686Y-167533483D02*
X92219924Y-167581102D01*
X92219924Y-167581102D02*
X92267543Y-167628721D01*
X92267543Y-167628721D02*
X92315162Y-167723959D01*
X91410400Y-167152531D02*
X90743734Y-167152531D01*
X90743734Y-167152531D02*
X91172305Y-168152531D01*
X89934210Y-167152531D02*
X90124686Y-167152531D01*
X90124686Y-167152531D02*
X90219924Y-167200150D01*
X90219924Y-167200150D02*
X90267543Y-167247769D01*
X90267543Y-167247769D02*
X90362781Y-167390626D01*
X90362781Y-167390626D02*
X90410400Y-167581102D01*
X90410400Y-167581102D02*
X90410400Y-167962054D01*
X90410400Y-167962054D02*
X90362781Y-168057292D01*
X90362781Y-168057292D02*
X90315162Y-168104912D01*
X90315162Y-168104912D02*
X90219924Y-168152531D01*
X90219924Y-168152531D02*
X90029448Y-168152531D01*
X90029448Y-168152531D02*
X89934210Y-168104912D01*
X89934210Y-168104912D02*
X89886591Y-168057292D01*
X89886591Y-168057292D02*
X89838972Y-167962054D01*
X89838972Y-167962054D02*
X89838972Y-167723959D01*
X89838972Y-167723959D02*
X89886591Y-167628721D01*
X89886591Y-167628721D02*
X89934210Y-167581102D01*
X89934210Y-167581102D02*
X90029448Y-167533483D01*
X90029448Y-167533483D02*
X90219924Y-167533483D01*
X90219924Y-167533483D02*
X90315162Y-167581102D01*
X90315162Y-167581102D02*
X90362781Y-167628721D01*
X90362781Y-167628721D02*
X90410400Y-167723959D01*
X89505638Y-167152531D02*
X88838972Y-167152531D01*
X88838972Y-167152531D02*
X89267543Y-168152531D01*
X88029448Y-167152531D02*
X88219924Y-167152531D01*
X88219924Y-167152531D02*
X88315162Y-167200150D01*
X88315162Y-167200150D02*
X88362781Y-167247769D01*
X88362781Y-167247769D02*
X88458019Y-167390626D01*
X88458019Y-167390626D02*
X88505638Y-167581102D01*
X88505638Y-167581102D02*
X88505638Y-167962054D01*
X88505638Y-167962054D02*
X88458019Y-168057292D01*
X88458019Y-168057292D02*
X88410400Y-168104912D01*
X88410400Y-168104912D02*
X88315162Y-168152531D01*
X88315162Y-168152531D02*
X88124686Y-168152531D01*
X88124686Y-168152531D02*
X88029448Y-168104912D01*
X88029448Y-168104912D02*
X87981829Y-168057292D01*
X87981829Y-168057292D02*
X87934210Y-167962054D01*
X87934210Y-167962054D02*
X87934210Y-167723959D01*
X87934210Y-167723959D02*
X87981829Y-167628721D01*
X87981829Y-167628721D02*
X88029448Y-167581102D01*
X88029448Y-167581102D02*
X88124686Y-167533483D01*
X88124686Y-167533483D02*
X88315162Y-167533483D01*
X88315162Y-167533483D02*
X88410400Y-167581102D01*
X88410400Y-167581102D02*
X88458019Y-167628721D01*
X88458019Y-167628721D02*
X88505638Y-167723959D01*
X87600876Y-167152531D02*
X86934210Y-167152531D01*
X86934210Y-167152531D02*
X87362781Y-168152531D01*
X86124686Y-167152531D02*
X86315162Y-167152531D01*
X86315162Y-167152531D02*
X86410400Y-167200150D01*
X86410400Y-167200150D02*
X86458019Y-167247769D01*
X86458019Y-167247769D02*
X86553257Y-167390626D01*
X86553257Y-167390626D02*
X86600876Y-167581102D01*
X86600876Y-167581102D02*
X86600876Y-167962054D01*
X86600876Y-167962054D02*
X86553257Y-168057292D01*
X86553257Y-168057292D02*
X86505638Y-168104912D01*
X86505638Y-168104912D02*
X86410400Y-168152531D01*
X86410400Y-168152531D02*
X86219924Y-168152531D01*
X86219924Y-168152531D02*
X86124686Y-168104912D01*
X86124686Y-168104912D02*
X86077067Y-168057292D01*
X86077067Y-168057292D02*
X86029448Y-167962054D01*
X86029448Y-167962054D02*
X86029448Y-167723959D01*
X86029448Y-167723959D02*
X86077067Y-167628721D01*
X86077067Y-167628721D02*
X86124686Y-167581102D01*
X86124686Y-167581102D02*
X86219924Y-167533483D01*
X86219924Y-167533483D02*
X86410400Y-167533483D01*
X86410400Y-167533483D02*
X86505638Y-167581102D01*
X86505638Y-167581102D02*
X86553257Y-167628721D01*
X86553257Y-167628721D02*
X86600876Y-167723959D01*
X85696114Y-167152531D02*
X85029448Y-167152531D01*
X85029448Y-167152531D02*
X85458019Y-168152531D01*
X84219924Y-167152531D02*
X84410400Y-167152531D01*
X84410400Y-167152531D02*
X84505638Y-167200150D01*
X84505638Y-167200150D02*
X84553257Y-167247769D01*
X84553257Y-167247769D02*
X84648495Y-167390626D01*
X84648495Y-167390626D02*
X84696114Y-167581102D01*
X84696114Y-167581102D02*
X84696114Y-167962054D01*
X84696114Y-167962054D02*
X84648495Y-168057292D01*
X84648495Y-168057292D02*
X84600876Y-168104912D01*
X84600876Y-168104912D02*
X84505638Y-168152531D01*
X84505638Y-168152531D02*
X84315162Y-168152531D01*
X84315162Y-168152531D02*
X84219924Y-168104912D01*
X84219924Y-168104912D02*
X84172305Y-168057292D01*
X84172305Y-168057292D02*
X84124686Y-167962054D01*
X84124686Y-167962054D02*
X84124686Y-167723959D01*
X84124686Y-167723959D02*
X84172305Y-167628721D01*
X84172305Y-167628721D02*
X84219924Y-167581102D01*
X84219924Y-167581102D02*
X84315162Y-167533483D01*
X84315162Y-167533483D02*
X84505638Y-167533483D01*
X84505638Y-167533483D02*
X84600876Y-167581102D01*
X84600876Y-167581102D02*
X84648495Y-167628721D01*
X84648495Y-167628721D02*
X84696114Y-167723959D01*
X83791352Y-167152531D02*
X83124686Y-167152531D01*
X83124686Y-167152531D02*
X83553257Y-168152531D01*
X82315162Y-167152531D02*
X82505638Y-167152531D01*
X82505638Y-167152531D02*
X82600876Y-167200150D01*
X82600876Y-167200150D02*
X82648495Y-167247769D01*
X82648495Y-167247769D02*
X82743733Y-167390626D01*
X82743733Y-167390626D02*
X82791352Y-167581102D01*
X82791352Y-167581102D02*
X82791352Y-167962054D01*
X82791352Y-167962054D02*
X82743733Y-168057292D01*
X82743733Y-168057292D02*
X82696114Y-168104912D01*
X82696114Y-168104912D02*
X82600876Y-168152531D01*
X82600876Y-168152531D02*
X82410400Y-168152531D01*
X82410400Y-168152531D02*
X82315162Y-168104912D01*
X82315162Y-168104912D02*
X82267543Y-168057292D01*
X82267543Y-168057292D02*
X82219924Y-167962054D01*
X82219924Y-167962054D02*
X82219924Y-167723959D01*
X82219924Y-167723959D02*
X82267543Y-167628721D01*
X82267543Y-167628721D02*
X82315162Y-167581102D01*
X82315162Y-167581102D02*
X82410400Y-167533483D01*
X82410400Y-167533483D02*
X82600876Y-167533483D01*
X82600876Y-167533483D02*
X82696114Y-167581102D01*
X82696114Y-167581102D02*
X82743733Y-167628721D01*
X82743733Y-167628721D02*
X82791352Y-167723959D01*
X81886590Y-167152531D02*
X81219924Y-167152531D01*
X81219924Y-167152531D02*
X81648495Y-168152531D01*
X80410400Y-167152531D02*
X80600876Y-167152531D01*
X80600876Y-167152531D02*
X80696114Y-167200150D01*
X80696114Y-167200150D02*
X80743733Y-167247769D01*
X80743733Y-167247769D02*
X80838971Y-167390626D01*
X80838971Y-167390626D02*
X80886590Y-167581102D01*
X80886590Y-167581102D02*
X80886590Y-167962054D01*
X80886590Y-167962054D02*
X80838971Y-168057292D01*
X80838971Y-168057292D02*
X80791352Y-168104912D01*
X80791352Y-168104912D02*
X80696114Y-168152531D01*
X80696114Y-168152531D02*
X80505638Y-168152531D01*
X80505638Y-168152531D02*
X80410400Y-168104912D01*
X80410400Y-168104912D02*
X80362781Y-168057292D01*
X80362781Y-168057292D02*
X80315162Y-167962054D01*
X80315162Y-167962054D02*
X80315162Y-167723959D01*
X80315162Y-167723959D02*
X80362781Y-167628721D01*
X80362781Y-167628721D02*
X80410400Y-167581102D01*
X80410400Y-167581102D02*
X80505638Y-167533483D01*
X80505638Y-167533483D02*
X80696114Y-167533483D01*
X80696114Y-167533483D02*
X80791352Y-167581102D01*
X80791352Y-167581102D02*
X80838971Y-167628721D01*
X80838971Y-167628721D02*
X80886590Y-167723959D01*
X79981828Y-167152531D02*
X79315162Y-167152531D01*
X79315162Y-167152531D02*
X79743733Y-168152531D01*
X78505638Y-167152531D02*
X78696114Y-167152531D01*
X78696114Y-167152531D02*
X78791352Y-167200150D01*
X78791352Y-167200150D02*
X78838971Y-167247769D01*
X78838971Y-167247769D02*
X78934209Y-167390626D01*
X78934209Y-167390626D02*
X78981828Y-167581102D01*
X78981828Y-167581102D02*
X78981828Y-167962054D01*
X78981828Y-167962054D02*
X78934209Y-168057292D01*
X78934209Y-168057292D02*
X78886590Y-168104912D01*
X78886590Y-168104912D02*
X78791352Y-168152531D01*
X78791352Y-168152531D02*
X78600876Y-168152531D01*
X78600876Y-168152531D02*
X78505638Y-168104912D01*
X78505638Y-168104912D02*
X78458019Y-168057292D01*
X78458019Y-168057292D02*
X78410400Y-167962054D01*
X78410400Y-167962054D02*
X78410400Y-167723959D01*
X78410400Y-167723959D02*
X78458019Y-167628721D01*
X78458019Y-167628721D02*
X78505638Y-167581102D01*
X78505638Y-167581102D02*
X78600876Y-167533483D01*
X78600876Y-167533483D02*
X78791352Y-167533483D01*
X78791352Y-167533483D02*
X78886590Y-167581102D01*
X78886590Y-167581102D02*
X78934209Y-167628721D01*
X78934209Y-167628721D02*
X78981828Y-167723959D01*
X78077066Y-167152531D02*
X77410400Y-167152531D01*
X77410400Y-167152531D02*
X77838971Y-168152531D01*
X76600876Y-167152531D02*
X76791352Y-167152531D01*
X76791352Y-167152531D02*
X76886590Y-167200150D01*
X76886590Y-167200150D02*
X76934209Y-167247769D01*
X76934209Y-167247769D02*
X77029447Y-167390626D01*
X77029447Y-167390626D02*
X77077066Y-167581102D01*
X77077066Y-167581102D02*
X77077066Y-167962054D01*
X77077066Y-167962054D02*
X77029447Y-168057292D01*
X77029447Y-168057292D02*
X76981828Y-168104912D01*
X76981828Y-168104912D02*
X76886590Y-168152531D01*
X76886590Y-168152531D02*
X76696114Y-168152531D01*
X76696114Y-168152531D02*
X76600876Y-168104912D01*
X76600876Y-168104912D02*
X76553257Y-168057292D01*
X76553257Y-168057292D02*
X76505638Y-167962054D01*
X76505638Y-167962054D02*
X76505638Y-167723959D01*
X76505638Y-167723959D02*
X76553257Y-167628721D01*
X76553257Y-167628721D02*
X76600876Y-167581102D01*
X76600876Y-167581102D02*
X76696114Y-167533483D01*
X76696114Y-167533483D02*
X76886590Y-167533483D01*
X76886590Y-167533483D02*
X76981828Y-167581102D01*
X76981828Y-167581102D02*
X77029447Y-167628721D01*
X77029447Y-167628721D02*
X77077066Y-167723959D01*
X76172304Y-167152531D02*
X75505638Y-167152531D01*
X75505638Y-167152531D02*
X75934209Y-168152531D01*
X74696114Y-167152531D02*
X74886590Y-167152531D01*
X74886590Y-167152531D02*
X74981828Y-167200150D01*
X74981828Y-167200150D02*
X75029447Y-167247769D01*
X75029447Y-167247769D02*
X75124685Y-167390626D01*
X75124685Y-167390626D02*
X75172304Y-167581102D01*
X75172304Y-167581102D02*
X75172304Y-167962054D01*
X75172304Y-167962054D02*
X75124685Y-168057292D01*
X75124685Y-168057292D02*
X75077066Y-168104912D01*
X75077066Y-168104912D02*
X74981828Y-168152531D01*
X74981828Y-168152531D02*
X74791352Y-168152531D01*
X74791352Y-168152531D02*
X74696114Y-168104912D01*
X74696114Y-168104912D02*
X74648495Y-168057292D01*
X74648495Y-168057292D02*
X74600876Y-167962054D01*
X74600876Y-167962054D02*
X74600876Y-167723959D01*
X74600876Y-167723959D02*
X74648495Y-167628721D01*
X74648495Y-167628721D02*
X74696114Y-167581102D01*
X74696114Y-167581102D02*
X74791352Y-167533483D01*
X74791352Y-167533483D02*
X74981828Y-167533483D01*
X74981828Y-167533483D02*
X75077066Y-167581102D01*
X75077066Y-167581102D02*
X75124685Y-167628721D01*
X75124685Y-167628721D02*
X75172304Y-167723959D01*
X74267542Y-167152531D02*
X73600876Y-167152531D01*
X73600876Y-167152531D02*
X74029447Y-168152531D01*
X72791352Y-167152531D02*
X72981828Y-167152531D01*
X72981828Y-167152531D02*
X73077066Y-167200150D01*
X73077066Y-167200150D02*
X73124685Y-167247769D01*
X73124685Y-167247769D02*
X73219923Y-167390626D01*
X73219923Y-167390626D02*
X73267542Y-167581102D01*
X73267542Y-167581102D02*
X73267542Y-167962054D01*
X73267542Y-167962054D02*
X73219923Y-168057292D01*
X73219923Y-168057292D02*
X73172304Y-168104912D01*
X73172304Y-168104912D02*
X73077066Y-168152531D01*
X73077066Y-168152531D02*
X72886590Y-168152531D01*
X72886590Y-168152531D02*
X72791352Y-168104912D01*
X72791352Y-168104912D02*
X72743733Y-168057292D01*
X72743733Y-168057292D02*
X72696114Y-167962054D01*
X72696114Y-167962054D02*
X72696114Y-167723959D01*
X72696114Y-167723959D02*
X72743733Y-167628721D01*
X72743733Y-167628721D02*
X72791352Y-167581102D01*
X72791352Y-167581102D02*
X72886590Y-167533483D01*
X72886590Y-167533483D02*
X73077066Y-167533483D01*
X73077066Y-167533483D02*
X73172304Y-167581102D01*
X73172304Y-167581102D02*
X73219923Y-167628721D01*
X73219923Y-167628721D02*
X73267542Y-167723959D01*
X72362780Y-167152531D02*
X71696114Y-167152531D01*
X71696114Y-167152531D02*
X72124685Y-168152531D01*
X70886590Y-167152531D02*
X71077066Y-167152531D01*
X71077066Y-167152531D02*
X71172304Y-167200150D01*
X71172304Y-167200150D02*
X71219923Y-167247769D01*
X71219923Y-167247769D02*
X71315161Y-167390626D01*
X71315161Y-167390626D02*
X71362780Y-167581102D01*
X71362780Y-167581102D02*
X71362780Y-167962054D01*
X71362780Y-167962054D02*
X71315161Y-168057292D01*
X71315161Y-168057292D02*
X71267542Y-168104912D01*
X71267542Y-168104912D02*
X71172304Y-168152531D01*
X71172304Y-168152531D02*
X70981828Y-168152531D01*
X70981828Y-168152531D02*
X70886590Y-168104912D01*
X70886590Y-168104912D02*
X70838971Y-168057292D01*
X70838971Y-168057292D02*
X70791352Y-167962054D01*
X70791352Y-167962054D02*
X70791352Y-167723959D01*
X70791352Y-167723959D02*
X70838971Y-167628721D01*
X70838971Y-167628721D02*
X70886590Y-167581102D01*
X70886590Y-167581102D02*
X70981828Y-167533483D01*
X70981828Y-167533483D02*
X71172304Y-167533483D01*
X71172304Y-167533483D02*
X71267542Y-167581102D01*
X71267542Y-167581102D02*
X71315161Y-167628721D01*
X71315161Y-167628721D02*
X71362780Y-167723959D01*
X70458018Y-167152531D02*
X69791352Y-167152531D01*
X69791352Y-167152531D02*
X70219923Y-168152531D01*
X103267544Y-168762475D02*
X103458020Y-168762475D01*
X103458020Y-168762475D02*
X103553258Y-168810094D01*
X103553258Y-168810094D02*
X103600877Y-168857713D01*
X103600877Y-168857713D02*
X103696115Y-169000570D01*
X103696115Y-169000570D02*
X103743734Y-169191046D01*
X103743734Y-169191046D02*
X103743734Y-169571998D01*
X103743734Y-169571998D02*
X103696115Y-169667236D01*
X103696115Y-169667236D02*
X103648496Y-169714856D01*
X103648496Y-169714856D02*
X103553258Y-169762475D01*
X103553258Y-169762475D02*
X103362782Y-169762475D01*
X103362782Y-169762475D02*
X103267544Y-169714856D01*
X103267544Y-169714856D02*
X103219925Y-169667236D01*
X103219925Y-169667236D02*
X103172306Y-169571998D01*
X103172306Y-169571998D02*
X103172306Y-169333903D01*
X103172306Y-169333903D02*
X103219925Y-169238665D01*
X103219925Y-169238665D02*
X103267544Y-169191046D01*
X103267544Y-169191046D02*
X103362782Y-169143427D01*
X103362782Y-169143427D02*
X103553258Y-169143427D01*
X103553258Y-169143427D02*
X103648496Y-169191046D01*
X103648496Y-169191046D02*
X103696115Y-169238665D01*
X103696115Y-169238665D02*
X103743734Y-169333903D01*
X102838972Y-168762475D02*
X102172306Y-168762475D01*
X102172306Y-168762475D02*
X102600877Y-169762475D01*
X101362782Y-168762475D02*
X101553258Y-168762475D01*
X101553258Y-168762475D02*
X101648496Y-168810094D01*
X101648496Y-168810094D02*
X101696115Y-168857713D01*
X101696115Y-168857713D02*
X101791353Y-169000570D01*
X101791353Y-169000570D02*
X101838972Y-169191046D01*
X101838972Y-169191046D02*
X101838972Y-169571998D01*
X101838972Y-169571998D02*
X101791353Y-169667236D01*
X101791353Y-169667236D02*
X101743734Y-169714856D01*
X101743734Y-169714856D02*
X101648496Y-169762475D01*
X101648496Y-169762475D02*
X101458020Y-169762475D01*
X101458020Y-169762475D02*
X101362782Y-169714856D01*
X101362782Y-169714856D02*
X101315163Y-169667236D01*
X101315163Y-169667236D02*
X101267544Y-169571998D01*
X101267544Y-169571998D02*
X101267544Y-169333903D01*
X101267544Y-169333903D02*
X101315163Y-169238665D01*
X101315163Y-169238665D02*
X101362782Y-169191046D01*
X101362782Y-169191046D02*
X101458020Y-169143427D01*
X101458020Y-169143427D02*
X101648496Y-169143427D01*
X101648496Y-169143427D02*
X101743734Y-169191046D01*
X101743734Y-169191046D02*
X101791353Y-169238665D01*
X101791353Y-169238665D02*
X101838972Y-169333903D01*
X100934210Y-168762475D02*
X100267544Y-168762475D01*
X100267544Y-168762475D02*
X100696115Y-169762475D01*
X99458020Y-168762475D02*
X99648496Y-168762475D01*
X99648496Y-168762475D02*
X99743734Y-168810094D01*
X99743734Y-168810094D02*
X99791353Y-168857713D01*
X99791353Y-168857713D02*
X99886591Y-169000570D01*
X99886591Y-169000570D02*
X99934210Y-169191046D01*
X99934210Y-169191046D02*
X99934210Y-169571998D01*
X99934210Y-169571998D02*
X99886591Y-169667236D01*
X99886591Y-169667236D02*
X99838972Y-169714856D01*
X99838972Y-169714856D02*
X99743734Y-169762475D01*
X99743734Y-169762475D02*
X99553258Y-169762475D01*
X99553258Y-169762475D02*
X99458020Y-169714856D01*
X99458020Y-169714856D02*
X99410401Y-169667236D01*
X99410401Y-169667236D02*
X99362782Y-169571998D01*
X99362782Y-169571998D02*
X99362782Y-169333903D01*
X99362782Y-169333903D02*
X99410401Y-169238665D01*
X99410401Y-169238665D02*
X99458020Y-169191046D01*
X99458020Y-169191046D02*
X99553258Y-169143427D01*
X99553258Y-169143427D02*
X99743734Y-169143427D01*
X99743734Y-169143427D02*
X99838972Y-169191046D01*
X99838972Y-169191046D02*
X99886591Y-169238665D01*
X99886591Y-169238665D02*
X99934210Y-169333903D01*
X99029448Y-168762475D02*
X98362782Y-168762475D01*
X98362782Y-168762475D02*
X98791353Y-169762475D01*
X97553258Y-168762475D02*
X97743734Y-168762475D01*
X97743734Y-168762475D02*
X97838972Y-168810094D01*
X97838972Y-168810094D02*
X97886591Y-168857713D01*
X97886591Y-168857713D02*
X97981829Y-169000570D01*
X97981829Y-169000570D02*
X98029448Y-169191046D01*
X98029448Y-169191046D02*
X98029448Y-169571998D01*
X98029448Y-169571998D02*
X97981829Y-169667236D01*
X97981829Y-169667236D02*
X97934210Y-169714856D01*
X97934210Y-169714856D02*
X97838972Y-169762475D01*
X97838972Y-169762475D02*
X97648496Y-169762475D01*
X97648496Y-169762475D02*
X97553258Y-169714856D01*
X97553258Y-169714856D02*
X97505639Y-169667236D01*
X97505639Y-169667236D02*
X97458020Y-169571998D01*
X97458020Y-169571998D02*
X97458020Y-169333903D01*
X97458020Y-169333903D02*
X97505639Y-169238665D01*
X97505639Y-169238665D02*
X97553258Y-169191046D01*
X97553258Y-169191046D02*
X97648496Y-169143427D01*
X97648496Y-169143427D02*
X97838972Y-169143427D01*
X97838972Y-169143427D02*
X97934210Y-169191046D01*
X97934210Y-169191046D02*
X97981829Y-169238665D01*
X97981829Y-169238665D02*
X98029448Y-169333903D01*
X97124686Y-168762475D02*
X96458020Y-168762475D01*
X96458020Y-168762475D02*
X96886591Y-169762475D01*
X95648496Y-168762475D02*
X95838972Y-168762475D01*
X95838972Y-168762475D02*
X95934210Y-168810094D01*
X95934210Y-168810094D02*
X95981829Y-168857713D01*
X95981829Y-168857713D02*
X96077067Y-169000570D01*
X96077067Y-169000570D02*
X96124686Y-169191046D01*
X96124686Y-169191046D02*
X96124686Y-169571998D01*
X96124686Y-169571998D02*
X96077067Y-169667236D01*
X96077067Y-169667236D02*
X96029448Y-169714856D01*
X96029448Y-169714856D02*
X95934210Y-169762475D01*
X95934210Y-169762475D02*
X95743734Y-169762475D01*
X95743734Y-169762475D02*
X95648496Y-169714856D01*
X95648496Y-169714856D02*
X95600877Y-169667236D01*
X95600877Y-169667236D02*
X95553258Y-169571998D01*
X95553258Y-169571998D02*
X95553258Y-169333903D01*
X95553258Y-169333903D02*
X95600877Y-169238665D01*
X95600877Y-169238665D02*
X95648496Y-169191046D01*
X95648496Y-169191046D02*
X95743734Y-169143427D01*
X95743734Y-169143427D02*
X95934210Y-169143427D01*
X95934210Y-169143427D02*
X96029448Y-169191046D01*
X96029448Y-169191046D02*
X96077067Y-169238665D01*
X96077067Y-169238665D02*
X96124686Y-169333903D01*
X95219924Y-168762475D02*
X94553258Y-168762475D01*
X94553258Y-168762475D02*
X94981829Y-169762475D01*
X93743734Y-168762475D02*
X93934210Y-168762475D01*
X93934210Y-168762475D02*
X94029448Y-168810094D01*
X94029448Y-168810094D02*
X94077067Y-168857713D01*
X94077067Y-168857713D02*
X94172305Y-169000570D01*
X94172305Y-169000570D02*
X94219924Y-169191046D01*
X94219924Y-169191046D02*
X94219924Y-169571998D01*
X94219924Y-169571998D02*
X94172305Y-169667236D01*
X94172305Y-169667236D02*
X94124686Y-169714856D01*
X94124686Y-169714856D02*
X94029448Y-169762475D01*
X94029448Y-169762475D02*
X93838972Y-169762475D01*
X93838972Y-169762475D02*
X93743734Y-169714856D01*
X93743734Y-169714856D02*
X93696115Y-169667236D01*
X93696115Y-169667236D02*
X93648496Y-169571998D01*
X93648496Y-169571998D02*
X93648496Y-169333903D01*
X93648496Y-169333903D02*
X93696115Y-169238665D01*
X93696115Y-169238665D02*
X93743734Y-169191046D01*
X93743734Y-169191046D02*
X93838972Y-169143427D01*
X93838972Y-169143427D02*
X94029448Y-169143427D01*
X94029448Y-169143427D02*
X94124686Y-169191046D01*
X94124686Y-169191046D02*
X94172305Y-169238665D01*
X94172305Y-169238665D02*
X94219924Y-169333903D01*
X93315162Y-168762475D02*
X92648496Y-168762475D01*
X92648496Y-168762475D02*
X93077067Y-169762475D01*
X91838972Y-168762475D02*
X92029448Y-168762475D01*
X92029448Y-168762475D02*
X92124686Y-168810094D01*
X92124686Y-168810094D02*
X92172305Y-168857713D01*
X92172305Y-168857713D02*
X92267543Y-169000570D01*
X92267543Y-169000570D02*
X92315162Y-169191046D01*
X92315162Y-169191046D02*
X92315162Y-169571998D01*
X92315162Y-169571998D02*
X92267543Y-169667236D01*
X92267543Y-169667236D02*
X92219924Y-169714856D01*
X92219924Y-169714856D02*
X92124686Y-169762475D01*
X92124686Y-169762475D02*
X91934210Y-169762475D01*
X91934210Y-169762475D02*
X91838972Y-169714856D01*
X91838972Y-169714856D02*
X91791353Y-169667236D01*
X91791353Y-169667236D02*
X91743734Y-169571998D01*
X91743734Y-169571998D02*
X91743734Y-169333903D01*
X91743734Y-169333903D02*
X91791353Y-169238665D01*
X91791353Y-169238665D02*
X91838972Y-169191046D01*
X91838972Y-169191046D02*
X91934210Y-169143427D01*
X91934210Y-169143427D02*
X92124686Y-169143427D01*
X92124686Y-169143427D02*
X92219924Y-169191046D01*
X92219924Y-169191046D02*
X92267543Y-169238665D01*
X92267543Y-169238665D02*
X92315162Y-169333903D01*
X91410400Y-168762475D02*
X90743734Y-168762475D01*
X90743734Y-168762475D02*
X91172305Y-169762475D01*
X89934210Y-168762475D02*
X90124686Y-168762475D01*
X90124686Y-168762475D02*
X90219924Y-168810094D01*
X90219924Y-168810094D02*
X90267543Y-168857713D01*
X90267543Y-168857713D02*
X90362781Y-169000570D01*
X90362781Y-169000570D02*
X90410400Y-169191046D01*
X90410400Y-169191046D02*
X90410400Y-169571998D01*
X90410400Y-169571998D02*
X90362781Y-169667236D01*
X90362781Y-169667236D02*
X90315162Y-169714856D01*
X90315162Y-169714856D02*
X90219924Y-169762475D01*
X90219924Y-169762475D02*
X90029448Y-169762475D01*
X90029448Y-169762475D02*
X89934210Y-169714856D01*
X89934210Y-169714856D02*
X89886591Y-169667236D01*
X89886591Y-169667236D02*
X89838972Y-169571998D01*
X89838972Y-169571998D02*
X89838972Y-169333903D01*
X89838972Y-169333903D02*
X89886591Y-169238665D01*
X89886591Y-169238665D02*
X89934210Y-169191046D01*
X89934210Y-169191046D02*
X90029448Y-169143427D01*
X90029448Y-169143427D02*
X90219924Y-169143427D01*
X90219924Y-169143427D02*
X90315162Y-169191046D01*
X90315162Y-169191046D02*
X90362781Y-169238665D01*
X90362781Y-169238665D02*
X90410400Y-169333903D01*
X89505638Y-168762475D02*
X88838972Y-168762475D01*
X88838972Y-168762475D02*
X89267543Y-169762475D01*
X88029448Y-168762475D02*
X88219924Y-168762475D01*
X88219924Y-168762475D02*
X88315162Y-168810094D01*
X88315162Y-168810094D02*
X88362781Y-168857713D01*
X88362781Y-168857713D02*
X88458019Y-169000570D01*
X88458019Y-169000570D02*
X88505638Y-169191046D01*
X88505638Y-169191046D02*
X88505638Y-169571998D01*
X88505638Y-169571998D02*
X88458019Y-169667236D01*
X88458019Y-169667236D02*
X88410400Y-169714856D01*
X88410400Y-169714856D02*
X88315162Y-169762475D01*
X88315162Y-169762475D02*
X88124686Y-169762475D01*
X88124686Y-169762475D02*
X88029448Y-169714856D01*
X88029448Y-169714856D02*
X87981829Y-169667236D01*
X87981829Y-169667236D02*
X87934210Y-169571998D01*
X87934210Y-169571998D02*
X87934210Y-169333903D01*
X87934210Y-169333903D02*
X87981829Y-169238665D01*
X87981829Y-169238665D02*
X88029448Y-169191046D01*
X88029448Y-169191046D02*
X88124686Y-169143427D01*
X88124686Y-169143427D02*
X88315162Y-169143427D01*
X88315162Y-169143427D02*
X88410400Y-169191046D01*
X88410400Y-169191046D02*
X88458019Y-169238665D01*
X88458019Y-169238665D02*
X88505638Y-169333903D01*
X87600876Y-168762475D02*
X86934210Y-168762475D01*
X86934210Y-168762475D02*
X87362781Y-169762475D01*
X86124686Y-168762475D02*
X86315162Y-168762475D01*
X86315162Y-168762475D02*
X86410400Y-168810094D01*
X86410400Y-168810094D02*
X86458019Y-168857713D01*
X86458019Y-168857713D02*
X86553257Y-169000570D01*
X86553257Y-169000570D02*
X86600876Y-169191046D01*
X86600876Y-169191046D02*
X86600876Y-169571998D01*
X86600876Y-169571998D02*
X86553257Y-169667236D01*
X86553257Y-169667236D02*
X86505638Y-169714856D01*
X86505638Y-169714856D02*
X86410400Y-169762475D01*
X86410400Y-169762475D02*
X86219924Y-169762475D01*
X86219924Y-169762475D02*
X86124686Y-169714856D01*
X86124686Y-169714856D02*
X86077067Y-169667236D01*
X86077067Y-169667236D02*
X86029448Y-169571998D01*
X86029448Y-169571998D02*
X86029448Y-169333903D01*
X86029448Y-169333903D02*
X86077067Y-169238665D01*
X86077067Y-169238665D02*
X86124686Y-169191046D01*
X86124686Y-169191046D02*
X86219924Y-169143427D01*
X86219924Y-169143427D02*
X86410400Y-169143427D01*
X86410400Y-169143427D02*
X86505638Y-169191046D01*
X86505638Y-169191046D02*
X86553257Y-169238665D01*
X86553257Y-169238665D02*
X86600876Y-169333903D01*
X85696114Y-168762475D02*
X85029448Y-168762475D01*
X85029448Y-168762475D02*
X85458019Y-169762475D01*
X84219924Y-168762475D02*
X84410400Y-168762475D01*
X84410400Y-168762475D02*
X84505638Y-168810094D01*
X84505638Y-168810094D02*
X84553257Y-168857713D01*
X84553257Y-168857713D02*
X84648495Y-169000570D01*
X84648495Y-169000570D02*
X84696114Y-169191046D01*
X84696114Y-169191046D02*
X84696114Y-169571998D01*
X84696114Y-169571998D02*
X84648495Y-169667236D01*
X84648495Y-169667236D02*
X84600876Y-169714856D01*
X84600876Y-169714856D02*
X84505638Y-169762475D01*
X84505638Y-169762475D02*
X84315162Y-169762475D01*
X84315162Y-169762475D02*
X84219924Y-169714856D01*
X84219924Y-169714856D02*
X84172305Y-169667236D01*
X84172305Y-169667236D02*
X84124686Y-169571998D01*
X84124686Y-169571998D02*
X84124686Y-169333903D01*
X84124686Y-169333903D02*
X84172305Y-169238665D01*
X84172305Y-169238665D02*
X84219924Y-169191046D01*
X84219924Y-169191046D02*
X84315162Y-169143427D01*
X84315162Y-169143427D02*
X84505638Y-169143427D01*
X84505638Y-169143427D02*
X84600876Y-169191046D01*
X84600876Y-169191046D02*
X84648495Y-169238665D01*
X84648495Y-169238665D02*
X84696114Y-169333903D01*
X83791352Y-168762475D02*
X83124686Y-168762475D01*
X83124686Y-168762475D02*
X83553257Y-169762475D01*
X82315162Y-168762475D02*
X82505638Y-168762475D01*
X82505638Y-168762475D02*
X82600876Y-168810094D01*
X82600876Y-168810094D02*
X82648495Y-168857713D01*
X82648495Y-168857713D02*
X82743733Y-169000570D01*
X82743733Y-169000570D02*
X82791352Y-169191046D01*
X82791352Y-169191046D02*
X82791352Y-169571998D01*
X82791352Y-169571998D02*
X82743733Y-169667236D01*
X82743733Y-169667236D02*
X82696114Y-169714856D01*
X82696114Y-169714856D02*
X82600876Y-169762475D01*
X82600876Y-169762475D02*
X82410400Y-169762475D01*
X82410400Y-169762475D02*
X82315162Y-169714856D01*
X82315162Y-169714856D02*
X82267543Y-169667236D01*
X82267543Y-169667236D02*
X82219924Y-169571998D01*
X82219924Y-169571998D02*
X82219924Y-169333903D01*
X82219924Y-169333903D02*
X82267543Y-169238665D01*
X82267543Y-169238665D02*
X82315162Y-169191046D01*
X82315162Y-169191046D02*
X82410400Y-169143427D01*
X82410400Y-169143427D02*
X82600876Y-169143427D01*
X82600876Y-169143427D02*
X82696114Y-169191046D01*
X82696114Y-169191046D02*
X82743733Y-169238665D01*
X82743733Y-169238665D02*
X82791352Y-169333903D01*
X81886590Y-168762475D02*
X81219924Y-168762475D01*
X81219924Y-168762475D02*
X81648495Y-169762475D01*
X80410400Y-168762475D02*
X80600876Y-168762475D01*
X80600876Y-168762475D02*
X80696114Y-168810094D01*
X80696114Y-168810094D02*
X80743733Y-168857713D01*
X80743733Y-168857713D02*
X80838971Y-169000570D01*
X80838971Y-169000570D02*
X80886590Y-169191046D01*
X80886590Y-169191046D02*
X80886590Y-169571998D01*
X80886590Y-169571998D02*
X80838971Y-169667236D01*
X80838971Y-169667236D02*
X80791352Y-169714856D01*
X80791352Y-169714856D02*
X80696114Y-169762475D01*
X80696114Y-169762475D02*
X80505638Y-169762475D01*
X80505638Y-169762475D02*
X80410400Y-169714856D01*
X80410400Y-169714856D02*
X80362781Y-169667236D01*
X80362781Y-169667236D02*
X80315162Y-169571998D01*
X80315162Y-169571998D02*
X80315162Y-169333903D01*
X80315162Y-169333903D02*
X80362781Y-169238665D01*
X80362781Y-169238665D02*
X80410400Y-169191046D01*
X80410400Y-169191046D02*
X80505638Y-169143427D01*
X80505638Y-169143427D02*
X80696114Y-169143427D01*
X80696114Y-169143427D02*
X80791352Y-169191046D01*
X80791352Y-169191046D02*
X80838971Y-169238665D01*
X80838971Y-169238665D02*
X80886590Y-169333903D01*
X79981828Y-168762475D02*
X79315162Y-168762475D01*
X79315162Y-168762475D02*
X79743733Y-169762475D01*
X78505638Y-168762475D02*
X78696114Y-168762475D01*
X78696114Y-168762475D02*
X78791352Y-168810094D01*
X78791352Y-168810094D02*
X78838971Y-168857713D01*
X78838971Y-168857713D02*
X78934209Y-169000570D01*
X78934209Y-169000570D02*
X78981828Y-169191046D01*
X78981828Y-169191046D02*
X78981828Y-169571998D01*
X78981828Y-169571998D02*
X78934209Y-169667236D01*
X78934209Y-169667236D02*
X78886590Y-169714856D01*
X78886590Y-169714856D02*
X78791352Y-169762475D01*
X78791352Y-169762475D02*
X78600876Y-169762475D01*
X78600876Y-169762475D02*
X78505638Y-169714856D01*
X78505638Y-169714856D02*
X78458019Y-169667236D01*
X78458019Y-169667236D02*
X78410400Y-169571998D01*
X78410400Y-169571998D02*
X78410400Y-169333903D01*
X78410400Y-169333903D02*
X78458019Y-169238665D01*
X78458019Y-169238665D02*
X78505638Y-169191046D01*
X78505638Y-169191046D02*
X78600876Y-169143427D01*
X78600876Y-169143427D02*
X78791352Y-169143427D01*
X78791352Y-169143427D02*
X78886590Y-169191046D01*
X78886590Y-169191046D02*
X78934209Y-169238665D01*
X78934209Y-169238665D02*
X78981828Y-169333903D01*
X78077066Y-168762475D02*
X77410400Y-168762475D01*
X77410400Y-168762475D02*
X77838971Y-169762475D01*
X76600876Y-168762475D02*
X76791352Y-168762475D01*
X76791352Y-168762475D02*
X76886590Y-168810094D01*
X76886590Y-168810094D02*
X76934209Y-168857713D01*
X76934209Y-168857713D02*
X77029447Y-169000570D01*
X77029447Y-169000570D02*
X77077066Y-169191046D01*
X77077066Y-169191046D02*
X77077066Y-169571998D01*
X77077066Y-169571998D02*
X77029447Y-169667236D01*
X77029447Y-169667236D02*
X76981828Y-169714856D01*
X76981828Y-169714856D02*
X76886590Y-169762475D01*
X76886590Y-169762475D02*
X76696114Y-169762475D01*
X76696114Y-169762475D02*
X76600876Y-169714856D01*
X76600876Y-169714856D02*
X76553257Y-169667236D01*
X76553257Y-169667236D02*
X76505638Y-169571998D01*
X76505638Y-169571998D02*
X76505638Y-169333903D01*
X76505638Y-169333903D02*
X76553257Y-169238665D01*
X76553257Y-169238665D02*
X76600876Y-169191046D01*
X76600876Y-169191046D02*
X76696114Y-169143427D01*
X76696114Y-169143427D02*
X76886590Y-169143427D01*
X76886590Y-169143427D02*
X76981828Y-169191046D01*
X76981828Y-169191046D02*
X77029447Y-169238665D01*
X77029447Y-169238665D02*
X77077066Y-169333903D01*
X76172304Y-168762475D02*
X75505638Y-168762475D01*
X75505638Y-168762475D02*
X75934209Y-169762475D01*
X74696114Y-168762475D02*
X74886590Y-168762475D01*
X74886590Y-168762475D02*
X74981828Y-168810094D01*
X74981828Y-168810094D02*
X75029447Y-168857713D01*
X75029447Y-168857713D02*
X75124685Y-169000570D01*
X75124685Y-169000570D02*
X75172304Y-169191046D01*
X75172304Y-169191046D02*
X75172304Y-169571998D01*
X75172304Y-169571998D02*
X75124685Y-169667236D01*
X75124685Y-169667236D02*
X75077066Y-169714856D01*
X75077066Y-169714856D02*
X74981828Y-169762475D01*
X74981828Y-169762475D02*
X74791352Y-169762475D01*
X74791352Y-169762475D02*
X74696114Y-169714856D01*
X74696114Y-169714856D02*
X74648495Y-169667236D01*
X74648495Y-169667236D02*
X74600876Y-169571998D01*
X74600876Y-169571998D02*
X74600876Y-169333903D01*
X74600876Y-169333903D02*
X74648495Y-169238665D01*
X74648495Y-169238665D02*
X74696114Y-169191046D01*
X74696114Y-169191046D02*
X74791352Y-169143427D01*
X74791352Y-169143427D02*
X74981828Y-169143427D01*
X74981828Y-169143427D02*
X75077066Y-169191046D01*
X75077066Y-169191046D02*
X75124685Y-169238665D01*
X75124685Y-169238665D02*
X75172304Y-169333903D01*
X74267542Y-168762475D02*
X73600876Y-168762475D01*
X73600876Y-168762475D02*
X74029447Y-169762475D01*
X72791352Y-168762475D02*
X72981828Y-168762475D01*
X72981828Y-168762475D02*
X73077066Y-168810094D01*
X73077066Y-168810094D02*
X73124685Y-168857713D01*
X73124685Y-168857713D02*
X73219923Y-169000570D01*
X73219923Y-169000570D02*
X73267542Y-169191046D01*
X73267542Y-169191046D02*
X73267542Y-169571998D01*
X73267542Y-169571998D02*
X73219923Y-169667236D01*
X73219923Y-169667236D02*
X73172304Y-169714856D01*
X73172304Y-169714856D02*
X73077066Y-169762475D01*
X73077066Y-169762475D02*
X72886590Y-169762475D01*
X72886590Y-169762475D02*
X72791352Y-169714856D01*
X72791352Y-169714856D02*
X72743733Y-169667236D01*
X72743733Y-169667236D02*
X72696114Y-169571998D01*
X72696114Y-169571998D02*
X72696114Y-169333903D01*
X72696114Y-169333903D02*
X72743733Y-169238665D01*
X72743733Y-169238665D02*
X72791352Y-169191046D01*
X72791352Y-169191046D02*
X72886590Y-169143427D01*
X72886590Y-169143427D02*
X73077066Y-169143427D01*
X73077066Y-169143427D02*
X73172304Y-169191046D01*
X73172304Y-169191046D02*
X73219923Y-169238665D01*
X73219923Y-169238665D02*
X73267542Y-169333903D01*
X72362780Y-168762475D02*
X71696114Y-168762475D01*
X71696114Y-168762475D02*
X72124685Y-169762475D01*
X70886590Y-168762475D02*
X71077066Y-168762475D01*
X71077066Y-168762475D02*
X71172304Y-168810094D01*
X71172304Y-168810094D02*
X71219923Y-168857713D01*
X71219923Y-168857713D02*
X71315161Y-169000570D01*
X71315161Y-169000570D02*
X71362780Y-169191046D01*
X71362780Y-169191046D02*
X71362780Y-169571998D01*
X71362780Y-169571998D02*
X71315161Y-169667236D01*
X71315161Y-169667236D02*
X71267542Y-169714856D01*
X71267542Y-169714856D02*
X71172304Y-169762475D01*
X71172304Y-169762475D02*
X70981828Y-169762475D01*
X70981828Y-169762475D02*
X70886590Y-169714856D01*
X70886590Y-169714856D02*
X70838971Y-169667236D01*
X70838971Y-169667236D02*
X70791352Y-169571998D01*
X70791352Y-169571998D02*
X70791352Y-169333903D01*
X70791352Y-169333903D02*
X70838971Y-169238665D01*
X70838971Y-169238665D02*
X70886590Y-169191046D01*
X70886590Y-169191046D02*
X70981828Y-169143427D01*
X70981828Y-169143427D02*
X71172304Y-169143427D01*
X71172304Y-169143427D02*
X71267542Y-169191046D01*
X71267542Y-169191046D02*
X71315161Y-169238665D01*
X71315161Y-169238665D02*
X71362780Y-169333903D01*
X70458018Y-168762475D02*
X69791352Y-168762475D01*
X69791352Y-168762475D02*
X70219923Y-169762475D01*
X103267544Y-170372419D02*
X103458020Y-170372419D01*
X103458020Y-170372419D02*
X103553258Y-170420038D01*
X103553258Y-170420038D02*
X103600877Y-170467657D01*
X103600877Y-170467657D02*
X103696115Y-170610514D01*
X103696115Y-170610514D02*
X103743734Y-170800990D01*
X103743734Y-170800990D02*
X103743734Y-171181942D01*
X103743734Y-171181942D02*
X103696115Y-171277180D01*
X103696115Y-171277180D02*
X103648496Y-171324800D01*
X103648496Y-171324800D02*
X103553258Y-171372419D01*
X103553258Y-171372419D02*
X103362782Y-171372419D01*
X103362782Y-171372419D02*
X103267544Y-171324800D01*
X103267544Y-171324800D02*
X103219925Y-171277180D01*
X103219925Y-171277180D02*
X103172306Y-171181942D01*
X103172306Y-171181942D02*
X103172306Y-170943847D01*
X103172306Y-170943847D02*
X103219925Y-170848609D01*
X103219925Y-170848609D02*
X103267544Y-170800990D01*
X103267544Y-170800990D02*
X103362782Y-170753371D01*
X103362782Y-170753371D02*
X103553258Y-170753371D01*
X103553258Y-170753371D02*
X103648496Y-170800990D01*
X103648496Y-170800990D02*
X103696115Y-170848609D01*
X103696115Y-170848609D02*
X103743734Y-170943847D01*
X102838972Y-170372419D02*
X102172306Y-170372419D01*
X102172306Y-170372419D02*
X102600877Y-171372419D01*
X101362782Y-170372419D02*
X101553258Y-170372419D01*
X101553258Y-170372419D02*
X101648496Y-170420038D01*
X101648496Y-170420038D02*
X101696115Y-170467657D01*
X101696115Y-170467657D02*
X101791353Y-170610514D01*
X101791353Y-170610514D02*
X101838972Y-170800990D01*
X101838972Y-170800990D02*
X101838972Y-171181942D01*
X101838972Y-171181942D02*
X101791353Y-171277180D01*
X101791353Y-171277180D02*
X101743734Y-171324800D01*
X101743734Y-171324800D02*
X101648496Y-171372419D01*
X101648496Y-171372419D02*
X101458020Y-171372419D01*
X101458020Y-171372419D02*
X101362782Y-171324800D01*
X101362782Y-171324800D02*
X101315163Y-171277180D01*
X101315163Y-171277180D02*
X101267544Y-171181942D01*
X101267544Y-171181942D02*
X101267544Y-170943847D01*
X101267544Y-170943847D02*
X101315163Y-170848609D01*
X101315163Y-170848609D02*
X101362782Y-170800990D01*
X101362782Y-170800990D02*
X101458020Y-170753371D01*
X101458020Y-170753371D02*
X101648496Y-170753371D01*
X101648496Y-170753371D02*
X101743734Y-170800990D01*
X101743734Y-170800990D02*
X101791353Y-170848609D01*
X101791353Y-170848609D02*
X101838972Y-170943847D01*
X100934210Y-170372419D02*
X100267544Y-170372419D01*
X100267544Y-170372419D02*
X100696115Y-171372419D01*
X99458020Y-170372419D02*
X99648496Y-170372419D01*
X99648496Y-170372419D02*
X99743734Y-170420038D01*
X99743734Y-170420038D02*
X99791353Y-170467657D01*
X99791353Y-170467657D02*
X99886591Y-170610514D01*
X99886591Y-170610514D02*
X99934210Y-170800990D01*
X99934210Y-170800990D02*
X99934210Y-171181942D01*
X99934210Y-171181942D02*
X99886591Y-171277180D01*
X99886591Y-171277180D02*
X99838972Y-171324800D01*
X99838972Y-171324800D02*
X99743734Y-171372419D01*
X99743734Y-171372419D02*
X99553258Y-171372419D01*
X99553258Y-171372419D02*
X99458020Y-171324800D01*
X99458020Y-171324800D02*
X99410401Y-171277180D01*
X99410401Y-171277180D02*
X99362782Y-171181942D01*
X99362782Y-171181942D02*
X99362782Y-170943847D01*
X99362782Y-170943847D02*
X99410401Y-170848609D01*
X99410401Y-170848609D02*
X99458020Y-170800990D01*
X99458020Y-170800990D02*
X99553258Y-170753371D01*
X99553258Y-170753371D02*
X99743734Y-170753371D01*
X99743734Y-170753371D02*
X99838972Y-170800990D01*
X99838972Y-170800990D02*
X99886591Y-170848609D01*
X99886591Y-170848609D02*
X99934210Y-170943847D01*
X99029448Y-170372419D02*
X98362782Y-170372419D01*
X98362782Y-170372419D02*
X98791353Y-171372419D01*
X97553258Y-170372419D02*
X97743734Y-170372419D01*
X97743734Y-170372419D02*
X97838972Y-170420038D01*
X97838972Y-170420038D02*
X97886591Y-170467657D01*
X97886591Y-170467657D02*
X97981829Y-170610514D01*
X97981829Y-170610514D02*
X98029448Y-170800990D01*
X98029448Y-170800990D02*
X98029448Y-171181942D01*
X98029448Y-171181942D02*
X97981829Y-171277180D01*
X97981829Y-171277180D02*
X97934210Y-171324800D01*
X97934210Y-171324800D02*
X97838972Y-171372419D01*
X97838972Y-171372419D02*
X97648496Y-171372419D01*
X97648496Y-171372419D02*
X97553258Y-171324800D01*
X97553258Y-171324800D02*
X97505639Y-171277180D01*
X97505639Y-171277180D02*
X97458020Y-171181942D01*
X97458020Y-171181942D02*
X97458020Y-170943847D01*
X97458020Y-170943847D02*
X97505639Y-170848609D01*
X97505639Y-170848609D02*
X97553258Y-170800990D01*
X97553258Y-170800990D02*
X97648496Y-170753371D01*
X97648496Y-170753371D02*
X97838972Y-170753371D01*
X97838972Y-170753371D02*
X97934210Y-170800990D01*
X97934210Y-170800990D02*
X97981829Y-170848609D01*
X97981829Y-170848609D02*
X98029448Y-170943847D01*
X97124686Y-170372419D02*
X96458020Y-170372419D01*
X96458020Y-170372419D02*
X96886591Y-171372419D01*
X95648496Y-170372419D02*
X95838972Y-170372419D01*
X95838972Y-170372419D02*
X95934210Y-170420038D01*
X95934210Y-170420038D02*
X95981829Y-170467657D01*
X95981829Y-170467657D02*
X96077067Y-170610514D01*
X96077067Y-170610514D02*
X96124686Y-170800990D01*
X96124686Y-170800990D02*
X96124686Y-171181942D01*
X96124686Y-171181942D02*
X96077067Y-171277180D01*
X96077067Y-171277180D02*
X96029448Y-171324800D01*
X96029448Y-171324800D02*
X95934210Y-171372419D01*
X95934210Y-171372419D02*
X95743734Y-171372419D01*
X95743734Y-171372419D02*
X95648496Y-171324800D01*
X95648496Y-171324800D02*
X95600877Y-171277180D01*
X95600877Y-171277180D02*
X95553258Y-171181942D01*
X95553258Y-171181942D02*
X95553258Y-170943847D01*
X95553258Y-170943847D02*
X95600877Y-170848609D01*
X95600877Y-170848609D02*
X95648496Y-170800990D01*
X95648496Y-170800990D02*
X95743734Y-170753371D01*
X95743734Y-170753371D02*
X95934210Y-170753371D01*
X95934210Y-170753371D02*
X96029448Y-170800990D01*
X96029448Y-170800990D02*
X96077067Y-170848609D01*
X96077067Y-170848609D02*
X96124686Y-170943847D01*
X95219924Y-170372419D02*
X94553258Y-170372419D01*
X94553258Y-170372419D02*
X94981829Y-171372419D01*
X93743734Y-170372419D02*
X93934210Y-170372419D01*
X93934210Y-170372419D02*
X94029448Y-170420038D01*
X94029448Y-170420038D02*
X94077067Y-170467657D01*
X94077067Y-170467657D02*
X94172305Y-170610514D01*
X94172305Y-170610514D02*
X94219924Y-170800990D01*
X94219924Y-170800990D02*
X94219924Y-171181942D01*
X94219924Y-171181942D02*
X94172305Y-171277180D01*
X94172305Y-171277180D02*
X94124686Y-171324800D01*
X94124686Y-171324800D02*
X94029448Y-171372419D01*
X94029448Y-171372419D02*
X93838972Y-171372419D01*
X93838972Y-171372419D02*
X93743734Y-171324800D01*
X93743734Y-171324800D02*
X93696115Y-171277180D01*
X93696115Y-171277180D02*
X93648496Y-171181942D01*
X93648496Y-171181942D02*
X93648496Y-170943847D01*
X93648496Y-170943847D02*
X93696115Y-170848609D01*
X93696115Y-170848609D02*
X93743734Y-170800990D01*
X93743734Y-170800990D02*
X93838972Y-170753371D01*
X93838972Y-170753371D02*
X94029448Y-170753371D01*
X94029448Y-170753371D02*
X94124686Y-170800990D01*
X94124686Y-170800990D02*
X94172305Y-170848609D01*
X94172305Y-170848609D02*
X94219924Y-170943847D01*
X93315162Y-170372419D02*
X92648496Y-170372419D01*
X92648496Y-170372419D02*
X93077067Y-171372419D01*
X91838972Y-170372419D02*
X92029448Y-170372419D01*
X92029448Y-170372419D02*
X92124686Y-170420038D01*
X92124686Y-170420038D02*
X92172305Y-170467657D01*
X92172305Y-170467657D02*
X92267543Y-170610514D01*
X92267543Y-170610514D02*
X92315162Y-170800990D01*
X92315162Y-170800990D02*
X92315162Y-171181942D01*
X92315162Y-171181942D02*
X92267543Y-171277180D01*
X92267543Y-171277180D02*
X92219924Y-171324800D01*
X92219924Y-171324800D02*
X92124686Y-171372419D01*
X92124686Y-171372419D02*
X91934210Y-171372419D01*
X91934210Y-171372419D02*
X91838972Y-171324800D01*
X91838972Y-171324800D02*
X91791353Y-171277180D01*
X91791353Y-171277180D02*
X91743734Y-171181942D01*
X91743734Y-171181942D02*
X91743734Y-170943847D01*
X91743734Y-170943847D02*
X91791353Y-170848609D01*
X91791353Y-170848609D02*
X91838972Y-170800990D01*
X91838972Y-170800990D02*
X91934210Y-170753371D01*
X91934210Y-170753371D02*
X92124686Y-170753371D01*
X92124686Y-170753371D02*
X92219924Y-170800990D01*
X92219924Y-170800990D02*
X92267543Y-170848609D01*
X92267543Y-170848609D02*
X92315162Y-170943847D01*
X91410400Y-170372419D02*
X90743734Y-170372419D01*
X90743734Y-170372419D02*
X91172305Y-171372419D01*
X89934210Y-170372419D02*
X90124686Y-170372419D01*
X90124686Y-170372419D02*
X90219924Y-170420038D01*
X90219924Y-170420038D02*
X90267543Y-170467657D01*
X90267543Y-170467657D02*
X90362781Y-170610514D01*
X90362781Y-170610514D02*
X90410400Y-170800990D01*
X90410400Y-170800990D02*
X90410400Y-171181942D01*
X90410400Y-171181942D02*
X90362781Y-171277180D01*
X90362781Y-171277180D02*
X90315162Y-171324800D01*
X90315162Y-171324800D02*
X90219924Y-171372419D01*
X90219924Y-171372419D02*
X90029448Y-171372419D01*
X90029448Y-171372419D02*
X89934210Y-171324800D01*
X89934210Y-171324800D02*
X89886591Y-171277180D01*
X89886591Y-171277180D02*
X89838972Y-171181942D01*
X89838972Y-171181942D02*
X89838972Y-170943847D01*
X89838972Y-170943847D02*
X89886591Y-170848609D01*
X89886591Y-170848609D02*
X89934210Y-170800990D01*
X89934210Y-170800990D02*
X90029448Y-170753371D01*
X90029448Y-170753371D02*
X90219924Y-170753371D01*
X90219924Y-170753371D02*
X90315162Y-170800990D01*
X90315162Y-170800990D02*
X90362781Y-170848609D01*
X90362781Y-170848609D02*
X90410400Y-170943847D01*
X89505638Y-170372419D02*
X88838972Y-170372419D01*
X88838972Y-170372419D02*
X89267543Y-171372419D01*
X88029448Y-170372419D02*
X88219924Y-170372419D01*
X88219924Y-170372419D02*
X88315162Y-170420038D01*
X88315162Y-170420038D02*
X88362781Y-170467657D01*
X88362781Y-170467657D02*
X88458019Y-170610514D01*
X88458019Y-170610514D02*
X88505638Y-170800990D01*
X88505638Y-170800990D02*
X88505638Y-171181942D01*
X88505638Y-171181942D02*
X88458019Y-171277180D01*
X88458019Y-171277180D02*
X88410400Y-171324800D01*
X88410400Y-171324800D02*
X88315162Y-171372419D01*
X88315162Y-171372419D02*
X88124686Y-171372419D01*
X88124686Y-171372419D02*
X88029448Y-171324800D01*
X88029448Y-171324800D02*
X87981829Y-171277180D01*
X87981829Y-171277180D02*
X87934210Y-171181942D01*
X87934210Y-171181942D02*
X87934210Y-170943847D01*
X87934210Y-170943847D02*
X87981829Y-170848609D01*
X87981829Y-170848609D02*
X88029448Y-170800990D01*
X88029448Y-170800990D02*
X88124686Y-170753371D01*
X88124686Y-170753371D02*
X88315162Y-170753371D01*
X88315162Y-170753371D02*
X88410400Y-170800990D01*
X88410400Y-170800990D02*
X88458019Y-170848609D01*
X88458019Y-170848609D02*
X88505638Y-170943847D01*
X87600876Y-170372419D02*
X86934210Y-170372419D01*
X86934210Y-170372419D02*
X87362781Y-171372419D01*
X86124686Y-170372419D02*
X86315162Y-170372419D01*
X86315162Y-170372419D02*
X86410400Y-170420038D01*
X86410400Y-170420038D02*
X86458019Y-170467657D01*
X86458019Y-170467657D02*
X86553257Y-170610514D01*
X86553257Y-170610514D02*
X86600876Y-170800990D01*
X86600876Y-170800990D02*
X86600876Y-171181942D01*
X86600876Y-171181942D02*
X86553257Y-171277180D01*
X86553257Y-171277180D02*
X86505638Y-171324800D01*
X86505638Y-171324800D02*
X86410400Y-171372419D01*
X86410400Y-171372419D02*
X86219924Y-171372419D01*
X86219924Y-171372419D02*
X86124686Y-171324800D01*
X86124686Y-171324800D02*
X86077067Y-171277180D01*
X86077067Y-171277180D02*
X86029448Y-171181942D01*
X86029448Y-171181942D02*
X86029448Y-170943847D01*
X86029448Y-170943847D02*
X86077067Y-170848609D01*
X86077067Y-170848609D02*
X86124686Y-170800990D01*
X86124686Y-170800990D02*
X86219924Y-170753371D01*
X86219924Y-170753371D02*
X86410400Y-170753371D01*
X86410400Y-170753371D02*
X86505638Y-170800990D01*
X86505638Y-170800990D02*
X86553257Y-170848609D01*
X86553257Y-170848609D02*
X86600876Y-170943847D01*
X85696114Y-170372419D02*
X85029448Y-170372419D01*
X85029448Y-170372419D02*
X85458019Y-171372419D01*
X84219924Y-170372419D02*
X84410400Y-170372419D01*
X84410400Y-170372419D02*
X84505638Y-170420038D01*
X84505638Y-170420038D02*
X84553257Y-170467657D01*
X84553257Y-170467657D02*
X84648495Y-170610514D01*
X84648495Y-170610514D02*
X84696114Y-170800990D01*
X84696114Y-170800990D02*
X84696114Y-171181942D01*
X84696114Y-171181942D02*
X84648495Y-171277180D01*
X84648495Y-171277180D02*
X84600876Y-171324800D01*
X84600876Y-171324800D02*
X84505638Y-171372419D01*
X84505638Y-171372419D02*
X84315162Y-171372419D01*
X84315162Y-171372419D02*
X84219924Y-171324800D01*
X84219924Y-171324800D02*
X84172305Y-171277180D01*
X84172305Y-171277180D02*
X84124686Y-171181942D01*
X84124686Y-171181942D02*
X84124686Y-170943847D01*
X84124686Y-170943847D02*
X84172305Y-170848609D01*
X84172305Y-170848609D02*
X84219924Y-170800990D01*
X84219924Y-170800990D02*
X84315162Y-170753371D01*
X84315162Y-170753371D02*
X84505638Y-170753371D01*
X84505638Y-170753371D02*
X84600876Y-170800990D01*
X84600876Y-170800990D02*
X84648495Y-170848609D01*
X84648495Y-170848609D02*
X84696114Y-170943847D01*
X83791352Y-170372419D02*
X83124686Y-170372419D01*
X83124686Y-170372419D02*
X83553257Y-171372419D01*
X82315162Y-170372419D02*
X82505638Y-170372419D01*
X82505638Y-170372419D02*
X82600876Y-170420038D01*
X82600876Y-170420038D02*
X82648495Y-170467657D01*
X82648495Y-170467657D02*
X82743733Y-170610514D01*
X82743733Y-170610514D02*
X82791352Y-170800990D01*
X82791352Y-170800990D02*
X82791352Y-171181942D01*
X82791352Y-171181942D02*
X82743733Y-171277180D01*
X82743733Y-171277180D02*
X82696114Y-171324800D01*
X82696114Y-171324800D02*
X82600876Y-171372419D01*
X82600876Y-171372419D02*
X82410400Y-171372419D01*
X82410400Y-171372419D02*
X82315162Y-171324800D01*
X82315162Y-171324800D02*
X82267543Y-171277180D01*
X82267543Y-171277180D02*
X82219924Y-171181942D01*
X82219924Y-171181942D02*
X82219924Y-170943847D01*
X82219924Y-170943847D02*
X82267543Y-170848609D01*
X82267543Y-170848609D02*
X82315162Y-170800990D01*
X82315162Y-170800990D02*
X82410400Y-170753371D01*
X82410400Y-170753371D02*
X82600876Y-170753371D01*
X82600876Y-170753371D02*
X82696114Y-170800990D01*
X82696114Y-170800990D02*
X82743733Y-170848609D01*
X82743733Y-170848609D02*
X82791352Y-170943847D01*
X81886590Y-170372419D02*
X81219924Y-170372419D01*
X81219924Y-170372419D02*
X81648495Y-171372419D01*
X80410400Y-170372419D02*
X80600876Y-170372419D01*
X80600876Y-170372419D02*
X80696114Y-170420038D01*
X80696114Y-170420038D02*
X80743733Y-170467657D01*
X80743733Y-170467657D02*
X80838971Y-170610514D01*
X80838971Y-170610514D02*
X80886590Y-170800990D01*
X80886590Y-170800990D02*
X80886590Y-171181942D01*
X80886590Y-171181942D02*
X80838971Y-171277180D01*
X80838971Y-171277180D02*
X80791352Y-171324800D01*
X80791352Y-171324800D02*
X80696114Y-171372419D01*
X80696114Y-171372419D02*
X80505638Y-171372419D01*
X80505638Y-171372419D02*
X80410400Y-171324800D01*
X80410400Y-171324800D02*
X80362781Y-171277180D01*
X80362781Y-171277180D02*
X80315162Y-171181942D01*
X80315162Y-171181942D02*
X80315162Y-170943847D01*
X80315162Y-170943847D02*
X80362781Y-170848609D01*
X80362781Y-170848609D02*
X80410400Y-170800990D01*
X80410400Y-170800990D02*
X80505638Y-170753371D01*
X80505638Y-170753371D02*
X80696114Y-170753371D01*
X80696114Y-170753371D02*
X80791352Y-170800990D01*
X80791352Y-170800990D02*
X80838971Y-170848609D01*
X80838971Y-170848609D02*
X80886590Y-170943847D01*
X79981828Y-170372419D02*
X79315162Y-170372419D01*
X79315162Y-170372419D02*
X79743733Y-171372419D01*
X78505638Y-170372419D02*
X78696114Y-170372419D01*
X78696114Y-170372419D02*
X78791352Y-170420038D01*
X78791352Y-170420038D02*
X78838971Y-170467657D01*
X78838971Y-170467657D02*
X78934209Y-170610514D01*
X78934209Y-170610514D02*
X78981828Y-170800990D01*
X78981828Y-170800990D02*
X78981828Y-171181942D01*
X78981828Y-171181942D02*
X78934209Y-171277180D01*
X78934209Y-171277180D02*
X78886590Y-171324800D01*
X78886590Y-171324800D02*
X78791352Y-171372419D01*
X78791352Y-171372419D02*
X78600876Y-171372419D01*
X78600876Y-171372419D02*
X78505638Y-171324800D01*
X78505638Y-171324800D02*
X78458019Y-171277180D01*
X78458019Y-171277180D02*
X78410400Y-171181942D01*
X78410400Y-171181942D02*
X78410400Y-170943847D01*
X78410400Y-170943847D02*
X78458019Y-170848609D01*
X78458019Y-170848609D02*
X78505638Y-170800990D01*
X78505638Y-170800990D02*
X78600876Y-170753371D01*
X78600876Y-170753371D02*
X78791352Y-170753371D01*
X78791352Y-170753371D02*
X78886590Y-170800990D01*
X78886590Y-170800990D02*
X78934209Y-170848609D01*
X78934209Y-170848609D02*
X78981828Y-170943847D01*
X78077066Y-170372419D02*
X77410400Y-170372419D01*
X77410400Y-170372419D02*
X77838971Y-171372419D01*
X76600876Y-170372419D02*
X76791352Y-170372419D01*
X76791352Y-170372419D02*
X76886590Y-170420038D01*
X76886590Y-170420038D02*
X76934209Y-170467657D01*
X76934209Y-170467657D02*
X77029447Y-170610514D01*
X77029447Y-170610514D02*
X77077066Y-170800990D01*
X77077066Y-170800990D02*
X77077066Y-171181942D01*
X77077066Y-171181942D02*
X77029447Y-171277180D01*
X77029447Y-171277180D02*
X76981828Y-171324800D01*
X76981828Y-171324800D02*
X76886590Y-171372419D01*
X76886590Y-171372419D02*
X76696114Y-171372419D01*
X76696114Y-171372419D02*
X76600876Y-171324800D01*
X76600876Y-171324800D02*
X76553257Y-171277180D01*
X76553257Y-171277180D02*
X76505638Y-171181942D01*
X76505638Y-171181942D02*
X76505638Y-170943847D01*
X76505638Y-170943847D02*
X76553257Y-170848609D01*
X76553257Y-170848609D02*
X76600876Y-170800990D01*
X76600876Y-170800990D02*
X76696114Y-170753371D01*
X76696114Y-170753371D02*
X76886590Y-170753371D01*
X76886590Y-170753371D02*
X76981828Y-170800990D01*
X76981828Y-170800990D02*
X77029447Y-170848609D01*
X77029447Y-170848609D02*
X77077066Y-170943847D01*
X76172304Y-170372419D02*
X75505638Y-170372419D01*
X75505638Y-170372419D02*
X75934209Y-171372419D01*
X74696114Y-170372419D02*
X74886590Y-170372419D01*
X74886590Y-170372419D02*
X74981828Y-170420038D01*
X74981828Y-170420038D02*
X75029447Y-170467657D01*
X75029447Y-170467657D02*
X75124685Y-170610514D01*
X75124685Y-170610514D02*
X75172304Y-170800990D01*
X75172304Y-170800990D02*
X75172304Y-171181942D01*
X75172304Y-171181942D02*
X75124685Y-171277180D01*
X75124685Y-171277180D02*
X75077066Y-171324800D01*
X75077066Y-171324800D02*
X74981828Y-171372419D01*
X74981828Y-171372419D02*
X74791352Y-171372419D01*
X74791352Y-171372419D02*
X74696114Y-171324800D01*
X74696114Y-171324800D02*
X74648495Y-171277180D01*
X74648495Y-171277180D02*
X74600876Y-171181942D01*
X74600876Y-171181942D02*
X74600876Y-170943847D01*
X74600876Y-170943847D02*
X74648495Y-170848609D01*
X74648495Y-170848609D02*
X74696114Y-170800990D01*
X74696114Y-170800990D02*
X74791352Y-170753371D01*
X74791352Y-170753371D02*
X74981828Y-170753371D01*
X74981828Y-170753371D02*
X75077066Y-170800990D01*
X75077066Y-170800990D02*
X75124685Y-170848609D01*
X75124685Y-170848609D02*
X75172304Y-170943847D01*
X74267542Y-170372419D02*
X73600876Y-170372419D01*
X73600876Y-170372419D02*
X74029447Y-171372419D01*
X72791352Y-170372419D02*
X72981828Y-170372419D01*
X72981828Y-170372419D02*
X73077066Y-170420038D01*
X73077066Y-170420038D02*
X73124685Y-170467657D01*
X73124685Y-170467657D02*
X73219923Y-170610514D01*
X73219923Y-170610514D02*
X73267542Y-170800990D01*
X73267542Y-170800990D02*
X73267542Y-171181942D01*
X73267542Y-171181942D02*
X73219923Y-171277180D01*
X73219923Y-171277180D02*
X73172304Y-171324800D01*
X73172304Y-171324800D02*
X73077066Y-171372419D01*
X73077066Y-171372419D02*
X72886590Y-171372419D01*
X72886590Y-171372419D02*
X72791352Y-171324800D01*
X72791352Y-171324800D02*
X72743733Y-171277180D01*
X72743733Y-171277180D02*
X72696114Y-171181942D01*
X72696114Y-171181942D02*
X72696114Y-170943847D01*
X72696114Y-170943847D02*
X72743733Y-170848609D01*
X72743733Y-170848609D02*
X72791352Y-170800990D01*
X72791352Y-170800990D02*
X72886590Y-170753371D01*
X72886590Y-170753371D02*
X73077066Y-170753371D01*
X73077066Y-170753371D02*
X73172304Y-170800990D01*
X73172304Y-170800990D02*
X73219923Y-170848609D01*
X73219923Y-170848609D02*
X73267542Y-170943847D01*
X72362780Y-170372419D02*
X71696114Y-170372419D01*
X71696114Y-170372419D02*
X72124685Y-171372419D01*
X70886590Y-170372419D02*
X71077066Y-170372419D01*
X71077066Y-170372419D02*
X71172304Y-170420038D01*
X71172304Y-170420038D02*
X71219923Y-170467657D01*
X71219923Y-170467657D02*
X71315161Y-170610514D01*
X71315161Y-170610514D02*
X71362780Y-170800990D01*
X71362780Y-170800990D02*
X71362780Y-171181942D01*
X71362780Y-171181942D02*
X71315161Y-171277180D01*
X71315161Y-171277180D02*
X71267542Y-171324800D01*
X71267542Y-171324800D02*
X71172304Y-171372419D01*
X71172304Y-171372419D02*
X70981828Y-171372419D01*
X70981828Y-171372419D02*
X70886590Y-171324800D01*
X70886590Y-171324800D02*
X70838971Y-171277180D01*
X70838971Y-171277180D02*
X70791352Y-171181942D01*
X70791352Y-171181942D02*
X70791352Y-170943847D01*
X70791352Y-170943847D02*
X70838971Y-170848609D01*
X70838971Y-170848609D02*
X70886590Y-170800990D01*
X70886590Y-170800990D02*
X70981828Y-170753371D01*
X70981828Y-170753371D02*
X71172304Y-170753371D01*
X71172304Y-170753371D02*
X71267542Y-170800990D01*
X71267542Y-170800990D02*
X71315161Y-170848609D01*
X71315161Y-170848609D02*
X71362780Y-170943847D01*
X70458018Y-170372419D02*
X69791352Y-170372419D01*
X69791352Y-170372419D02*
X70219923Y-171372419D01*
D11*
X36918332Y-150707200D02*
X36775475Y-150754819D01*
X36775475Y-150754819D02*
X36537380Y-150754819D01*
X36537380Y-150754819D02*
X36442142Y-150707200D01*
X36442142Y-150707200D02*
X36394523Y-150659580D01*
X36394523Y-150659580D02*
X36346904Y-150564342D01*
X36346904Y-150564342D02*
X36346904Y-150469104D01*
X36346904Y-150469104D02*
X36394523Y-150373866D01*
X36394523Y-150373866D02*
X36442142Y-150326247D01*
X36442142Y-150326247D02*
X36537380Y-150278628D01*
X36537380Y-150278628D02*
X36727856Y-150231009D01*
X36727856Y-150231009D02*
X36823094Y-150183390D01*
X36823094Y-150183390D02*
X36870713Y-150135771D01*
X36870713Y-150135771D02*
X36918332Y-150040533D01*
X36918332Y-150040533D02*
X36918332Y-149945295D01*
X36918332Y-149945295D02*
X36870713Y-149850057D01*
X36870713Y-149850057D02*
X36823094Y-149802438D01*
X36823094Y-149802438D02*
X36727856Y-149754819D01*
X36727856Y-149754819D02*
X36489761Y-149754819D01*
X36489761Y-149754819D02*
X36346904Y-149802438D01*
X36013570Y-149754819D02*
X35775475Y-150754819D01*
X35775475Y-150754819D02*
X35584999Y-150040533D01*
X35584999Y-150040533D02*
X35394523Y-150754819D01*
X35394523Y-150754819D02*
X35156428Y-149754819D01*
X34251666Y-150754819D02*
X34823094Y-150754819D01*
X34537380Y-150754819D02*
X34537380Y-149754819D01*
X34537380Y-149754819D02*
X34632618Y-149897676D01*
X34632618Y-149897676D02*
X34727856Y-149992914D01*
X34727856Y-149992914D02*
X34823094Y-150040533D01*
X36285714Y-173431009D02*
X36142857Y-173478628D01*
X36142857Y-173478628D02*
X36095238Y-173526247D01*
X36095238Y-173526247D02*
X36047619Y-173621485D01*
X36047619Y-173621485D02*
X36047619Y-173764342D01*
X36047619Y-173764342D02*
X36095238Y-173859580D01*
X36095238Y-173859580D02*
X36142857Y-173907200D01*
X36142857Y-173907200D02*
X36238095Y-173954819D01*
X36238095Y-173954819D02*
X36619047Y-173954819D01*
X36619047Y-173954819D02*
X36619047Y-172954819D01*
X36619047Y-172954819D02*
X36285714Y-172954819D01*
X36285714Y-172954819D02*
X36190476Y-173002438D01*
X36190476Y-173002438D02*
X36142857Y-173050057D01*
X36142857Y-173050057D02*
X36095238Y-173145295D01*
X36095238Y-173145295D02*
X36095238Y-173240533D01*
X36095238Y-173240533D02*
X36142857Y-173335771D01*
X36142857Y-173335771D02*
X36190476Y-173383390D01*
X36190476Y-173383390D02*
X36285714Y-173431009D01*
X36285714Y-173431009D02*
X36619047Y-173431009D01*
X35761904Y-172954819D02*
X35190476Y-172954819D01*
X35476190Y-173954819D02*
X35476190Y-172954819D01*
X34333333Y-173954819D02*
X34904761Y-173954819D01*
X34619047Y-173954819D02*
X34619047Y-172954819D01*
X34619047Y-172954819D02*
X34714285Y-173097676D01*
X34714285Y-173097676D02*
X34809523Y-173192914D01*
X34809523Y-173192914D02*
X34904761Y-173240533D01*
%TO.C,SW1*%
D12*
X30985000Y-145100000D02*
X30985000Y-147400000D01*
X30985000Y-147400000D02*
X32185000Y-147400000D01*
X34685000Y-147400000D02*
X33985000Y-147400000D01*
X37185000Y-147400000D02*
X36485000Y-147400000D01*
X38985000Y-147400000D02*
X40185000Y-147400000D01*
X40185000Y-147400000D02*
X40185000Y-145100000D01*
%TO.C,BT1*%
X24720000Y-158370000D02*
X26160000Y-154420000D01*
X24720000Y-159000000D02*
X24720000Y-158370000D01*
X24720000Y-167460000D02*
X24720000Y-165000000D01*
X26800000Y-169540000D02*
X24720000Y-167460000D01*
X30300000Y-169540000D02*
X26800000Y-169540000D01*
X44200000Y-169540000D02*
X40700000Y-169540000D01*
X44200000Y-169540000D02*
X46280000Y-167460000D01*
X46280000Y-158370000D02*
X44840000Y-154420000D01*
X46280000Y-159000000D02*
X46280000Y-158370000D01*
X46280000Y-167460000D02*
X46280000Y-165000000D01*
X26160000Y-154420000D02*
G75*
G02*
X29496646Y-153433470I2030000J-730001D01*
G01*
X41500000Y-153450000D02*
G75*
G02*
X44825243Y-154411831I1310000J-1700000D01*
G01*
%TD*%
M02*
