%TF.GenerationSoftware,KiCad,Pcbnew,10.0.6*%
%TF.CreationDate,2026-09-20T13:38:56+08:00*%
%TF.ProjectId,LonoBadge,4c6f6e6f-4261-4646-9765-2e6b69636164,rev?*%
%TF.SameCoordinates,Original*%
%TF.FileFunction,Legend,Top*%
%TF.FilePolarity,Positive*%
%FSLAX46Y46*%
G04 Gerber Fmt 4.6, Leading zero omitted, Abs format (unit mm)*
G04 Created by KiCad (PCBNEW 10.0.6) date 2026-09-20 13:38:56*
%MOMM*%
%LPD*%
G01*
G04 APERTURE LIST*
%ADD10C,0.100000*%
%ADD11C,0.500000*%
%ADD12C,0.150000*%
%ADD13C,0.106680*%
%ADD14C,0.120000*%
%ADD15C,0.127000*%
%ADD16C,0.504000*%
G04 APERTURE END LIST*
D10*
X61256265Y-179086704D02*
X61732455Y-179086704D01*
X61161027Y-179372419D02*
X61494360Y-178372419D01*
X61494360Y-178372419D02*
X61827693Y-179372419D01*
X62161027Y-178705752D02*
X62161027Y-179372419D01*
X62161027Y-178800990D02*
X62208646Y-178753371D01*
X62208646Y-178753371D02*
X62303884Y-178705752D01*
X62303884Y-178705752D02*
X62446741Y-178705752D01*
X62446741Y-178705752D02*
X62541979Y-178753371D01*
X62541979Y-178753371D02*
X62589598Y-178848609D01*
X62589598Y-178848609D02*
X62589598Y-179372419D01*
X63494360Y-179372419D02*
X63494360Y-178848609D01*
X63494360Y-178848609D02*
X63446741Y-178753371D01*
X63446741Y-178753371D02*
X63351503Y-178705752D01*
X63351503Y-178705752D02*
X63161027Y-178705752D01*
X63161027Y-178705752D02*
X63065789Y-178753371D01*
X63494360Y-179324800D02*
X63399122Y-179372419D01*
X63399122Y-179372419D02*
X63161027Y-179372419D01*
X63161027Y-179372419D02*
X63065789Y-179324800D01*
X63065789Y-179324800D02*
X63018170Y-179229561D01*
X63018170Y-179229561D02*
X63018170Y-179134323D01*
X63018170Y-179134323D02*
X63065789Y-179039085D01*
X63065789Y-179039085D02*
X63161027Y-178991466D01*
X63161027Y-178991466D02*
X63399122Y-178991466D01*
X63399122Y-178991466D02*
X63494360Y-178943847D01*
X63922932Y-179324800D02*
X64018170Y-179372419D01*
X64018170Y-179372419D02*
X64208646Y-179372419D01*
X64208646Y-179372419D02*
X64303884Y-179324800D01*
X64303884Y-179324800D02*
X64351503Y-179229561D01*
X64351503Y-179229561D02*
X64351503Y-179181942D01*
X64351503Y-179181942D02*
X64303884Y-179086704D01*
X64303884Y-179086704D02*
X64208646Y-179039085D01*
X64208646Y-179039085D02*
X64065789Y-179039085D01*
X64065789Y-179039085D02*
X63970551Y-178991466D01*
X63970551Y-178991466D02*
X63922932Y-178896228D01*
X63922932Y-178896228D02*
X63922932Y-178848609D01*
X63922932Y-178848609D02*
X63970551Y-178753371D01*
X63970551Y-178753371D02*
X64065789Y-178705752D01*
X64065789Y-178705752D02*
X64208646Y-178705752D01*
X64208646Y-178705752D02*
X64303884Y-178753371D01*
X66113408Y-179277180D02*
X66065789Y-179324800D01*
X66065789Y-179324800D02*
X65922932Y-179372419D01*
X65922932Y-179372419D02*
X65827694Y-179372419D01*
X65827694Y-179372419D02*
X65684837Y-179324800D01*
X65684837Y-179324800D02*
X65589599Y-179229561D01*
X65589599Y-179229561D02*
X65541980Y-179134323D01*
X65541980Y-179134323D02*
X65494361Y-178943847D01*
X65494361Y-178943847D02*
X65494361Y-178800990D01*
X65494361Y-178800990D02*
X65541980Y-178610514D01*
X65541980Y-178610514D02*
X65589599Y-178515276D01*
X65589599Y-178515276D02*
X65684837Y-178420038D01*
X65684837Y-178420038D02*
X65827694Y-178372419D01*
X65827694Y-178372419D02*
X65922932Y-178372419D01*
X65922932Y-178372419D02*
X66065789Y-178420038D01*
X66065789Y-178420038D02*
X66113408Y-178467657D01*
X66541980Y-179372419D02*
X66541980Y-178705752D01*
X66541980Y-178896228D02*
X66589599Y-178800990D01*
X66589599Y-178800990D02*
X66637218Y-178753371D01*
X66637218Y-178753371D02*
X66732456Y-178705752D01*
X66732456Y-178705752D02*
X66827694Y-178705752D01*
X67541980Y-179324800D02*
X67446742Y-179372419D01*
X67446742Y-179372419D02*
X67256266Y-179372419D01*
X67256266Y-179372419D02*
X67161028Y-179324800D01*
X67161028Y-179324800D02*
X67113409Y-179229561D01*
X67113409Y-179229561D02*
X67113409Y-178848609D01*
X67113409Y-178848609D02*
X67161028Y-178753371D01*
X67161028Y-178753371D02*
X67256266Y-178705752D01*
X67256266Y-178705752D02*
X67446742Y-178705752D01*
X67446742Y-178705752D02*
X67541980Y-178753371D01*
X67541980Y-178753371D02*
X67589599Y-178848609D01*
X67589599Y-178848609D02*
X67589599Y-178943847D01*
X67589599Y-178943847D02*
X67113409Y-179039085D01*
X68446742Y-179372419D02*
X68446742Y-178848609D01*
X68446742Y-178848609D02*
X68399123Y-178753371D01*
X68399123Y-178753371D02*
X68303885Y-178705752D01*
X68303885Y-178705752D02*
X68113409Y-178705752D01*
X68113409Y-178705752D02*
X68018171Y-178753371D01*
X68446742Y-179324800D02*
X68351504Y-179372419D01*
X68351504Y-179372419D02*
X68113409Y-179372419D01*
X68113409Y-179372419D02*
X68018171Y-179324800D01*
X68018171Y-179324800D02*
X67970552Y-179229561D01*
X67970552Y-179229561D02*
X67970552Y-179134323D01*
X67970552Y-179134323D02*
X68018171Y-179039085D01*
X68018171Y-179039085D02*
X68113409Y-178991466D01*
X68113409Y-178991466D02*
X68351504Y-178991466D01*
X68351504Y-178991466D02*
X68446742Y-178943847D01*
X68780076Y-178705752D02*
X69161028Y-178705752D01*
X68922933Y-178372419D02*
X68922933Y-179229561D01*
X68922933Y-179229561D02*
X68970552Y-179324800D01*
X68970552Y-179324800D02*
X69065790Y-179372419D01*
X69065790Y-179372419D02*
X69161028Y-179372419D01*
X69494362Y-179372419D02*
X69494362Y-178705752D01*
X69494362Y-178372419D02*
X69446743Y-178420038D01*
X69446743Y-178420038D02*
X69494362Y-178467657D01*
X69494362Y-178467657D02*
X69541981Y-178420038D01*
X69541981Y-178420038D02*
X69494362Y-178372419D01*
X69494362Y-178372419D02*
X69494362Y-178467657D01*
X70113409Y-179372419D02*
X70018171Y-179324800D01*
X70018171Y-179324800D02*
X69970552Y-179277180D01*
X69970552Y-179277180D02*
X69922933Y-179181942D01*
X69922933Y-179181942D02*
X69922933Y-178896228D01*
X69922933Y-178896228D02*
X69970552Y-178800990D01*
X69970552Y-178800990D02*
X70018171Y-178753371D01*
X70018171Y-178753371D02*
X70113409Y-178705752D01*
X70113409Y-178705752D02*
X70256266Y-178705752D01*
X70256266Y-178705752D02*
X70351504Y-178753371D01*
X70351504Y-178753371D02*
X70399123Y-178800990D01*
X70399123Y-178800990D02*
X70446742Y-178896228D01*
X70446742Y-178896228D02*
X70446742Y-179181942D01*
X70446742Y-179181942D02*
X70399123Y-179277180D01*
X70399123Y-179277180D02*
X70351504Y-179324800D01*
X70351504Y-179324800D02*
X70256266Y-179372419D01*
X70256266Y-179372419D02*
X70113409Y-179372419D01*
X70875314Y-178705752D02*
X70875314Y-179372419D01*
X70875314Y-178800990D02*
X70922933Y-178753371D01*
X70922933Y-178753371D02*
X71018171Y-178705752D01*
X71018171Y-178705752D02*
X71161028Y-178705752D01*
X71161028Y-178705752D02*
X71256266Y-178753371D01*
X71256266Y-178753371D02*
X71303885Y-178848609D01*
X71303885Y-178848609D02*
X71303885Y-179372419D01*
X69303884Y-162727460D02*
X69351503Y-162775080D01*
X69351503Y-162775080D02*
X69303884Y-162822699D01*
X69303884Y-162822699D02*
X69256265Y-162775080D01*
X69256265Y-162775080D02*
X69303884Y-162727460D01*
X69303884Y-162727460D02*
X69303884Y-162822699D01*
X69780074Y-162727460D02*
X69827693Y-162775080D01*
X69827693Y-162775080D02*
X69780074Y-162822699D01*
X69780074Y-162822699D02*
X69732455Y-162775080D01*
X69732455Y-162775080D02*
X69780074Y-162727460D01*
X69780074Y-162727460D02*
X69780074Y-162822699D01*
X70256264Y-162727460D02*
X70303883Y-162775080D01*
X70303883Y-162775080D02*
X70256264Y-162822699D01*
X70256264Y-162822699D02*
X70208645Y-162775080D01*
X70208645Y-162775080D02*
X70256264Y-162727460D01*
X70256264Y-162727460D02*
X70256264Y-162822699D01*
X70732454Y-162727460D02*
X70780073Y-162775080D01*
X70780073Y-162775080D02*
X70732454Y-162822699D01*
X70732454Y-162822699D02*
X70684835Y-162775080D01*
X70684835Y-162775080D02*
X70732454Y-162727460D01*
X70732454Y-162727460D02*
X70732454Y-162822699D01*
X71970549Y-162727460D02*
X72018168Y-162775080D01*
X72018168Y-162775080D02*
X71970549Y-162822699D01*
X71970549Y-162822699D02*
X71922930Y-162775080D01*
X71922930Y-162775080D02*
X71970549Y-162727460D01*
X71970549Y-162727460D02*
X71970549Y-162822699D01*
X73922929Y-161775080D02*
X73065787Y-163060794D01*
X75018168Y-162727460D02*
X75065787Y-162775080D01*
X75065787Y-162775080D02*
X75018168Y-162822699D01*
X75018168Y-162822699D02*
X74970549Y-162775080D01*
X74970549Y-162775080D02*
X75018168Y-162727460D01*
X75018168Y-162727460D02*
X75018168Y-162822699D01*
X75494358Y-162441746D02*
X76256263Y-162441746D01*
X76732453Y-162441746D02*
X77494358Y-162441746D01*
X78732453Y-162727460D02*
X78780072Y-162775080D01*
X78780072Y-162775080D02*
X78732453Y-162822699D01*
X78732453Y-162822699D02*
X78684834Y-162775080D01*
X78684834Y-162775080D02*
X78732453Y-162727460D01*
X78732453Y-162727460D02*
X78732453Y-162822699D01*
X79208643Y-162727460D02*
X79256262Y-162775080D01*
X79256262Y-162775080D02*
X79208643Y-162822699D01*
X79208643Y-162822699D02*
X79161024Y-162775080D01*
X79161024Y-162775080D02*
X79208643Y-162727460D01*
X79208643Y-162727460D02*
X79208643Y-162822699D01*
X79684833Y-162727460D02*
X79732452Y-162775080D01*
X79732452Y-162775080D02*
X79684833Y-162822699D01*
X79684833Y-162822699D02*
X79637214Y-162775080D01*
X79637214Y-162775080D02*
X79684833Y-162727460D01*
X79684833Y-162727460D02*
X79684833Y-162822699D01*
X80161023Y-162727460D02*
X80208642Y-162775080D01*
X80208642Y-162775080D02*
X80161023Y-162822699D01*
X80161023Y-162822699D02*
X80113404Y-162775080D01*
X80113404Y-162775080D02*
X80161023Y-162727460D01*
X80161023Y-162727460D02*
X80161023Y-162822699D01*
X81399118Y-162441746D02*
X82161023Y-162441746D01*
X82637213Y-162441746D02*
X83399118Y-162441746D01*
X83875308Y-162441746D02*
X84637213Y-162441746D01*
X86589593Y-161775080D02*
X85732451Y-163060794D01*
X87684832Y-162727460D02*
X87732451Y-162775080D01*
X87732451Y-162775080D02*
X87684832Y-162822699D01*
X87684832Y-162822699D02*
X87637213Y-162775080D01*
X87637213Y-162775080D02*
X87684832Y-162727460D01*
X87684832Y-162727460D02*
X87684832Y-162822699D01*
X88161022Y-162727460D02*
X88208641Y-162775080D01*
X88208641Y-162775080D02*
X88161022Y-162822699D01*
X88161022Y-162822699D02*
X88113403Y-162775080D01*
X88113403Y-162775080D02*
X88161022Y-162727460D01*
X88161022Y-162727460D02*
X88161022Y-162822699D01*
X88637212Y-162727460D02*
X88684831Y-162775080D01*
X88684831Y-162775080D02*
X88637212Y-162822699D01*
X88637212Y-162822699D02*
X88589593Y-162775080D01*
X88589593Y-162775080D02*
X88637212Y-162727460D01*
X88637212Y-162727460D02*
X88637212Y-162822699D01*
X89875307Y-162727460D02*
X89922926Y-162775080D01*
X89922926Y-162775080D02*
X89875307Y-162822699D01*
X89875307Y-162822699D02*
X89827688Y-162775080D01*
X89827688Y-162775080D02*
X89875307Y-162727460D01*
X89875307Y-162727460D02*
X89875307Y-162822699D01*
X91113402Y-162727460D02*
X91161021Y-162775080D01*
X91161021Y-162775080D02*
X91113402Y-162822699D01*
X91113402Y-162822699D02*
X91065783Y-162775080D01*
X91065783Y-162775080D02*
X91113402Y-162727460D01*
X91113402Y-162727460D02*
X91113402Y-162822699D01*
X92351497Y-162441746D02*
X93113402Y-162441746D01*
X93589592Y-162727460D02*
X93637211Y-162775080D01*
X93637211Y-162775080D02*
X93589592Y-162822699D01*
X93589592Y-162822699D02*
X93541973Y-162775080D01*
X93541973Y-162775080D02*
X93589592Y-162727460D01*
X93589592Y-162727460D02*
X93589592Y-162822699D01*
X94065782Y-162441746D02*
X94827687Y-162441746D01*
X96065782Y-162727460D02*
X96113401Y-162775080D01*
X96113401Y-162775080D02*
X96065782Y-162822699D01*
X96065782Y-162822699D02*
X96018163Y-162775080D01*
X96018163Y-162775080D02*
X96065782Y-162727460D01*
X96065782Y-162727460D02*
X96065782Y-162822699D01*
X96541972Y-162727460D02*
X96589591Y-162775080D01*
X96589591Y-162775080D02*
X96541972Y-162822699D01*
X96541972Y-162822699D02*
X96494353Y-162775080D01*
X96494353Y-162775080D02*
X96541972Y-162727460D01*
X96541972Y-162727460D02*
X96541972Y-162822699D01*
X97018162Y-162727460D02*
X97065781Y-162775080D01*
X97065781Y-162775080D02*
X97018162Y-162822699D01*
X97018162Y-162822699D02*
X96970543Y-162775080D01*
X96970543Y-162775080D02*
X97018162Y-162727460D01*
X97018162Y-162727460D02*
X97018162Y-162822699D01*
X98970542Y-161775080D02*
X98113400Y-163060794D01*
X100065781Y-162441746D02*
X100827686Y-162441746D01*
X102065781Y-162727460D02*
X102113400Y-162775080D01*
X102113400Y-162775080D02*
X102065781Y-162822699D01*
X102065781Y-162822699D02*
X102018162Y-162775080D01*
X102018162Y-162775080D02*
X102065781Y-162727460D01*
X102065781Y-162727460D02*
X102065781Y-162822699D01*
X102541971Y-162727460D02*
X102589590Y-162775080D01*
X102589590Y-162775080D02*
X102541971Y-162822699D01*
X102541971Y-162822699D02*
X102494352Y-162775080D01*
X102494352Y-162775080D02*
X102541971Y-162727460D01*
X102541971Y-162727460D02*
X102541971Y-162822699D01*
X103018161Y-162727460D02*
X103065780Y-162775080D01*
X103065780Y-162775080D02*
X103018161Y-162822699D01*
X103018161Y-162822699D02*
X102970542Y-162775080D01*
X102970542Y-162775080D02*
X103018161Y-162727460D01*
X103018161Y-162727460D02*
X103018161Y-162822699D01*
X103494351Y-162727460D02*
X103541970Y-162775080D01*
X103541970Y-162775080D02*
X103494351Y-162822699D01*
X103494351Y-162822699D02*
X103446732Y-162775080D01*
X103446732Y-162775080D02*
X103494351Y-162727460D01*
X103494351Y-162727460D02*
X103494351Y-162822699D01*
X104732446Y-162727460D02*
X104780065Y-162775080D01*
X104780065Y-162775080D02*
X104732446Y-162822699D01*
X104732446Y-162822699D02*
X104684827Y-162775080D01*
X104684827Y-162775080D02*
X104732446Y-162727460D01*
X104732446Y-162727460D02*
X104732446Y-162822699D01*
X106684826Y-161775080D02*
X105827684Y-163060794D01*
X69303884Y-164051690D02*
X70065789Y-164051690D01*
X70541979Y-164337404D02*
X70589598Y-164385024D01*
X70589598Y-164385024D02*
X70541979Y-164432643D01*
X70541979Y-164432643D02*
X70494360Y-164385024D01*
X70494360Y-164385024D02*
X70541979Y-164337404D01*
X70541979Y-164337404D02*
X70541979Y-164432643D01*
X71018169Y-164337404D02*
X71065788Y-164385024D01*
X71065788Y-164385024D02*
X71018169Y-164432643D01*
X71018169Y-164432643D02*
X70970550Y-164385024D01*
X70970550Y-164385024D02*
X71018169Y-164337404D01*
X71018169Y-164337404D02*
X71018169Y-164432643D01*
X71494359Y-164337404D02*
X71541978Y-164385024D01*
X71541978Y-164385024D02*
X71494359Y-164432643D01*
X71494359Y-164432643D02*
X71446740Y-164385024D01*
X71446740Y-164385024D02*
X71494359Y-164337404D01*
X71494359Y-164337404D02*
X71494359Y-164432643D01*
X72732454Y-164337404D02*
X72780073Y-164385024D01*
X72780073Y-164385024D02*
X72732454Y-164432643D01*
X72732454Y-164432643D02*
X72684835Y-164385024D01*
X72684835Y-164385024D02*
X72732454Y-164337404D01*
X72732454Y-164337404D02*
X72732454Y-164432643D01*
X73970549Y-164337404D02*
X74018168Y-164385024D01*
X74018168Y-164385024D02*
X73970549Y-164432643D01*
X73970549Y-164432643D02*
X73922930Y-164385024D01*
X73922930Y-164385024D02*
X73970549Y-164337404D01*
X73970549Y-164337404D02*
X73970549Y-164432643D01*
X74446739Y-164337404D02*
X74494358Y-164385024D01*
X74494358Y-164385024D02*
X74446739Y-164432643D01*
X74446739Y-164432643D02*
X74399120Y-164385024D01*
X74399120Y-164385024D02*
X74446739Y-164337404D01*
X74446739Y-164337404D02*
X74446739Y-164432643D01*
X74922929Y-164337404D02*
X74970548Y-164385024D01*
X74970548Y-164385024D02*
X74922929Y-164432643D01*
X74922929Y-164432643D02*
X74875310Y-164385024D01*
X74875310Y-164385024D02*
X74922929Y-164337404D01*
X74922929Y-164337404D02*
X74922929Y-164432643D01*
X76161024Y-164051690D02*
X76922929Y-164051690D01*
X78875309Y-163385024D02*
X78018167Y-164670738D01*
X79970548Y-164337404D02*
X80018167Y-164385024D01*
X80018167Y-164385024D02*
X79970548Y-164432643D01*
X79970548Y-164432643D02*
X79922929Y-164385024D01*
X79922929Y-164385024D02*
X79970548Y-164337404D01*
X79970548Y-164337404D02*
X79970548Y-164432643D01*
X80446738Y-164051690D02*
X81208643Y-164051690D01*
X81684833Y-164051690D02*
X82446738Y-164051690D01*
X83684833Y-164337404D02*
X83732452Y-164385024D01*
X83732452Y-164385024D02*
X83684833Y-164432643D01*
X83684833Y-164432643D02*
X83637214Y-164385024D01*
X83637214Y-164385024D02*
X83684833Y-164337404D01*
X83684833Y-164337404D02*
X83684833Y-164432643D01*
X84161023Y-164337404D02*
X84208642Y-164385024D01*
X84208642Y-164385024D02*
X84161023Y-164432643D01*
X84161023Y-164432643D02*
X84113404Y-164385024D01*
X84113404Y-164385024D02*
X84161023Y-164337404D01*
X84161023Y-164337404D02*
X84161023Y-164432643D01*
X85399118Y-164337404D02*
X85446737Y-164385024D01*
X85446737Y-164385024D02*
X85399118Y-164432643D01*
X85399118Y-164432643D02*
X85351499Y-164385024D01*
X85351499Y-164385024D02*
X85399118Y-164337404D01*
X85399118Y-164337404D02*
X85399118Y-164432643D01*
X85875308Y-164051690D02*
X86637213Y-164051690D01*
X87113403Y-164337404D02*
X87161022Y-164385024D01*
X87161022Y-164385024D02*
X87113403Y-164432643D01*
X87113403Y-164432643D02*
X87065784Y-164385024D01*
X87065784Y-164385024D02*
X87113403Y-164337404D01*
X87113403Y-164337404D02*
X87113403Y-164432643D01*
X87589593Y-164337404D02*
X87637212Y-164385024D01*
X87637212Y-164385024D02*
X87589593Y-164432643D01*
X87589593Y-164432643D02*
X87541974Y-164385024D01*
X87541974Y-164385024D02*
X87589593Y-164337404D01*
X87589593Y-164337404D02*
X87589593Y-164432643D01*
X88827688Y-164337404D02*
X88875307Y-164385024D01*
X88875307Y-164385024D02*
X88827688Y-164432643D01*
X88827688Y-164432643D02*
X88780069Y-164385024D01*
X88780069Y-164385024D02*
X88827688Y-164337404D01*
X88827688Y-164337404D02*
X88827688Y-164432643D01*
X89303878Y-164051690D02*
X90065783Y-164051690D01*
X90541973Y-164337404D02*
X90589592Y-164385024D01*
X90589592Y-164385024D02*
X90541973Y-164432643D01*
X90541973Y-164432643D02*
X90494354Y-164385024D01*
X90494354Y-164385024D02*
X90541973Y-164337404D01*
X90541973Y-164337404D02*
X90541973Y-164432643D01*
X91018163Y-164337404D02*
X91065782Y-164385024D01*
X91065782Y-164385024D02*
X91018163Y-164432643D01*
X91018163Y-164432643D02*
X90970544Y-164385024D01*
X90970544Y-164385024D02*
X91018163Y-164337404D01*
X91018163Y-164337404D02*
X91018163Y-164432643D01*
X92970543Y-163385024D02*
X92113401Y-164670738D01*
X94065782Y-164051690D02*
X94827687Y-164051690D01*
X95303877Y-164337404D02*
X95351496Y-164385024D01*
X95351496Y-164385024D02*
X95303877Y-164432643D01*
X95303877Y-164432643D02*
X95256258Y-164385024D01*
X95256258Y-164385024D02*
X95303877Y-164337404D01*
X95303877Y-164337404D02*
X95303877Y-164432643D01*
X96541972Y-164051690D02*
X97303877Y-164051690D01*
X97780067Y-164051690D02*
X98541972Y-164051690D01*
X99018162Y-164051690D02*
X99780067Y-164051690D01*
X101018162Y-164051690D02*
X101780067Y-164051690D01*
X103732447Y-163385024D02*
X102875305Y-164670738D01*
X69303884Y-165947348D02*
X69351503Y-165994968D01*
X69351503Y-165994968D02*
X69303884Y-166042587D01*
X69303884Y-166042587D02*
X69256265Y-165994968D01*
X69256265Y-165994968D02*
X69303884Y-165947348D01*
X69303884Y-165947348D02*
X69303884Y-166042587D01*
X69780074Y-165661634D02*
X70541979Y-165661634D01*
X71780074Y-165947348D02*
X71827693Y-165994968D01*
X71827693Y-165994968D02*
X71780074Y-166042587D01*
X71780074Y-166042587D02*
X71732455Y-165994968D01*
X71732455Y-165994968D02*
X71780074Y-165947348D01*
X71780074Y-165947348D02*
X71780074Y-166042587D01*
X72256264Y-165661634D02*
X73018169Y-165661634D01*
X73494359Y-165947348D02*
X73541978Y-165994968D01*
X73541978Y-165994968D02*
X73494359Y-166042587D01*
X73494359Y-166042587D02*
X73446740Y-165994968D01*
X73446740Y-165994968D02*
X73494359Y-165947348D01*
X73494359Y-165947348D02*
X73494359Y-166042587D01*
X73970549Y-165947348D02*
X74018168Y-165994968D01*
X74018168Y-165994968D02*
X73970549Y-166042587D01*
X73970549Y-166042587D02*
X73922930Y-165994968D01*
X73922930Y-165994968D02*
X73970549Y-165947348D01*
X73970549Y-165947348D02*
X73970549Y-166042587D01*
X75208644Y-165947348D02*
X75256263Y-165994968D01*
X75256263Y-165994968D02*
X75208644Y-166042587D01*
X75208644Y-166042587D02*
X75161025Y-165994968D01*
X75161025Y-165994968D02*
X75208644Y-165947348D01*
X75208644Y-165947348D02*
X75208644Y-166042587D01*
X75684834Y-165661634D02*
X76446739Y-165661634D01*
X76922929Y-165661634D02*
X77684834Y-165661634D01*
X78922929Y-165947348D02*
X78970548Y-165994968D01*
X78970548Y-165994968D02*
X78922929Y-166042587D01*
X78922929Y-166042587D02*
X78875310Y-165994968D01*
X78875310Y-165994968D02*
X78922929Y-165947348D01*
X78922929Y-165947348D02*
X78922929Y-166042587D01*
X79399119Y-165661634D02*
X80161024Y-165661634D01*
X81399119Y-165661634D02*
X82161024Y-165661634D01*
X82637214Y-165947348D02*
X82684833Y-165994968D01*
X82684833Y-165994968D02*
X82637214Y-166042587D01*
X82637214Y-166042587D02*
X82589595Y-165994968D01*
X82589595Y-165994968D02*
X82637214Y-165947348D01*
X82637214Y-165947348D02*
X82637214Y-166042587D01*
X83113404Y-165661634D02*
X83875309Y-165661634D01*
X84351499Y-165661634D02*
X85113404Y-165661634D01*
X86351499Y-165947348D02*
X86399118Y-165994968D01*
X86399118Y-165994968D02*
X86351499Y-166042587D01*
X86351499Y-166042587D02*
X86303880Y-165994968D01*
X86303880Y-165994968D02*
X86351499Y-165947348D01*
X86351499Y-165947348D02*
X86351499Y-166042587D01*
X86827689Y-165947348D02*
X86875308Y-165994968D01*
X86875308Y-165994968D02*
X86827689Y-166042587D01*
X86827689Y-166042587D02*
X86780070Y-165994968D01*
X86780070Y-165994968D02*
X86827689Y-165947348D01*
X86827689Y-165947348D02*
X86827689Y-166042587D01*
X87303879Y-165947348D02*
X87351498Y-165994968D01*
X87351498Y-165994968D02*
X87303879Y-166042587D01*
X87303879Y-166042587D02*
X87256260Y-165994968D01*
X87256260Y-165994968D02*
X87303879Y-165947348D01*
X87303879Y-165947348D02*
X87303879Y-166042587D01*
X89256259Y-164994968D02*
X88399117Y-166280682D01*
X90351498Y-165947348D02*
X90399117Y-165994968D01*
X90399117Y-165994968D02*
X90351498Y-166042587D01*
X90351498Y-166042587D02*
X90303879Y-165994968D01*
X90303879Y-165994968D02*
X90351498Y-165947348D01*
X90351498Y-165947348D02*
X90351498Y-166042587D01*
X90827688Y-165947348D02*
X90875307Y-165994968D01*
X90875307Y-165994968D02*
X90827688Y-166042587D01*
X90827688Y-166042587D02*
X90780069Y-165994968D01*
X90780069Y-165994968D02*
X90827688Y-165947348D01*
X90827688Y-165947348D02*
X90827688Y-166042587D01*
X91303878Y-165661634D02*
X92065783Y-165661634D01*
X92541973Y-165947348D02*
X92589592Y-165994968D01*
X92589592Y-165994968D02*
X92541973Y-166042587D01*
X92541973Y-166042587D02*
X92494354Y-165994968D01*
X92494354Y-165994968D02*
X92541973Y-165947348D01*
X92541973Y-165947348D02*
X92541973Y-166042587D01*
X93780068Y-165661634D02*
X94541973Y-165661634D01*
X95018163Y-165661634D02*
X95780068Y-165661634D01*
X96256258Y-165661634D02*
X97018163Y-165661634D01*
X98256258Y-165947348D02*
X98303877Y-165994968D01*
X98303877Y-165994968D02*
X98256258Y-166042587D01*
X98256258Y-166042587D02*
X98208639Y-165994968D01*
X98208639Y-165994968D02*
X98256258Y-165947348D01*
X98256258Y-165947348D02*
X98256258Y-166042587D01*
X98732448Y-165947348D02*
X98780067Y-165994968D01*
X98780067Y-165994968D02*
X98732448Y-166042587D01*
X98732448Y-166042587D02*
X98684829Y-165994968D01*
X98684829Y-165994968D02*
X98732448Y-165947348D01*
X98732448Y-165947348D02*
X98732448Y-166042587D01*
X99208638Y-165661634D02*
X99970543Y-165661634D01*
X101208638Y-165661634D02*
X101970543Y-165661634D01*
X102446733Y-165947348D02*
X102494352Y-165994968D01*
X102494352Y-165994968D02*
X102446733Y-166042587D01*
X102446733Y-166042587D02*
X102399114Y-165994968D01*
X102399114Y-165994968D02*
X102446733Y-165947348D01*
X102446733Y-165947348D02*
X102446733Y-166042587D01*
X103684828Y-165661634D02*
X104446733Y-165661634D01*
X104922923Y-165947348D02*
X104970542Y-165994968D01*
X104970542Y-165994968D02*
X104922923Y-166042587D01*
X104922923Y-166042587D02*
X104875304Y-165994968D01*
X104875304Y-165994968D02*
X104922923Y-165947348D01*
X104922923Y-165947348D02*
X104922923Y-166042587D01*
X105399113Y-165947348D02*
X105446732Y-165994968D01*
X105446732Y-165994968D02*
X105399113Y-166042587D01*
X105399113Y-166042587D02*
X105351494Y-165994968D01*
X105351494Y-165994968D02*
X105399113Y-165947348D01*
X105399113Y-165947348D02*
X105399113Y-166042587D01*
X107351493Y-164994968D02*
X106494351Y-166280682D01*
X108446732Y-165661634D02*
X109208637Y-165661634D01*
X110446732Y-165947348D02*
X110494351Y-165994968D01*
X110494351Y-165994968D02*
X110446732Y-166042587D01*
X110446732Y-166042587D02*
X110399113Y-165994968D01*
X110399113Y-165994968D02*
X110446732Y-165947348D01*
X110446732Y-165947348D02*
X110446732Y-166042587D01*
X110922922Y-165947348D02*
X110970541Y-165994968D01*
X110970541Y-165994968D02*
X110922922Y-166042587D01*
X110922922Y-166042587D02*
X110875303Y-165994968D01*
X110875303Y-165994968D02*
X110922922Y-165947348D01*
X110922922Y-165947348D02*
X110922922Y-166042587D01*
X111399112Y-165947348D02*
X111446731Y-165994968D01*
X111446731Y-165994968D02*
X111399112Y-166042587D01*
X111399112Y-166042587D02*
X111351493Y-165994968D01*
X111351493Y-165994968D02*
X111399112Y-165947348D01*
X111399112Y-165947348D02*
X111399112Y-166042587D01*
X111875302Y-165947348D02*
X111922921Y-165994968D01*
X111922921Y-165994968D02*
X111875302Y-166042587D01*
X111875302Y-166042587D02*
X111827683Y-165994968D01*
X111827683Y-165994968D02*
X111875302Y-165947348D01*
X111875302Y-165947348D02*
X111875302Y-166042587D01*
X113113397Y-165947348D02*
X113161016Y-165994968D01*
X113161016Y-165994968D02*
X113113397Y-166042587D01*
X113113397Y-166042587D02*
X113065778Y-165994968D01*
X113065778Y-165994968D02*
X113113397Y-165947348D01*
X113113397Y-165947348D02*
X113113397Y-166042587D01*
X115065777Y-164994968D02*
X114208635Y-166280682D01*
X69303884Y-167271578D02*
X70065789Y-167271578D01*
X70541979Y-167557292D02*
X70589598Y-167604912D01*
X70589598Y-167604912D02*
X70541979Y-167652531D01*
X70541979Y-167652531D02*
X70494360Y-167604912D01*
X70494360Y-167604912D02*
X70541979Y-167557292D01*
X70541979Y-167557292D02*
X70541979Y-167652531D01*
X71018169Y-167557292D02*
X71065788Y-167604912D01*
X71065788Y-167604912D02*
X71018169Y-167652531D01*
X71018169Y-167652531D02*
X70970550Y-167604912D01*
X70970550Y-167604912D02*
X71018169Y-167557292D01*
X71018169Y-167557292D02*
X71018169Y-167652531D01*
X71494359Y-167557292D02*
X71541978Y-167604912D01*
X71541978Y-167604912D02*
X71494359Y-167652531D01*
X71494359Y-167652531D02*
X71446740Y-167604912D01*
X71446740Y-167604912D02*
X71494359Y-167557292D01*
X71494359Y-167557292D02*
X71494359Y-167652531D01*
X72732454Y-167557292D02*
X72780073Y-167604912D01*
X72780073Y-167604912D02*
X72732454Y-167652531D01*
X72732454Y-167652531D02*
X72684835Y-167604912D01*
X72684835Y-167604912D02*
X72732454Y-167557292D01*
X72732454Y-167557292D02*
X72732454Y-167652531D01*
X73970549Y-167557292D02*
X74018168Y-167604912D01*
X74018168Y-167604912D02*
X73970549Y-167652531D01*
X73970549Y-167652531D02*
X73922930Y-167604912D01*
X73922930Y-167604912D02*
X73970549Y-167557292D01*
X73970549Y-167557292D02*
X73970549Y-167652531D01*
X74446739Y-167557292D02*
X74494358Y-167604912D01*
X74494358Y-167604912D02*
X74446739Y-167652531D01*
X74446739Y-167652531D02*
X74399120Y-167604912D01*
X74399120Y-167604912D02*
X74446739Y-167557292D01*
X74446739Y-167557292D02*
X74446739Y-167652531D01*
X74922929Y-167557292D02*
X74970548Y-167604912D01*
X74970548Y-167604912D02*
X74922929Y-167652531D01*
X74922929Y-167652531D02*
X74875310Y-167604912D01*
X74875310Y-167604912D02*
X74922929Y-167557292D01*
X74922929Y-167557292D02*
X74922929Y-167652531D01*
X76161024Y-167271578D02*
X76922929Y-167271578D01*
X78161024Y-167271578D02*
X78922929Y-167271578D01*
X79399119Y-167271578D02*
X80161024Y-167271578D01*
X80637214Y-167557292D02*
X80684833Y-167604912D01*
X80684833Y-167604912D02*
X80637214Y-167652531D01*
X80637214Y-167652531D02*
X80589595Y-167604912D01*
X80589595Y-167604912D02*
X80637214Y-167557292D01*
X80637214Y-167557292D02*
X80637214Y-167652531D01*
X81113404Y-167557292D02*
X81161023Y-167604912D01*
X81161023Y-167604912D02*
X81113404Y-167652531D01*
X81113404Y-167652531D02*
X81065785Y-167604912D01*
X81065785Y-167604912D02*
X81113404Y-167557292D01*
X81113404Y-167557292D02*
X81113404Y-167652531D01*
X81589594Y-167271578D02*
X82351499Y-167271578D01*
X82827689Y-167271578D02*
X83589594Y-167271578D01*
X85541974Y-166604912D02*
X84684832Y-167890626D01*
X86637213Y-167557292D02*
X86684832Y-167604912D01*
X86684832Y-167604912D02*
X86637213Y-167652531D01*
X86637213Y-167652531D02*
X86589594Y-167604912D01*
X86589594Y-167604912D02*
X86637213Y-167557292D01*
X86637213Y-167557292D02*
X86637213Y-167652531D01*
X87113403Y-167557292D02*
X87161022Y-167604912D01*
X87161022Y-167604912D02*
X87113403Y-167652531D01*
X87113403Y-167652531D02*
X87065784Y-167604912D01*
X87065784Y-167604912D02*
X87113403Y-167557292D01*
X87113403Y-167557292D02*
X87113403Y-167652531D01*
X87589593Y-167557292D02*
X87637212Y-167604912D01*
X87637212Y-167604912D02*
X87589593Y-167652531D01*
X87589593Y-167652531D02*
X87541974Y-167604912D01*
X87541974Y-167604912D02*
X87589593Y-167557292D01*
X87589593Y-167557292D02*
X87589593Y-167652531D01*
X88065783Y-167557292D02*
X88113402Y-167604912D01*
X88113402Y-167604912D02*
X88065783Y-167652531D01*
X88065783Y-167652531D02*
X88018164Y-167604912D01*
X88018164Y-167604912D02*
X88065783Y-167557292D01*
X88065783Y-167557292D02*
X88065783Y-167652531D01*
X89303878Y-167557292D02*
X89351497Y-167604912D01*
X89351497Y-167604912D02*
X89303878Y-167652531D01*
X89303878Y-167652531D02*
X89256259Y-167604912D01*
X89256259Y-167604912D02*
X89303878Y-167557292D01*
X89303878Y-167557292D02*
X89303878Y-167652531D01*
X91256258Y-166604912D02*
X90399116Y-167890626D01*
X92351497Y-167557292D02*
X92399116Y-167604912D01*
X92399116Y-167604912D02*
X92351497Y-167652531D01*
X92351497Y-167652531D02*
X92303878Y-167604912D01*
X92303878Y-167604912D02*
X92351497Y-167557292D01*
X92351497Y-167557292D02*
X92351497Y-167652531D01*
X92827687Y-167271578D02*
X93589592Y-167271578D01*
X94065782Y-167271578D02*
X94827687Y-167271578D01*
X96065782Y-167557292D02*
X96113401Y-167604912D01*
X96113401Y-167604912D02*
X96065782Y-167652531D01*
X96065782Y-167652531D02*
X96018163Y-167604912D01*
X96018163Y-167604912D02*
X96065782Y-167557292D01*
X96065782Y-167557292D02*
X96065782Y-167652531D01*
X96541972Y-167557292D02*
X96589591Y-167604912D01*
X96589591Y-167604912D02*
X96541972Y-167652531D01*
X96541972Y-167652531D02*
X96494353Y-167604912D01*
X96494353Y-167604912D02*
X96541972Y-167557292D01*
X96541972Y-167557292D02*
X96541972Y-167652531D01*
X97018162Y-167557292D02*
X97065781Y-167604912D01*
X97065781Y-167604912D02*
X97018162Y-167652531D01*
X97018162Y-167652531D02*
X96970543Y-167604912D01*
X96970543Y-167604912D02*
X97018162Y-167557292D01*
X97018162Y-167557292D02*
X97018162Y-167652531D01*
X97494352Y-167557292D02*
X97541971Y-167604912D01*
X97541971Y-167604912D02*
X97494352Y-167652531D01*
X97494352Y-167652531D02*
X97446733Y-167604912D01*
X97446733Y-167604912D02*
X97494352Y-167557292D01*
X97494352Y-167557292D02*
X97494352Y-167652531D01*
X98732447Y-167271578D02*
X99494352Y-167271578D01*
X99970542Y-167271578D02*
X100732447Y-167271578D01*
X101208637Y-167271578D02*
X101970542Y-167271578D01*
X103922922Y-166604912D02*
X103065780Y-167890626D01*
X69303884Y-168881522D02*
X70065789Y-168881522D01*
X71303884Y-169167236D02*
X71351503Y-169214856D01*
X71351503Y-169214856D02*
X71303884Y-169262475D01*
X71303884Y-169262475D02*
X71256265Y-169214856D01*
X71256265Y-169214856D02*
X71303884Y-169167236D01*
X71303884Y-169167236D02*
X71303884Y-169262475D01*
X71780074Y-169167236D02*
X71827693Y-169214856D01*
X71827693Y-169214856D02*
X71780074Y-169262475D01*
X71780074Y-169262475D02*
X71732455Y-169214856D01*
X71732455Y-169214856D02*
X71780074Y-169167236D01*
X71780074Y-169167236D02*
X71780074Y-169262475D01*
X72256264Y-169167236D02*
X72303883Y-169214856D01*
X72303883Y-169214856D02*
X72256264Y-169262475D01*
X72256264Y-169262475D02*
X72208645Y-169214856D01*
X72208645Y-169214856D02*
X72256264Y-169167236D01*
X72256264Y-169167236D02*
X72256264Y-169262475D01*
X72732454Y-169167236D02*
X72780073Y-169214856D01*
X72780073Y-169214856D02*
X72732454Y-169262475D01*
X72732454Y-169262475D02*
X72684835Y-169214856D01*
X72684835Y-169214856D02*
X72732454Y-169167236D01*
X72732454Y-169167236D02*
X72732454Y-169262475D01*
X73970549Y-169167236D02*
X74018168Y-169214856D01*
X74018168Y-169214856D02*
X73970549Y-169262475D01*
X73970549Y-169262475D02*
X73922930Y-169214856D01*
X73922930Y-169214856D02*
X73970549Y-169167236D01*
X73970549Y-169167236D02*
X73970549Y-169262475D01*
X74446739Y-169167236D02*
X74494358Y-169214856D01*
X74494358Y-169214856D02*
X74446739Y-169262475D01*
X74446739Y-169262475D02*
X74399120Y-169214856D01*
X74399120Y-169214856D02*
X74446739Y-169167236D01*
X74446739Y-169167236D02*
X74446739Y-169262475D01*
X75684834Y-168881522D02*
X76446739Y-168881522D01*
X76922929Y-169167236D02*
X76970548Y-169214856D01*
X76970548Y-169214856D02*
X76922929Y-169262475D01*
X76922929Y-169262475D02*
X76875310Y-169214856D01*
X76875310Y-169214856D02*
X76922929Y-169167236D01*
X76922929Y-169167236D02*
X76922929Y-169262475D01*
X78161024Y-168881522D02*
X78922929Y-168881522D01*
X79399119Y-169167236D02*
X79446738Y-169214856D01*
X79446738Y-169214856D02*
X79399119Y-169262475D01*
X79399119Y-169262475D02*
X79351500Y-169214856D01*
X79351500Y-169214856D02*
X79399119Y-169167236D01*
X79399119Y-169167236D02*
X79399119Y-169262475D01*
X79875309Y-168881522D02*
X80637214Y-168881522D01*
X81875309Y-169167236D02*
X81922928Y-169214856D01*
X81922928Y-169214856D02*
X81875309Y-169262475D01*
X81875309Y-169262475D02*
X81827690Y-169214856D01*
X81827690Y-169214856D02*
X81875309Y-169167236D01*
X81875309Y-169167236D02*
X81875309Y-169262475D01*
X82351499Y-169167236D02*
X82399118Y-169214856D01*
X82399118Y-169214856D02*
X82351499Y-169262475D01*
X82351499Y-169262475D02*
X82303880Y-169214856D01*
X82303880Y-169214856D02*
X82351499Y-169167236D01*
X82351499Y-169167236D02*
X82351499Y-169262475D01*
X82827689Y-169167236D02*
X82875308Y-169214856D01*
X82875308Y-169214856D02*
X82827689Y-169262475D01*
X82827689Y-169262475D02*
X82780070Y-169214856D01*
X82780070Y-169214856D02*
X82827689Y-169167236D01*
X82827689Y-169167236D02*
X82827689Y-169262475D01*
X84780069Y-168214856D02*
X83922927Y-169500570D01*
X85875308Y-168881522D02*
X86637213Y-168881522D01*
X87875308Y-169167236D02*
X87922927Y-169214856D01*
X87922927Y-169214856D02*
X87875308Y-169262475D01*
X87875308Y-169262475D02*
X87827689Y-169214856D01*
X87827689Y-169214856D02*
X87875308Y-169167236D01*
X87875308Y-169167236D02*
X87875308Y-169262475D01*
X88351498Y-169167236D02*
X88399117Y-169214856D01*
X88399117Y-169214856D02*
X88351498Y-169262475D01*
X88351498Y-169262475D02*
X88303879Y-169214856D01*
X88303879Y-169214856D02*
X88351498Y-169167236D01*
X88351498Y-169167236D02*
X88351498Y-169262475D01*
X88827688Y-169167236D02*
X88875307Y-169214856D01*
X88875307Y-169214856D02*
X88827688Y-169262475D01*
X88827688Y-169262475D02*
X88780069Y-169214856D01*
X88780069Y-169214856D02*
X88827688Y-169167236D01*
X88827688Y-169167236D02*
X88827688Y-169262475D01*
X89303878Y-169167236D02*
X89351497Y-169214856D01*
X89351497Y-169214856D02*
X89303878Y-169262475D01*
X89303878Y-169262475D02*
X89256259Y-169214856D01*
X89256259Y-169214856D02*
X89303878Y-169167236D01*
X89303878Y-169167236D02*
X89303878Y-169262475D01*
X90541973Y-169167236D02*
X90589592Y-169214856D01*
X90589592Y-169214856D02*
X90541973Y-169262475D01*
X90541973Y-169262475D02*
X90494354Y-169214856D01*
X90494354Y-169214856D02*
X90541973Y-169167236D01*
X90541973Y-169167236D02*
X90541973Y-169262475D01*
X92494353Y-168214856D02*
X91637211Y-169500570D01*
X93589592Y-169167236D02*
X93637211Y-169214856D01*
X93637211Y-169214856D02*
X93589592Y-169262475D01*
X93589592Y-169262475D02*
X93541973Y-169214856D01*
X93541973Y-169214856D02*
X93589592Y-169167236D01*
X93589592Y-169167236D02*
X93589592Y-169262475D01*
X94065782Y-168881522D02*
X94827687Y-168881522D01*
X95303877Y-168881522D02*
X96065782Y-168881522D01*
X97303877Y-168881522D02*
X98065782Y-168881522D01*
X98541972Y-168881522D02*
X99303877Y-168881522D01*
X99780067Y-168881522D02*
X100541972Y-168881522D01*
X101780067Y-169167236D02*
X101827686Y-169214856D01*
X101827686Y-169214856D02*
X101780067Y-169262475D01*
X101780067Y-169262475D02*
X101732448Y-169214856D01*
X101732448Y-169214856D02*
X101780067Y-169167236D01*
X101780067Y-169167236D02*
X101780067Y-169262475D01*
X102256257Y-168881522D02*
X103018162Y-168881522D01*
X103494352Y-169167236D02*
X103541971Y-169214856D01*
X103541971Y-169214856D02*
X103494352Y-169262475D01*
X103494352Y-169262475D02*
X103446733Y-169214856D01*
X103446733Y-169214856D02*
X103494352Y-169167236D01*
X103494352Y-169167236D02*
X103494352Y-169262475D01*
X104732447Y-169167236D02*
X104780066Y-169214856D01*
X104780066Y-169214856D02*
X104732447Y-169262475D01*
X104732447Y-169262475D02*
X104684828Y-169214856D01*
X104684828Y-169214856D02*
X104732447Y-169167236D01*
X104732447Y-169167236D02*
X104732447Y-169262475D01*
X105208637Y-169167236D02*
X105256256Y-169214856D01*
X105256256Y-169214856D02*
X105208637Y-169262475D01*
X105208637Y-169262475D02*
X105161018Y-169214856D01*
X105161018Y-169214856D02*
X105208637Y-169167236D01*
X105208637Y-169167236D02*
X105208637Y-169262475D01*
X105684827Y-169167236D02*
X105732446Y-169214856D01*
X105732446Y-169214856D02*
X105684827Y-169262475D01*
X105684827Y-169262475D02*
X105637208Y-169214856D01*
X105637208Y-169214856D02*
X105684827Y-169167236D01*
X105684827Y-169167236D02*
X105684827Y-169262475D01*
X106922922Y-169167236D02*
X106970541Y-169214856D01*
X106970541Y-169214856D02*
X106922922Y-169262475D01*
X106922922Y-169262475D02*
X106875303Y-169214856D01*
X106875303Y-169214856D02*
X106922922Y-169167236D01*
X106922922Y-169167236D02*
X106922922Y-169262475D01*
X108875302Y-168214856D02*
X108018160Y-169500570D01*
X69303884Y-170777180D02*
X69351503Y-170824800D01*
X69351503Y-170824800D02*
X69303884Y-170872419D01*
X69303884Y-170872419D02*
X69256265Y-170824800D01*
X69256265Y-170824800D02*
X69303884Y-170777180D01*
X69303884Y-170777180D02*
X69303884Y-170872419D01*
X69780074Y-170491466D02*
X70541979Y-170491466D01*
X71018169Y-170491466D02*
X71780074Y-170491466D01*
X73018169Y-170777180D02*
X73065788Y-170824800D01*
X73065788Y-170824800D02*
X73018169Y-170872419D01*
X73018169Y-170872419D02*
X72970550Y-170824800D01*
X72970550Y-170824800D02*
X73018169Y-170777180D01*
X73018169Y-170777180D02*
X73018169Y-170872419D01*
X73494359Y-170777180D02*
X73541978Y-170824800D01*
X73541978Y-170824800D02*
X73494359Y-170872419D01*
X73494359Y-170872419D02*
X73446740Y-170824800D01*
X73446740Y-170824800D02*
X73494359Y-170777180D01*
X73494359Y-170777180D02*
X73494359Y-170872419D01*
X74732454Y-170777180D02*
X74780073Y-170824800D01*
X74780073Y-170824800D02*
X74732454Y-170872419D01*
X74732454Y-170872419D02*
X74684835Y-170824800D01*
X74684835Y-170824800D02*
X74732454Y-170777180D01*
X74732454Y-170777180D02*
X74732454Y-170872419D01*
X75208644Y-170491466D02*
X75970549Y-170491466D01*
X76446739Y-170777180D02*
X76494358Y-170824800D01*
X76494358Y-170824800D02*
X76446739Y-170872419D01*
X76446739Y-170872419D02*
X76399120Y-170824800D01*
X76399120Y-170824800D02*
X76446739Y-170777180D01*
X76446739Y-170777180D02*
X76446739Y-170872419D01*
X76922929Y-170777180D02*
X76970548Y-170824800D01*
X76970548Y-170824800D02*
X76922929Y-170872419D01*
X76922929Y-170872419D02*
X76875310Y-170824800D01*
X76875310Y-170824800D02*
X76922929Y-170777180D01*
X76922929Y-170777180D02*
X76922929Y-170872419D01*
X78161024Y-170777180D02*
X78208643Y-170824800D01*
X78208643Y-170824800D02*
X78161024Y-170872419D01*
X78161024Y-170872419D02*
X78113405Y-170824800D01*
X78113405Y-170824800D02*
X78161024Y-170777180D01*
X78161024Y-170777180D02*
X78161024Y-170872419D01*
X78637214Y-170491466D02*
X79399119Y-170491466D01*
X79875309Y-170777180D02*
X79922928Y-170824800D01*
X79922928Y-170824800D02*
X79875309Y-170872419D01*
X79875309Y-170872419D02*
X79827690Y-170824800D01*
X79827690Y-170824800D02*
X79875309Y-170777180D01*
X79875309Y-170777180D02*
X79875309Y-170872419D01*
X80351499Y-170777180D02*
X80399118Y-170824800D01*
X80399118Y-170824800D02*
X80351499Y-170872419D01*
X80351499Y-170872419D02*
X80303880Y-170824800D01*
X80303880Y-170824800D02*
X80351499Y-170777180D01*
X80351499Y-170777180D02*
X80351499Y-170872419D01*
X82303879Y-169824800D02*
X81446737Y-171110514D01*
X83399118Y-170491466D02*
X84161023Y-170491466D01*
X84637213Y-170491466D02*
X85399118Y-170491466D01*
X85875308Y-170777180D02*
X85922927Y-170824800D01*
X85922927Y-170824800D02*
X85875308Y-170872419D01*
X85875308Y-170872419D02*
X85827689Y-170824800D01*
X85827689Y-170824800D02*
X85875308Y-170777180D01*
X85875308Y-170777180D02*
X85875308Y-170872419D01*
X87113403Y-170777180D02*
X87161022Y-170824800D01*
X87161022Y-170824800D02*
X87113403Y-170872419D01*
X87113403Y-170872419D02*
X87065784Y-170824800D01*
X87065784Y-170824800D02*
X87113403Y-170777180D01*
X87113403Y-170777180D02*
X87113403Y-170872419D01*
X88351498Y-170491466D02*
X89113403Y-170491466D01*
X91065783Y-169824800D02*
X90208641Y-171110514D01*
X92161022Y-170491466D02*
X92922927Y-170491466D01*
X94161022Y-170777180D02*
X94208641Y-170824800D01*
X94208641Y-170824800D02*
X94161022Y-170872419D01*
X94161022Y-170872419D02*
X94113403Y-170824800D01*
X94113403Y-170824800D02*
X94161022Y-170777180D01*
X94161022Y-170777180D02*
X94161022Y-170872419D01*
X94637212Y-170777180D02*
X94684831Y-170824800D01*
X94684831Y-170824800D02*
X94637212Y-170872419D01*
X94637212Y-170872419D02*
X94589593Y-170824800D01*
X94589593Y-170824800D02*
X94637212Y-170777180D01*
X94637212Y-170777180D02*
X94637212Y-170872419D01*
X95113402Y-170777180D02*
X95161021Y-170824800D01*
X95161021Y-170824800D02*
X95113402Y-170872419D01*
X95113402Y-170872419D02*
X95065783Y-170824800D01*
X95065783Y-170824800D02*
X95113402Y-170777180D01*
X95113402Y-170777180D02*
X95113402Y-170872419D01*
X95589592Y-170777180D02*
X95637211Y-170824800D01*
X95637211Y-170824800D02*
X95589592Y-170872419D01*
X95589592Y-170872419D02*
X95541973Y-170824800D01*
X95541973Y-170824800D02*
X95589592Y-170777180D01*
X95589592Y-170777180D02*
X95589592Y-170872419D01*
X96827687Y-170777180D02*
X96875306Y-170824800D01*
X96875306Y-170824800D02*
X96827687Y-170872419D01*
X96827687Y-170872419D02*
X96780068Y-170824800D01*
X96780068Y-170824800D02*
X96827687Y-170777180D01*
X96827687Y-170777180D02*
X96827687Y-170872419D01*
X98780067Y-169824800D02*
X97922925Y-171110514D01*
X99875306Y-170777180D02*
X99922925Y-170824800D01*
X99922925Y-170824800D02*
X99875306Y-170872419D01*
X99875306Y-170872419D02*
X99827687Y-170824800D01*
X99827687Y-170824800D02*
X99875306Y-170777180D01*
X99875306Y-170777180D02*
X99875306Y-170872419D01*
X100351496Y-170491466D02*
X101113401Y-170491466D01*
X101589591Y-170491466D02*
X102351496Y-170491466D01*
X103589591Y-170491466D02*
X104351496Y-170491466D01*
X104827686Y-170491466D02*
X105589591Y-170491466D01*
X106065781Y-170491466D02*
X106827686Y-170491466D01*
X108065781Y-170777180D02*
X108113400Y-170824800D01*
X108113400Y-170824800D02*
X108065781Y-170872419D01*
X108065781Y-170872419D02*
X108018162Y-170824800D01*
X108018162Y-170824800D02*
X108065781Y-170777180D01*
X108065781Y-170777180D02*
X108065781Y-170872419D01*
X108541971Y-170491466D02*
X109303876Y-170491466D01*
X109780066Y-170777180D02*
X109827685Y-170824800D01*
X109827685Y-170824800D02*
X109780066Y-170872419D01*
X109780066Y-170872419D02*
X109732447Y-170824800D01*
X109732447Y-170824800D02*
X109780066Y-170777180D01*
X109780066Y-170777180D02*
X109780066Y-170872419D01*
X111018161Y-170777180D02*
X111065780Y-170824800D01*
X111065780Y-170824800D02*
X111018161Y-170872419D01*
X111018161Y-170872419D02*
X110970542Y-170824800D01*
X110970542Y-170824800D02*
X111018161Y-170777180D01*
X111018161Y-170777180D02*
X111018161Y-170872419D01*
X111494351Y-170777180D02*
X111541970Y-170824800D01*
X111541970Y-170824800D02*
X111494351Y-170872419D01*
X111494351Y-170872419D02*
X111446732Y-170824800D01*
X111446732Y-170824800D02*
X111494351Y-170777180D01*
X111494351Y-170777180D02*
X111494351Y-170872419D01*
X111970541Y-170777180D02*
X112018160Y-170824800D01*
X112018160Y-170824800D02*
X111970541Y-170872419D01*
X111970541Y-170872419D02*
X111922922Y-170824800D01*
X111922922Y-170824800D02*
X111970541Y-170777180D01*
X111970541Y-170777180D02*
X111970541Y-170872419D01*
X113208636Y-170777180D02*
X113256255Y-170824800D01*
X113256255Y-170824800D02*
X113208636Y-170872419D01*
X113208636Y-170872419D02*
X113161017Y-170824800D01*
X113161017Y-170824800D02*
X113208636Y-170777180D01*
X113208636Y-170777180D02*
X113208636Y-170872419D01*
D11*
X74971804Y-151106857D02*
X73543232Y-151106857D01*
X73543232Y-151106857D02*
X73543232Y-148106857D01*
X76400375Y-151106857D02*
X76114660Y-150964000D01*
X76114660Y-150964000D02*
X75971803Y-150821142D01*
X75971803Y-150821142D02*
X75828946Y-150535428D01*
X75828946Y-150535428D02*
X75828946Y-149678285D01*
X75828946Y-149678285D02*
X75971803Y-149392571D01*
X75971803Y-149392571D02*
X76114660Y-149249714D01*
X76114660Y-149249714D02*
X76400375Y-149106857D01*
X76400375Y-149106857D02*
X76828946Y-149106857D01*
X76828946Y-149106857D02*
X77114660Y-149249714D01*
X77114660Y-149249714D02*
X77257518Y-149392571D01*
X77257518Y-149392571D02*
X77400375Y-149678285D01*
X77400375Y-149678285D02*
X77400375Y-150535428D01*
X77400375Y-150535428D02*
X77257518Y-150821142D01*
X77257518Y-150821142D02*
X77114660Y-150964000D01*
X77114660Y-150964000D02*
X76828946Y-151106857D01*
X76828946Y-151106857D02*
X76400375Y-151106857D01*
X78686089Y-149106857D02*
X78686089Y-151106857D01*
X78686089Y-149392571D02*
X78828946Y-149249714D01*
X78828946Y-149249714D02*
X79114661Y-149106857D01*
X79114661Y-149106857D02*
X79543232Y-149106857D01*
X79543232Y-149106857D02*
X79828946Y-149249714D01*
X79828946Y-149249714D02*
X79971804Y-149535428D01*
X79971804Y-149535428D02*
X79971804Y-151106857D01*
X81828947Y-151106857D02*
X81543232Y-150964000D01*
X81543232Y-150964000D02*
X81400375Y-150821142D01*
X81400375Y-150821142D02*
X81257518Y-150535428D01*
X81257518Y-150535428D02*
X81257518Y-149678285D01*
X81257518Y-149678285D02*
X81400375Y-149392571D01*
X81400375Y-149392571D02*
X81543232Y-149249714D01*
X81543232Y-149249714D02*
X81828947Y-149106857D01*
X81828947Y-149106857D02*
X82257518Y-149106857D01*
X82257518Y-149106857D02*
X82543232Y-149249714D01*
X82543232Y-149249714D02*
X82686090Y-149392571D01*
X82686090Y-149392571D02*
X82828947Y-149678285D01*
X82828947Y-149678285D02*
X82828947Y-150535428D01*
X82828947Y-150535428D02*
X82686090Y-150821142D01*
X82686090Y-150821142D02*
X82543232Y-150964000D01*
X82543232Y-150964000D02*
X82257518Y-151106857D01*
X82257518Y-151106857D02*
X81828947Y-151106857D01*
X87400375Y-149535428D02*
X87828947Y-149678285D01*
X87828947Y-149678285D02*
X87971804Y-149821142D01*
X87971804Y-149821142D02*
X88114661Y-150106857D01*
X88114661Y-150106857D02*
X88114661Y-150535428D01*
X88114661Y-150535428D02*
X87971804Y-150821142D01*
X87971804Y-150821142D02*
X87828947Y-150964000D01*
X87828947Y-150964000D02*
X87543232Y-151106857D01*
X87543232Y-151106857D02*
X86400375Y-151106857D01*
X86400375Y-151106857D02*
X86400375Y-148106857D01*
X86400375Y-148106857D02*
X87400375Y-148106857D01*
X87400375Y-148106857D02*
X87686090Y-148249714D01*
X87686090Y-148249714D02*
X87828947Y-148392571D01*
X87828947Y-148392571D02*
X87971804Y-148678285D01*
X87971804Y-148678285D02*
X87971804Y-148964000D01*
X87971804Y-148964000D02*
X87828947Y-149249714D01*
X87828947Y-149249714D02*
X87686090Y-149392571D01*
X87686090Y-149392571D02*
X87400375Y-149535428D01*
X87400375Y-149535428D02*
X86400375Y-149535428D01*
X90686090Y-151106857D02*
X90686090Y-149535428D01*
X90686090Y-149535428D02*
X90543232Y-149249714D01*
X90543232Y-149249714D02*
X90257518Y-149106857D01*
X90257518Y-149106857D02*
X89686090Y-149106857D01*
X89686090Y-149106857D02*
X89400375Y-149249714D01*
X90686090Y-150964000D02*
X90400375Y-151106857D01*
X90400375Y-151106857D02*
X89686090Y-151106857D01*
X89686090Y-151106857D02*
X89400375Y-150964000D01*
X89400375Y-150964000D02*
X89257518Y-150678285D01*
X89257518Y-150678285D02*
X89257518Y-150392571D01*
X89257518Y-150392571D02*
X89400375Y-150106857D01*
X89400375Y-150106857D02*
X89686090Y-149964000D01*
X89686090Y-149964000D02*
X90400375Y-149964000D01*
X90400375Y-149964000D02*
X90686090Y-149821142D01*
X93400376Y-151106857D02*
X93400376Y-148106857D01*
X93400376Y-150964000D02*
X93114661Y-151106857D01*
X93114661Y-151106857D02*
X92543233Y-151106857D01*
X92543233Y-151106857D02*
X92257518Y-150964000D01*
X92257518Y-150964000D02*
X92114661Y-150821142D01*
X92114661Y-150821142D02*
X91971804Y-150535428D01*
X91971804Y-150535428D02*
X91971804Y-149678285D01*
X91971804Y-149678285D02*
X92114661Y-149392571D01*
X92114661Y-149392571D02*
X92257518Y-149249714D01*
X92257518Y-149249714D02*
X92543233Y-149106857D01*
X92543233Y-149106857D02*
X93114661Y-149106857D01*
X93114661Y-149106857D02*
X93400376Y-149249714D01*
X96114662Y-149106857D02*
X96114662Y-151535428D01*
X96114662Y-151535428D02*
X95971804Y-151821142D01*
X95971804Y-151821142D02*
X95828947Y-151964000D01*
X95828947Y-151964000D02*
X95543233Y-152106857D01*
X95543233Y-152106857D02*
X95114662Y-152106857D01*
X95114662Y-152106857D02*
X94828947Y-151964000D01*
X96114662Y-150964000D02*
X95828947Y-151106857D01*
X95828947Y-151106857D02*
X95257519Y-151106857D01*
X95257519Y-151106857D02*
X94971804Y-150964000D01*
X94971804Y-150964000D02*
X94828947Y-150821142D01*
X94828947Y-150821142D02*
X94686090Y-150535428D01*
X94686090Y-150535428D02*
X94686090Y-149678285D01*
X94686090Y-149678285D02*
X94828947Y-149392571D01*
X94828947Y-149392571D02*
X94971804Y-149249714D01*
X94971804Y-149249714D02*
X95257519Y-149106857D01*
X95257519Y-149106857D02*
X95828947Y-149106857D01*
X95828947Y-149106857D02*
X96114662Y-149249714D01*
X98686090Y-150964000D02*
X98400376Y-151106857D01*
X98400376Y-151106857D02*
X97828948Y-151106857D01*
X97828948Y-151106857D02*
X97543233Y-150964000D01*
X97543233Y-150964000D02*
X97400376Y-150678285D01*
X97400376Y-150678285D02*
X97400376Y-149535428D01*
X97400376Y-149535428D02*
X97543233Y-149249714D01*
X97543233Y-149249714D02*
X97828948Y-149106857D01*
X97828948Y-149106857D02*
X98400376Y-149106857D01*
X98400376Y-149106857D02*
X98686090Y-149249714D01*
X98686090Y-149249714D02*
X98828948Y-149535428D01*
X98828948Y-149535428D02*
X98828948Y-149821142D01*
X98828948Y-149821142D02*
X97400376Y-150106857D01*
D12*
X45265713Y-152759580D02*
X45218094Y-152807200D01*
X45218094Y-152807200D02*
X45075237Y-152854819D01*
X45075237Y-152854819D02*
X44979999Y-152854819D01*
X44979999Y-152854819D02*
X44837142Y-152807200D01*
X44837142Y-152807200D02*
X44741904Y-152711961D01*
X44741904Y-152711961D02*
X44694285Y-152616723D01*
X44694285Y-152616723D02*
X44646666Y-152426247D01*
X44646666Y-152426247D02*
X44646666Y-152283390D01*
X44646666Y-152283390D02*
X44694285Y-152092914D01*
X44694285Y-152092914D02*
X44741904Y-151997676D01*
X44741904Y-151997676D02*
X44837142Y-151902438D01*
X44837142Y-151902438D02*
X44979999Y-151854819D01*
X44979999Y-151854819D02*
X45075237Y-151854819D01*
X45075237Y-151854819D02*
X45218094Y-151902438D01*
X45218094Y-151902438D02*
X45265713Y-151950057D01*
X46218094Y-152854819D02*
X45646666Y-152854819D01*
X45932380Y-152854819D02*
X45932380Y-151854819D01*
X45932380Y-151854819D02*
X45837142Y-151997676D01*
X45837142Y-151997676D02*
X45741904Y-152092914D01*
X45741904Y-152092914D02*
X45646666Y-152140533D01*
X62166666Y-152024819D02*
X62166666Y-152739104D01*
X62166666Y-152739104D02*
X62119047Y-152881961D01*
X62119047Y-152881961D02*
X62023809Y-152977200D01*
X62023809Y-152977200D02*
X61880952Y-153024819D01*
X61880952Y-153024819D02*
X61785714Y-153024819D01*
X63166666Y-153024819D02*
X62595238Y-153024819D01*
X62880952Y-153024819D02*
X62880952Y-152024819D01*
X62880952Y-152024819D02*
X62785714Y-152167676D01*
X62785714Y-152167676D02*
X62690476Y-152262914D01*
X62690476Y-152262914D02*
X62595238Y-152310533D01*
D13*
X35754942Y-187187455D02*
X35754942Y-187820762D01*
X35754942Y-187820762D02*
X35792196Y-187895268D01*
X35792196Y-187895268D02*
X35829449Y-187932522D01*
X35829449Y-187932522D02*
X35903956Y-187969775D01*
X35903956Y-187969775D02*
X36052969Y-187969775D01*
X36052969Y-187969775D02*
X36127476Y-187932522D01*
X36127476Y-187932522D02*
X36164729Y-187895268D01*
X36164729Y-187895268D02*
X36201982Y-187820762D01*
X36201982Y-187820762D02*
X36201982Y-187187455D01*
X36984302Y-187969775D02*
X36537262Y-187969775D01*
X36760782Y-187969775D02*
X36760782Y-187187455D01*
X36760782Y-187187455D02*
X36686275Y-187299215D01*
X36686275Y-187299215D02*
X36611769Y-187373722D01*
X36611769Y-187373722D02*
X36537262Y-187410975D01*
D12*
X63416667Y-142407200D02*
X63559524Y-142454819D01*
X63559524Y-142454819D02*
X63797619Y-142454819D01*
X63797619Y-142454819D02*
X63892857Y-142407200D01*
X63892857Y-142407200D02*
X63940476Y-142359580D01*
X63940476Y-142359580D02*
X63988095Y-142264342D01*
X63988095Y-142264342D02*
X63988095Y-142169104D01*
X63988095Y-142169104D02*
X63940476Y-142073866D01*
X63940476Y-142073866D02*
X63892857Y-142026247D01*
X63892857Y-142026247D02*
X63797619Y-141978628D01*
X63797619Y-141978628D02*
X63607143Y-141931009D01*
X63607143Y-141931009D02*
X63511905Y-141883390D01*
X63511905Y-141883390D02*
X63464286Y-141835771D01*
X63464286Y-141835771D02*
X63416667Y-141740533D01*
X63416667Y-141740533D02*
X63416667Y-141645295D01*
X63416667Y-141645295D02*
X63464286Y-141550057D01*
X63464286Y-141550057D02*
X63511905Y-141502438D01*
X63511905Y-141502438D02*
X63607143Y-141454819D01*
X63607143Y-141454819D02*
X63845238Y-141454819D01*
X63845238Y-141454819D02*
X63988095Y-141502438D01*
X64321429Y-141454819D02*
X64559524Y-142454819D01*
X64559524Y-142454819D02*
X64750000Y-141740533D01*
X64750000Y-141740533D02*
X64940476Y-142454819D01*
X64940476Y-142454819D02*
X65178572Y-141454819D01*
X65511905Y-141550057D02*
X65559524Y-141502438D01*
X65559524Y-141502438D02*
X65654762Y-141454819D01*
X65654762Y-141454819D02*
X65892857Y-141454819D01*
X65892857Y-141454819D02*
X65988095Y-141502438D01*
X65988095Y-141502438D02*
X66035714Y-141550057D01*
X66035714Y-141550057D02*
X66083333Y-141645295D01*
X66083333Y-141645295D02*
X66083333Y-141740533D01*
X66083333Y-141740533D02*
X66035714Y-141883390D01*
X66035714Y-141883390D02*
X65464286Y-142454819D01*
X65464286Y-142454819D02*
X66083333Y-142454819D01*
%TO.C,C1*%
D14*
X42192380Y-148402000D02*
X42192380Y-147598000D01*
X42232380Y-148633000D02*
X42232380Y-147367000D01*
X42272380Y-148801000D02*
X42272380Y-147199000D01*
X42312380Y-148939000D02*
X42312380Y-147061000D01*
X42352380Y-149058000D02*
X42352380Y-146942000D01*
X42392380Y-149165000D02*
X42392380Y-146835000D01*
X42432380Y-149261000D02*
X42432380Y-146739000D01*
X42472380Y-149350000D02*
X42472380Y-146650000D01*
X42512380Y-149432000D02*
X42512380Y-146568000D01*
X42552380Y-149509000D02*
X42552380Y-146491000D01*
X42592380Y-149581000D02*
X42592380Y-146419000D01*
X42632380Y-149649000D02*
X42632380Y-146351000D01*
X42672380Y-149714000D02*
X42672380Y-146286000D01*
X42712380Y-149775000D02*
X42712380Y-146225000D01*
X42752380Y-149834000D02*
X42752380Y-146166000D01*
X42792380Y-149890000D02*
X42792380Y-146110000D01*
X42832380Y-149943000D02*
X42832380Y-146057000D01*
X42872380Y-149995000D02*
X42872380Y-146005000D01*
X42912380Y-150044000D02*
X42912380Y-145956000D01*
X42952380Y-150091000D02*
X42952380Y-145909000D01*
X42992380Y-150137000D02*
X42992380Y-145863000D01*
X43032380Y-150181000D02*
X43032380Y-145819000D01*
X43072380Y-150223000D02*
X43072380Y-145777000D01*
X43112380Y-150264000D02*
X43112380Y-145736000D01*
X43152380Y-146960000D02*
X43152380Y-145696000D01*
X43152380Y-150304000D02*
X43152380Y-149040000D01*
X43192380Y-146960000D02*
X43192380Y-145658000D01*
X43192380Y-150342000D02*
X43192380Y-149040000D01*
X43232380Y-146960000D02*
X43232380Y-145621000D01*
X43232380Y-150379000D02*
X43232380Y-149040000D01*
X43272380Y-146960000D02*
X43272380Y-145585000D01*
X43272380Y-150415000D02*
X43272380Y-149040000D01*
X43312380Y-146960000D02*
X43312380Y-145550000D01*
X43312380Y-150450000D02*
X43312380Y-149040000D01*
X43352380Y-146960000D02*
X43352380Y-145517000D01*
X43352380Y-150483000D02*
X43352380Y-149040000D01*
X43392380Y-146960000D02*
X43392380Y-145484000D01*
X43392380Y-150516000D02*
X43392380Y-149040000D01*
X43432380Y-146960000D02*
X43432380Y-145453000D01*
X43432380Y-150547000D02*
X43432380Y-149040000D01*
X43472380Y-146960000D02*
X43472380Y-145423000D01*
X43472380Y-150577000D02*
X43472380Y-149040000D01*
X43512380Y-146960000D02*
X43512380Y-145393000D01*
X43512380Y-150607000D02*
X43512380Y-149040000D01*
X43552380Y-146960000D02*
X43552380Y-145364000D01*
X43552380Y-150636000D02*
X43552380Y-149040000D01*
X43592380Y-146960000D02*
X43592380Y-145337000D01*
X43592380Y-150663000D02*
X43592380Y-149040000D01*
X43632380Y-146960000D02*
X43632380Y-145310000D01*
X43632380Y-150690000D02*
X43632380Y-149040000D01*
X43672380Y-146960000D02*
X43672380Y-145284000D01*
X43672380Y-150716000D02*
X43672380Y-149040000D01*
X43712380Y-146960000D02*
X43712380Y-145259000D01*
X43712380Y-150741000D02*
X43712380Y-149040000D01*
X43752380Y-146960000D02*
X43752380Y-145235000D01*
X43752380Y-150765000D02*
X43752380Y-149040000D01*
X43792380Y-146960000D02*
X43792380Y-145211000D01*
X43792380Y-150789000D02*
X43792380Y-149040000D01*
X43832380Y-146960000D02*
X43832380Y-145188000D01*
X43832380Y-150812000D02*
X43832380Y-149040000D01*
X43872380Y-146960000D02*
X43872380Y-145166000D01*
X43872380Y-150834000D02*
X43872380Y-149040000D01*
X43912380Y-146960000D02*
X43912380Y-145145000D01*
X43912380Y-150855000D02*
X43912380Y-149040000D01*
X43952380Y-146960000D02*
X43952380Y-145124000D01*
X43952380Y-150876000D02*
X43952380Y-149040000D01*
X43992380Y-146960000D02*
X43992380Y-145104000D01*
X43992380Y-150896000D02*
X43992380Y-149040000D01*
X44032380Y-146960000D02*
X44032380Y-145085000D01*
X44032380Y-150915000D02*
X44032380Y-149040000D01*
X44072380Y-146960000D02*
X44072380Y-145066000D01*
X44072380Y-150934000D02*
X44072380Y-149040000D01*
X44112380Y-146960000D02*
X44112380Y-145048000D01*
X44112380Y-150952000D02*
X44112380Y-149040000D01*
X44152380Y-146960000D02*
X44152380Y-145031000D01*
X44152380Y-150969000D02*
X44152380Y-149040000D01*
X44192380Y-146960000D02*
X44192380Y-145014000D01*
X44192380Y-150986000D02*
X44192380Y-149040000D01*
X44232380Y-146960000D02*
X44232380Y-144998000D01*
X44232380Y-151002000D02*
X44232380Y-149040000D01*
X44272380Y-146960000D02*
X44272380Y-144983000D01*
X44272380Y-151017000D02*
X44272380Y-149040000D01*
X44312380Y-146960000D02*
X44312380Y-144968000D01*
X44312380Y-151032000D02*
X44312380Y-149040000D01*
X44352380Y-146960000D02*
X44352380Y-144953000D01*
X44352380Y-151047000D02*
X44352380Y-149040000D01*
X44392380Y-146960000D02*
X44392380Y-144940000D01*
X44392380Y-151060000D02*
X44392380Y-149040000D01*
X44432380Y-146960000D02*
X44432380Y-144927000D01*
X44432380Y-151073000D02*
X44432380Y-149040000D01*
X44472380Y-146960000D02*
X44472380Y-144914000D01*
X44472380Y-151086000D02*
X44472380Y-149040000D01*
X44512380Y-146960000D02*
X44512380Y-144902000D01*
X44512380Y-151098000D02*
X44512380Y-149040000D01*
X44552380Y-146960000D02*
X44552380Y-144891000D01*
X44552380Y-151109000D02*
X44552380Y-149040000D01*
X44592380Y-146960000D02*
X44592380Y-144880000D01*
X44592380Y-151120000D02*
X44592380Y-149040000D01*
X44632380Y-146960000D02*
X44632380Y-144869000D01*
X44632380Y-151131000D02*
X44632380Y-149040000D01*
X44672380Y-146960000D02*
X44672380Y-144860000D01*
X44672380Y-151140000D02*
X44672380Y-149040000D01*
X44712380Y-146960000D02*
X44712380Y-144850000D01*
X44712380Y-151150000D02*
X44712380Y-149040000D01*
X44752380Y-146960000D02*
X44752380Y-144841000D01*
X44752380Y-151159000D02*
X44752380Y-149040000D01*
X44792380Y-146960000D02*
X44792380Y-144833000D01*
X44792380Y-151167000D02*
X44792380Y-149040000D01*
X44832380Y-146960000D02*
X44832380Y-144826000D01*
X44832380Y-151174000D02*
X44832380Y-149040000D01*
X44872380Y-146960000D02*
X44872380Y-144818000D01*
X44872380Y-151182000D02*
X44872380Y-149040000D01*
X44912380Y-146960000D02*
X44912380Y-144812000D01*
X44912380Y-151188000D02*
X44912380Y-149040000D01*
X44952380Y-146960000D02*
X44952380Y-144805000D01*
X44952380Y-151195000D02*
X44952380Y-149040000D01*
X44992380Y-146960000D02*
X44992380Y-144800000D01*
X44992380Y-151200000D02*
X44992380Y-149040000D01*
X45032380Y-146960000D02*
X45032380Y-144795000D01*
X45032380Y-151205000D02*
X45032380Y-149040000D01*
X45072380Y-146960000D02*
X45072380Y-144790000D01*
X45072380Y-151210000D02*
X45072380Y-149040000D01*
X45112380Y-146960000D02*
X45112380Y-144786000D01*
X45112380Y-151214000D02*
X45112380Y-149040000D01*
X45152380Y-146960000D02*
X45152380Y-144782000D01*
X45152380Y-151218000D02*
X45152380Y-149040000D01*
X45192380Y-146960000D02*
X45192380Y-144779000D01*
X45192380Y-151221000D02*
X45192380Y-149040000D01*
X45232380Y-151224000D02*
X45232380Y-144776000D01*
X45272380Y-151226000D02*
X45272380Y-144774000D01*
X45312380Y-151228000D02*
X45312380Y-144772000D01*
X45352380Y-151229000D02*
X45352380Y-144771000D01*
X45392380Y-151230000D02*
X45392380Y-144770000D01*
X45432380Y-151230000D02*
X45432380Y-144770000D01*
X48617621Y-150154000D02*
X48617621Y-149524000D01*
X48932621Y-149839000D02*
X48302621Y-149839000D01*
X48702380Y-148000000D02*
G75*
G02*
X42162380Y-148000000I-3270000J0D01*
G01*
X42162380Y-148000000D02*
G75*
G02*
X48702380Y-148000000I3270000J0D01*
G01*
%TO.C,J1*%
X61170000Y-156610000D02*
X61170000Y-174450000D01*
X61170000Y-156610000D02*
X63830000Y-156610000D01*
X61170000Y-174450000D02*
X63830000Y-174450000D01*
X62500000Y-154010000D02*
X63830000Y-154010000D01*
X63830000Y-154010000D02*
X63830000Y-155340000D01*
X63830000Y-156610000D02*
X63830000Y-174450000D01*
%TO.C,U1*%
D10*
X26535500Y-167806750D02*
X26535500Y-184951750D01*
X28440500Y-186856750D02*
X42410500Y-186856750D01*
D15*
X30921500Y-187866750D02*
X30921500Y-186856750D01*
X39416772Y-188366750D02*
X31421500Y-188366750D01*
X39920500Y-186856750D02*
X39916772Y-187867022D01*
D10*
X42410500Y-165901750D02*
X28440500Y-165901750D01*
X44315500Y-167806750D02*
X44315500Y-184951750D01*
X26535500Y-167806750D02*
G75*
G02*
X28440500Y-165901750I1905000J0D01*
G01*
X28440500Y-186856750D02*
G75*
G02*
X26535500Y-184951750I50J1905050D01*
G01*
D15*
X31421500Y-188366750D02*
G75*
G02*
X30921500Y-187866750I100J500100D01*
G01*
X39916772Y-187867022D02*
G75*
G02*
X39416772Y-188366752I-500022J292D01*
G01*
D10*
X42410500Y-165901750D02*
G75*
G02*
X44315500Y-167806750I0J-1905000D01*
G01*
X44315500Y-184955750D02*
G75*
G02*
X42410500Y-186860750I-1905001J1D01*
G01*
D16*
X43503500Y-185723750D02*
G75*
G02*
X42999500Y-185723750I-252000J0D01*
G01*
X42999500Y-185723750D02*
G75*
G02*
X43503500Y-185723750I252000J0D01*
G01*
X44777500Y-186440750D02*
G75*
G02*
X44273500Y-186440750I-252000J0D01*
G01*
X44273500Y-186440750D02*
G75*
G02*
X44777500Y-186440750I252000J0D01*
G01*
%TO.C,SW2*%
D14*
X61250000Y-145500000D02*
X61250000Y-147000000D01*
X62500000Y-149500000D02*
X67000000Y-149500000D01*
X67000000Y-143000000D02*
X62500000Y-143000000D01*
X68250000Y-147000000D02*
X68250000Y-145500000D01*
%TD*%
M02*
