%TF.GenerationSoftware,KiCad,Pcbnew,10.0.6*%
%TF.CreationDate,2026-09-20T13:38:56+08:00*%
%TF.ProjectId,LonoBadge,4c6f6e6f-4261-4646-9765-2e6b69636164,rev?*%
%TF.SameCoordinates,Original*%
%TF.FileFunction,Copper,L1,Top*%
%TF.FilePolarity,Positive*%
%FSLAX46Y46*%
G04 Gerber Fmt 4.6, Leading zero omitted, Abs format (unit mm)*
G04 Created by KiCad (PCBNEW 10.0.6) date 2026-09-20 13:38:56*
%MOMM*%
%LPD*%
G01*
G04 APERTURE LIST*
G04 Aperture macros list*
%AMRoundRect*
0 Rectangle with rounded corners*
0 $1 Rounding radius*
0 $2 $3 $4 $5 $6 $7 $8 $9 X,Y pos of 4 corners*
0 Add a 4 corners polygon primitive as box body*
4,1,4,$2,$3,$4,$5,$6,$7,$8,$9,$2,$3,0*
0 Add four circle primitives for the rounded corners*
1,1,$1+$1,$2,$3*
1,1,$1+$1,$4,$5*
1,1,$1+$1,$6,$7*
1,1,$1+$1,$8,$9*
0 Add four rect primitives between the rounded corners*
20,1,$1+$1,$2,$3,$4,$5,0*
20,1,$1+$1,$4,$5,$6,$7,0*
20,1,$1+$1,$6,$7,$8,$9,0*
20,1,$1+$1,$8,$9,$2,$3,0*%
G04 Aperture macros list end*
%TA.AperFunction,ComponentPad*%
%ADD10RoundRect,0.250000X0.550000X0.550000X-0.550000X0.550000X-0.550000X-0.550000X0.550000X-0.550000X0*%
%TD*%
%TA.AperFunction,ComponentPad*%
%ADD11C,1.600000*%
%TD*%
%TA.AperFunction,ComponentPad*%
%ADD12R,1.700000X1.700000*%
%TD*%
%TA.AperFunction,ComponentPad*%
%ADD13C,1.700000*%
%TD*%
%TA.AperFunction,SMDPad,CuDef*%
%ADD14RoundRect,0.500000X0.875000X0.500000X-0.875000X0.500000X-0.875000X-0.500000X0.875000X-0.500000X0*%
%TD*%
%TA.AperFunction,SMDPad,CuDef*%
%ADD15C,1.700000*%
%TD*%
%TA.AperFunction,SMDPad,CuDef*%
%ADD16RoundRect,0.275000X-0.975000X-0.275000X0.975000X-0.275000X0.975000X0.275000X-0.975000X0.275000X0*%
%TD*%
%TA.AperFunction,SMDPad,CuDef*%
%ADD17RoundRect,0.275000X0.275000X-0.975000X0.275000X0.975000X-0.275000X0.975000X-0.275000X-0.975000X0*%
%TD*%
%TA.AperFunction,ComponentPad*%
%ADD18C,2.000000*%
%TD*%
%TA.AperFunction,ViaPad*%
%ADD19C,0.900000*%
%TD*%
%TA.AperFunction,ViaPad*%
%ADD20C,0.600000*%
%TD*%
%TA.AperFunction,Conductor*%
%ADD21C,0.500000*%
%TD*%
%TA.AperFunction,Conductor*%
%ADD22C,0.200000*%
%TD*%
G04 APERTURE END LIST*
D10*
%TO.P,C1,1*%
%TO.N,Net-(BT1-+)*%
X46682380Y-148000000D03*
D11*
%TO.P,C1,2*%
%TO.N,Net-(BT1--)*%
X44182380Y-148000000D03*
%TD*%
D12*
%TO.P,J1,1,Pin_1_1*%
%TO.N,+3.3V*%
X62500000Y-155340000D03*
D13*
%TO.P,J1,2,Pin_2_2*%
%TO.N,GND*%
X62500000Y-157880000D03*
%TO.P,J1,3,Pin_3_3*%
%TO.N,/MOSI*%
X62500000Y-160420000D03*
%TO.P,J1,4,Pin_4_4*%
%TO.N,/CLK*%
X62500000Y-162960000D03*
%TO.P,J1,5,Pin_5_5*%
%TO.N,/CS*%
X62500000Y-165500000D03*
%TO.P,J1,6,Pin_6_6*%
%TO.N,/DC*%
X62500000Y-168040000D03*
%TO.P,J1,7,Pin_7_7*%
%TO.N,/RST*%
X62500000Y-170580000D03*
%TO.P,J1,8,Pin_8_8*%
%TO.N,/BSY*%
X62500000Y-173120000D03*
%TD*%
D14*
%TO.P,U1,1,D0_1*%
%TO.N,unconnected-(U1-D0-Pad1)*%
X43480500Y-183939750D03*
%TO.P,U1,2,D1_2*%
%TO.N,/CS*%
X43480500Y-181399750D03*
%TO.P,U1,3,D2_3*%
%TO.N,/DC*%
X43480500Y-178859750D03*
%TO.P,U1,4,D3_4*%
%TO.N,/RST*%
X43480500Y-176319750D03*
%TO.P,U1,5,D4_5*%
%TO.N,/BSY*%
X43480500Y-173779750D03*
%TO.P,U1,6,D5_6*%
%TO.N,/SW1*%
X43480500Y-171239750D03*
%TO.P,U1,7,D6_7*%
%TO.N,unconnected-(U1-D6-Pad7)*%
X43480500Y-168699750D03*
%TO.P,U1,8,D7_8*%
%TO.N,unconnected-(U1-D7-Pad8)*%
X27315500Y-168699750D03*
%TO.P,U1,9,D8_9*%
%TO.N,/CLK*%
X27315500Y-171239750D03*
%TO.P,U1,10,D9_10*%
%TO.N,unconnected-(U1-D9-Pad10)*%
X27315500Y-173779750D03*
%TO.P,U1,11,D10_11*%
%TO.N,/MOSI*%
X27315500Y-176319750D03*
%TO.P,U1,12,3V3_OUT_12*%
%TO.N,+3.3V*%
X27315500Y-178859750D03*
%TO.P,U1,13,GND_13*%
%TO.N,GND*%
X27315500Y-181399750D03*
%TO.P,U1,14,VBUS_14*%
%TO.N,unconnected-(U1-VBUS-Pad14)*%
X27315500Y-183939750D03*
D15*
%TO.P,U1,15,SWDIO_15*%
%TO.N,unconnected-(U1-SWDIO-Pad15)*%
X36695500Y-184888250D03*
%TO.P,U1,16,SWCLK_16*%
%TO.N,unconnected-(U1-SWCLK-Pad16)*%
X34155500Y-184888250D03*
%TO.P,U1,17,EN_17*%
%TO.N,unconnected-(U1-EN-Pad17)*%
X36695500Y-182348250D03*
%TO.P,U1,18,GND_18*%
%TO.N,unconnected-(U1-GND-Pad18)*%
X34155500Y-182348250D03*
D16*
%TO.P,U1,19,VBAT_19*%
%TO.N,Net-(BT1-+)*%
X39870500Y-176633250D03*
%TO.P,U1,20,GND_20*%
%TO.N,Net-(BT1--)*%
X39870500Y-178538250D03*
D17*
%TO.P,U1,21,NFC1_21*%
%TO.N,unconnected-(U1-NFC1-Pad21)*%
X31615500Y-167082850D03*
%TO.P,U1,22,NFC2_22*%
%TO.N,unconnected-(U1-NFC2-Pad22)*%
X29710500Y-167082850D03*
%TD*%
D18*
%TO.P,SW2,1,1_1*%
%TO.N,/SW1*%
X61500000Y-144000000D03*
X68000000Y-144000000D03*
%TO.P,SW2,2,2_2*%
%TO.N,GND*%
X61500000Y-148500000D03*
X68000000Y-148500000D03*
%TD*%
D19*
%TO.N,Net-(BT1-+)*%
X37500000Y-176500000D03*
%TO.N,Net-(BT1--)*%
X32500000Y-151000000D03*
D20*
%TO.N,/RST*%
X53100000Y-173100000D03*
X56000000Y-173000000D03*
%TO.N,/DC*%
X56000000Y-172000000D03*
X53500000Y-172000000D03*
%TO.N,/BSY*%
X52500000Y-173779750D03*
X56000000Y-174000000D03*
%TO.N,/CLK*%
X35500000Y-177500000D03*
X33500000Y-175500000D03*
D19*
%TO.N,GND*%
X30399750Y-181399750D03*
D20*
%TO.N,/CS*%
X54000000Y-171000000D03*
X56000000Y-171000000D03*
%TO.N,/SW1*%
X56500000Y-161500000D03*
X56500000Y-159500000D03*
%TD*%
%TO.N,Net-(BT1-+)*%
D21*
X37500000Y-176500000D02*
X39737250Y-176500000D01*
X39737250Y-176500000D02*
X39870500Y-176633250D01*
%TO.N,Net-(BT1--)*%
X38265457Y-178538250D02*
X39870500Y-178538250D01*
X32500000Y-151000000D02*
X32615500Y-151115500D01*
X32615500Y-151115500D02*
X32615500Y-172888293D01*
X32615500Y-172888293D02*
X38265457Y-178538250D01*
%TO.N,+3.3V*%
X66500000Y-173500000D02*
X64500000Y-175500000D01*
X35045478Y-178859750D02*
X27315500Y-178859750D01*
X64500000Y-175500000D02*
X56500000Y-175500000D01*
X37995500Y-182495500D02*
X37995500Y-181809772D01*
X62500000Y-155340000D02*
X66500000Y-159340000D01*
X46000000Y-186000000D02*
X41500000Y-186000000D01*
X37995500Y-181809772D02*
X35045478Y-178859750D01*
X56500000Y-175500000D02*
X46000000Y-186000000D01*
X66500000Y-159340000D02*
X66500000Y-173500000D01*
X41500000Y-186000000D02*
X37995500Y-182495500D01*
%TO.N,/MOSI*%
D22*
X39449389Y-180500000D02*
X41481774Y-180500000D01*
X27315500Y-176319750D02*
X35269139Y-176319750D01*
X41500000Y-168166608D02*
X49246608Y-160420000D01*
X49246608Y-160420000D02*
X62500000Y-160420000D01*
X41481774Y-180500000D02*
X41500000Y-180481774D01*
X35269139Y-176319750D02*
X39449389Y-180500000D01*
X41500000Y-180481774D02*
X41500000Y-168166608D01*
%TO.N,/RST*%
X60080000Y-173000000D02*
X62500000Y-170580000D01*
X53100000Y-174028279D02*
X53100000Y-173100000D01*
X53100000Y-173100000D02*
X53000000Y-173000000D01*
X43480500Y-176319750D02*
X50808529Y-176319750D01*
X56000000Y-173000000D02*
X60080000Y-173000000D01*
X50808529Y-176319750D02*
X53100000Y-174028279D01*
%TO.N,/DC*%
X56000000Y-172000000D02*
X58540000Y-172000000D01*
X43480500Y-178859750D02*
X48834214Y-178859750D01*
X48834214Y-178859750D02*
X54000000Y-173693964D01*
X54000000Y-172500000D02*
X53500000Y-172000000D01*
X58540000Y-172000000D02*
X62500000Y-168040000D01*
X54000000Y-173693964D02*
X54000000Y-172500000D01*
%TO.N,/BSY*%
X56000000Y-174000000D02*
X61620000Y-174000000D01*
X52500000Y-173779750D02*
X43480500Y-173779750D01*
X61620000Y-174000000D02*
X62500000Y-173120000D01*
%TO.N,/CLK*%
X55000000Y-174933892D02*
X55000000Y-167000000D01*
X35500000Y-178500000D02*
X42239750Y-185239750D01*
X55000000Y-167000000D02*
X59040000Y-162960000D01*
X59040000Y-162960000D02*
X62500000Y-162960000D01*
X35500000Y-177500000D02*
X35500000Y-178500000D01*
X29239750Y-171239750D02*
X33500000Y-175500000D01*
X27315500Y-171239750D02*
X29239750Y-171239750D01*
X44694142Y-185239750D02*
X55000000Y-174933892D01*
X42239750Y-185239750D02*
X44694142Y-185239750D01*
%TO.N,GND*%
D21*
X27315500Y-181399750D02*
X30399750Y-181399750D01*
%TO.N,/CS*%
D22*
X56000000Y-171000000D02*
X61500000Y-165500000D01*
X61500000Y-165500000D02*
X62500000Y-165500000D01*
X43480500Y-181399750D02*
X46859899Y-181399750D01*
X54400000Y-173859649D02*
X54400000Y-171400000D01*
X46859899Y-181399750D02*
X54400000Y-173859649D01*
X54400000Y-171400000D02*
X54000000Y-171000000D01*
%TO.N,/SW1*%
X56500000Y-159500000D02*
X58000000Y-159500000D01*
X58000000Y-159500000D02*
X59500000Y-158000000D01*
X46760250Y-171239750D02*
X56500000Y-161500000D01*
X59500000Y-148500000D02*
X61500000Y-146500000D01*
X43480500Y-171239750D02*
X46760250Y-171239750D01*
X59500000Y-158000000D02*
X59500000Y-148500000D01*
X61500000Y-144000000D02*
X68000000Y-144000000D01*
X61500000Y-146500000D02*
X61500000Y-144000000D01*
%TD*%
M02*
